<?xml version="1.0" encoding="UTF-8" standalone="no"?>
<!-- Created with Inkscape (http://www.inkscape.org/) -->

<svg
   xmlns:dc="http://purl.org/dc/elements/1.1/"
   xmlns:cc="http://creativecommons.org/ns#"
   xmlns:rdf="http://www.w3.org/1999/02/22-rdf-syntax-ns#"
   xmlns:svg="http://www.w3.org/2000/svg"
   xmlns="http://www.w3.org/2000/svg"
   xmlns:sodipodi="http://sodipodi.sourceforge.net/DTD/sodipodi-0.dtd"
   xmlns:inkscape="http://www.inkscape.org/namespaces/inkscape"
   version="1.1"
   id="svg2"
   xml:space="preserve"
   width="1018.6667"
   height="556"
   viewBox="0 0 1018.6667 556"
   sodipodi:docname="Deglaciation.svg"
   inkscape:version="0.92.3 (2405546, 2018-03-11)"><metadata
     id="metadata8"><rdf:RDF><cc:Work
         rdf:about=""><dc:format>image/svg+xml</dc:format><dc:type
           rdf:resource="http://purl.org/dc/dcmitype/StillImage" /><dc:title></dc:title></cc:Work></rdf:RDF></metadata><defs
     id="defs6"><marker
       inkscape:isstock="true"
       style="overflow:visible"
       id="marker2753"
       refX="0.0"
       refY="0.0"
       orient="auto"
       inkscape:stockid="StopM"><path
         transform="scale(0.4)"
         style="fill:none;fill-opacity:0.75;fill-rule:evenodd;stroke:#4d4d4d;stroke-width:1pt;stroke-opacity:1"
         d="M 0.0,5.65 L 0.0,-5.65"
         id="path2751" /></marker><marker
       inkscape:stockid="StopM"
       orient="auto"
       refY="0.0"
       refX="0.0"
       id="StopM"
       style="overflow:visible"
       inkscape:isstock="true"
       inkscape:collect="always"><path
         id="path1397"
         d="M 0.0,5.65 L 0.0,-5.65"
         style="fill:none;fill-opacity:0.75;fill-rule:evenodd;stroke:#4d4d4d;stroke-width:1pt;stroke-opacity:1"
         transform="scale(0.4)" /></marker><marker
       inkscape:stockid="StopL"
       orient="auto"
       refY="0.0"
       refX="0.0"
       id="StopL"
       style="overflow:visible"
       inkscape:isstock="true"><path
         id="path1394"
         d="M 0.0,5.65 L 0.0,-5.65"
         style="fill:none;fill-opacity:0.75;fill-rule:evenodd;stroke:#000000;stroke-width:1pt;stroke-opacity:1"
         transform="scale(0.8)" /></marker><clipPath
       clipPathUnits="userSpaceOnUse"
       id="clipPath20"><path
         d="M 0,4 V 4170 H 7640 V 4 Z"
         id="path18"
         inkscape:connector-curvature="0" /></clipPath><clipPath
       clipPathUnits="userSpaceOnUse"
       id="clipPath382"><path
         d="m 829.359,520.512 h 6696 v 3533 h -6696 z"
         id="path380"
         inkscape:connector-curvature="0" /></clipPath><clipPath
       clipPathUnits="userSpaceOnUse"
       id="clipPath392"><path
         d="M 0,4 V 4170 H 7640 V 4 Z"
         id="path390"
         inkscape:connector-curvature="0" /></clipPath></defs><sodipodi:namedview
     pagecolor="#ffffff"
     bordercolor="#666666"
     borderopacity="1"
     objecttolerance="10"
     gridtolerance="10"
     guidetolerance="10"
     inkscape:pageopacity="0"
     inkscape:pageshadow="2"
     inkscape:window-width="1366"
     inkscape:window-height="715"
     id="namedview4"
     showgrid="false"
     inkscape:snap-global="true"
     showguides="true"
     inkscape:guide-bbox="true"
     inkscape:zoom="0.59685863"
     inkscape:cx="562.33054"
     inkscape:cy="261.45592"
     inkscape:window-x="0"
     inkscape:window-y="0"
     inkscape:window-maximized="1"
     inkscape:current-layer="g10" /><g
     id="g10"
     inkscape:groupmode="layer"
     inkscape:label="ink_ext_XXXXXX"
     transform="matrix(1.3333333,0,0,-1.3333333,0,556)"><g
       id="g12"
       transform="scale(0.1)"
       inkscape:export-xdpi="300"
       inkscape:export-ydpi="300"><g
         id="g14"><g
           id="g16"
           clip-path="url(#clipPath20)"><path
             d="M 0,4.10938 H 7647.35 V 4175.8894 H 0 Z"
             style="fill:#ffffff;fill-opacity:1;fill-rule:nonzero;stroke:none"
             id="path22"
             inkscape:connector-curvature="0" /><path
             d="m 829.348,520.484 h 6696 v 3533.4 h -6696 z"
             style="fill:#ffffff;fill-opacity:1;fill-rule:nonzero;stroke:none"
             id="path24"
             inkscape:connector-curvature="0" /><path
             d="m 7525.35,470.484 v 100"
             style="fill:#000000;fill-opacity:1;fill-rule:nonzero;stroke:none"
             id="path26"
             inkscape:connector-curvature="0" /><path
             d="m 7525.35,470.484 v 100"
             style="fill:none;stroke:#000000;stroke-width:8;stroke-linecap:butt;stroke-linejoin:round;stroke-miterlimit:10;stroke-dasharray:none;stroke-opacity:1"
             id="path28"
             inkscape:connector-curvature="0" /><g
             id="g30"
             transform="scale(10)"><text
               transform="matrix(1,0,0,-1,747.761,32.1578)"
               style="font-variant:normal;font-weight:normal;font-size:15px;font-family:Arial;-inkscape-font-specification:Arial;writing-mode:lr-tb;fill:#000000;fill-opacity:1;fill-rule:nonzero;stroke:none"
               id="text34"><tspan
                 x="0"
                 y="0"
                 id="tspan32">0</tspan></text>
</g><path
             d="m 6495.19,470.484 v 100"
             style="fill:#000000;fill-opacity:1;fill-rule:nonzero;stroke:none"
             id="path36"
             inkscape:connector-curvature="0" /><path
             d="m 6495.19,470.484 v 100"
             style="fill:none;stroke:#000000;stroke-width:8;stroke-linecap:butt;stroke-linejoin:round;stroke-miterlimit:10;stroke-dasharray:none;stroke-opacity:1"
             id="path38"
             inkscape:connector-curvature="0" /><g
             id="g40"
             transform="scale(10)"><text
               transform="matrix(1,0,0,-1,639.973,32.1578)"
               style="font-variant:normal;font-weight:normal;font-size:15px;font-family:Arial;-inkscape-font-specification:Arial;writing-mode:lr-tb;fill:#000000;fill-opacity:1;fill-rule:nonzero;stroke:none"
               id="text44"><tspan
                 x="0 9.5433693"
                 y="0"
                 sodipodi:role="line"
                 id="tspan42">20</tspan></text>
</g><path
             d="m 5465.04,470.484 v 100"
             style="fill:#000000;fill-opacity:1;fill-rule:nonzero;stroke:none"
             id="path46"
             inkscape:connector-curvature="0" /><path
             d="m 5465.04,470.484 v 100"
             style="fill:none;stroke:#000000;stroke-width:8;stroke-linecap:butt;stroke-linejoin:round;stroke-miterlimit:10;stroke-dasharray:none;stroke-opacity:1"
             id="path48"
             inkscape:connector-curvature="0" /><g
             id="g50"
             transform="scale(10)"><text
               transform="matrix(1,0,0,-1,536.957,32.1578)"
               style="font-variant:normal;font-weight:normal;font-size:15px;font-family:Arial;-inkscape-font-specification:Arial;writing-mode:lr-tb;fill:#000000;fill-opacity:1;fill-rule:nonzero;stroke:none"
               id="text54"><tspan
                 x="0 9.5437593"
                 y="0"
                 sodipodi:role="line"
                 id="tspan52">40</tspan></text>
</g><path
             d="m 4434.89,470.484 v 100"
             style="fill:#000000;fill-opacity:1;fill-rule:nonzero;stroke:none"
             id="path56"
             inkscape:connector-curvature="0" /><path
             d="m 4434.89,470.484 v 100"
             style="fill:none;stroke:#000000;stroke-width:8;stroke-linecap:butt;stroke-linejoin:round;stroke-miterlimit:10;stroke-dasharray:none;stroke-opacity:1"
             id="path58"
             inkscape:connector-curvature="0" /><g
             id="g60"
             transform="scale(10)"><text
               transform="matrix(1,0,0,-1,433.942,32.1578)"
               style="font-variant:normal;font-weight:normal;font-size:15px;font-family:Arial;-inkscape-font-specification:Arial;writing-mode:lr-tb;fill:#000000;fill-opacity:1;fill-rule:nonzero;stroke:none"
               id="text64"><tspan
                 x="0 9.5433693"
                 y="0"
                 sodipodi:role="line"
                 id="tspan62">60</tspan></text>
</g><path
             d="m 3404.73,470.484 v 100"
             style="fill:#000000;fill-opacity:1;fill-rule:nonzero;stroke:none"
             id="path66"
             inkscape:connector-curvature="0" /><path
             d="m 3404.73,470.484 v 100"
             style="fill:none;stroke:#000000;stroke-width:8;stroke-linecap:butt;stroke-linejoin:round;stroke-miterlimit:10;stroke-dasharray:none;stroke-opacity:1"
             id="path68"
             inkscape:connector-curvature="0" /><g
             id="g70"
             transform="scale(10)"><text
               transform="matrix(1,0,0,-1,330.926,32.1578)"
               style="font-variant:normal;font-weight:normal;font-size:15px;font-family:Arial;-inkscape-font-specification:Arial;writing-mode:lr-tb;fill:#000000;fill-opacity:1;fill-rule:nonzero;stroke:none"
               id="text74"><tspan
                 x="0 9.5437593"
                 y="0"
                 sodipodi:role="line"
                 id="tspan72">80</tspan></text>
</g><path
             d="m 2374.58,470.484 v 100"
             style="fill:#000000;fill-opacity:1;fill-rule:nonzero;stroke:none"
             id="path76"
             inkscape:connector-curvature="0" /><path
             d="m 2374.58,470.484 v 100"
             style="fill:none;stroke:#000000;stroke-width:8;stroke-linecap:butt;stroke-linejoin:round;stroke-miterlimit:10;stroke-dasharray:none;stroke-opacity:1"
             id="path78"
             inkscape:connector-curvature="0" /><g
             id="g80"
             transform="scale(10)"><text
               transform="matrix(1,0,0,-1,223.138,32.1578)"
               style="font-variant:normal;font-weight:normal;font-size:15px;font-family:Arial;-inkscape-font-specification:Arial;writing-mode:lr-tb;fill:#000000;fill-opacity:1;fill-rule:nonzero;stroke:none"
               id="text84"><tspan
                 x="0 9.5433693 19.08713"
                 y="0"
                 sodipodi:role="line"
                 id="tspan82">100</tspan></text>
</g><path
             d="m 1344.42,470.484 v 100"
             style="fill:#000000;fill-opacity:1;fill-rule:nonzero;stroke:none"
             id="path86"
             inkscape:connector-curvature="0" /><path
             d="m 1344.42,470.484 v 100"
             style="fill:none;stroke:#000000;stroke-width:8;stroke-linecap:butt;stroke-linejoin:round;stroke-miterlimit:10;stroke-dasharray:none;stroke-opacity:1"
             id="path88"
             inkscape:connector-curvature="0" /><g
             id="g90"
             transform="scale(10)"><text
               transform="matrix(1,0,0,-1,120.122,32.1578)"
               style="font-variant:normal;font-weight:normal;font-size:15px;font-family:Arial;-inkscape-font-specification:Arial;writing-mode:lr-tb;fill:#000000;fill-opacity:1;fill-rule:nonzero;stroke:none"
               id="text94"><tspan
                 x="0 9.5433569 19.086714"
                 y="0"
                 sodipodi:role="line"
                 id="tspan92">120</tspan></text>
</g><path
             d="m 7267.81,495.484 v 50"
             style="fill:#000000;fill-opacity:1;fill-rule:nonzero;stroke:none"
             id="path96"
             inkscape:connector-curvature="0" /><path
             d="m 7267.81,495.484 v 50"
             style="fill:none;stroke:#000000;stroke-width:6;stroke-linecap:butt;stroke-linejoin:round;stroke-miterlimit:10;stroke-dasharray:none;stroke-opacity:1"
             id="path98"
             inkscape:connector-curvature="0" /><path
             d="m 7010.27,495.484 v 50"
             style="fill:#000000;fill-opacity:1;fill-rule:nonzero;stroke:none"
             id="path100"
             inkscape:connector-curvature="0" /><path
             d="m 7010.27,495.484 v 50"
             style="fill:none;stroke:#000000;stroke-width:6;stroke-linecap:butt;stroke-linejoin:round;stroke-miterlimit:10;stroke-dasharray:none;stroke-opacity:1"
             id="path102"
             inkscape:connector-curvature="0" /><path
             d="m 6752.73,495.484 v 50"
             style="fill:#000000;fill-opacity:1;fill-rule:nonzero;stroke:none"
             id="path104"
             inkscape:connector-curvature="0" /><path
             d="m 6752.73,495.484 v 50"
             style="fill:none;stroke:#000000;stroke-width:6;stroke-linecap:butt;stroke-linejoin:round;stroke-miterlimit:10;stroke-dasharray:none;stroke-opacity:1"
             id="path106"
             inkscape:connector-curvature="0" /><path
             d="m 6237.66,495.484 v 50"
             style="fill:#000000;fill-opacity:1;fill-rule:nonzero;stroke:none"
             id="path108"
             inkscape:connector-curvature="0" /><path
             d="m 6237.66,495.484 v 50"
             style="fill:none;stroke:#000000;stroke-width:6;stroke-linecap:butt;stroke-linejoin:round;stroke-miterlimit:10;stroke-dasharray:none;stroke-opacity:1"
             id="path110"
             inkscape:connector-curvature="0" /><path
             d="m 5980.12,495.484 v 50"
             style="fill:#000000;fill-opacity:1;fill-rule:nonzero;stroke:none"
             id="path112"
             inkscape:connector-curvature="0" /><path
             d="m 5980.12,495.484 v 50"
             style="fill:none;stroke:#000000;stroke-width:6;stroke-linecap:butt;stroke-linejoin:round;stroke-miterlimit:10;stroke-dasharray:none;stroke-opacity:1"
             id="path114"
             inkscape:connector-curvature="0" /><path
             d="m 5722.58,495.484 v 50"
             style="fill:#000000;fill-opacity:1;fill-rule:nonzero;stroke:none"
             id="path116"
             inkscape:connector-curvature="0" /><path
             d="m 5722.58,495.484 v 50"
             style="fill:none;stroke:#000000;stroke-width:6;stroke-linecap:butt;stroke-linejoin:round;stroke-miterlimit:10;stroke-dasharray:none;stroke-opacity:1"
             id="path118"
             inkscape:connector-curvature="0" /><path
             d="m 5207.5,495.484 v 50"
             style="fill:#000000;fill-opacity:1;fill-rule:nonzero;stroke:none"
             id="path120"
             inkscape:connector-curvature="0" /><path
             d="m 5207.5,495.484 v 50"
             style="fill:none;stroke:#000000;stroke-width:6;stroke-linecap:butt;stroke-linejoin:round;stroke-miterlimit:10;stroke-dasharray:none;stroke-opacity:1"
             id="path122"
             inkscape:connector-curvature="0" /><path
             d="m 4949.96,495.484 v 50"
             style="fill:#000000;fill-opacity:1;fill-rule:nonzero;stroke:none"
             id="path124"
             inkscape:connector-curvature="0" /><path
             d="m 4949.96,495.484 v 50"
             style="fill:none;stroke:#000000;stroke-width:6;stroke-linecap:butt;stroke-linejoin:round;stroke-miterlimit:10;stroke-dasharray:none;stroke-opacity:1"
             id="path126"
             inkscape:connector-curvature="0" /><path
             d="m 4692.42,495.484 v 50"
             style="fill:#000000;fill-opacity:1;fill-rule:nonzero;stroke:none"
             id="path128"
             inkscape:connector-curvature="0" /><path
             d="m 4692.42,495.484 v 50"
             style="fill:none;stroke:#000000;stroke-width:6;stroke-linecap:butt;stroke-linejoin:round;stroke-miterlimit:10;stroke-dasharray:none;stroke-opacity:1"
             id="path130"
             inkscape:connector-curvature="0" /><path
             d="m 4177.35,495.484 v 50"
             style="fill:#000000;fill-opacity:1;fill-rule:nonzero;stroke:none"
             id="path132"
             inkscape:connector-curvature="0" /><path
             d="m 4177.35,495.484 v 50"
             style="fill:none;stroke:#000000;stroke-width:6;stroke-linecap:butt;stroke-linejoin:round;stroke-miterlimit:10;stroke-dasharray:none;stroke-opacity:1"
             id="path134"
             inkscape:connector-curvature="0" /><path
             d="m 3919.81,495.484 v 50"
             style="fill:#000000;fill-opacity:1;fill-rule:nonzero;stroke:none"
             id="path136"
             inkscape:connector-curvature="0" /><path
             d="m 3919.81,495.484 v 50"
             style="fill:none;stroke:#000000;stroke-width:6;stroke-linecap:butt;stroke-linejoin:round;stroke-miterlimit:10;stroke-dasharray:none;stroke-opacity:1"
             id="path138"
             inkscape:connector-curvature="0" /><path
             d="m 3662.27,495.484 v 50"
             style="fill:#000000;fill-opacity:1;fill-rule:nonzero;stroke:none"
             id="path140"
             inkscape:connector-curvature="0" /><path
             d="m 3662.27,495.484 v 50"
             style="fill:none;stroke:#000000;stroke-width:6;stroke-linecap:butt;stroke-linejoin:round;stroke-miterlimit:10;stroke-dasharray:none;stroke-opacity:1"
             id="path142"
             inkscape:connector-curvature="0" /><path
             d="m 3147.19,495.484 v 50"
             style="fill:#000000;fill-opacity:1;fill-rule:nonzero;stroke:none"
             id="path144"
             inkscape:connector-curvature="0" /><path
             d="m 3147.19,495.484 v 50"
             style="fill:none;stroke:#000000;stroke-width:6;stroke-linecap:butt;stroke-linejoin:round;stroke-miterlimit:10;stroke-dasharray:none;stroke-opacity:1"
             id="path146"
             inkscape:connector-curvature="0" /><path
             d="m 2889.66,495.484 v 50"
             style="fill:#000000;fill-opacity:1;fill-rule:nonzero;stroke:none"
             id="path148"
             inkscape:connector-curvature="0" /><path
             d="m 2889.66,495.484 v 50"
             style="fill:none;stroke:#000000;stroke-width:6;stroke-linecap:butt;stroke-linejoin:round;stroke-miterlimit:10;stroke-dasharray:none;stroke-opacity:1"
             id="path150"
             inkscape:connector-curvature="0" /><path
             d="m 2632.12,495.484 v 50"
             style="fill:#000000;fill-opacity:1;fill-rule:nonzero;stroke:none"
             id="path152"
             inkscape:connector-curvature="0" /><path
             d="m 2632.12,495.484 v 50"
             style="fill:none;stroke:#000000;stroke-width:6;stroke-linecap:butt;stroke-linejoin:round;stroke-miterlimit:10;stroke-dasharray:none;stroke-opacity:1"
             id="path154"
             inkscape:connector-curvature="0" /><path
             d="m 2117.04,495.484 v 50"
             style="fill:#000000;fill-opacity:1;fill-rule:nonzero;stroke:none"
             id="path156"
             inkscape:connector-curvature="0" /><path
             d="m 2117.04,495.484 v 50"
             style="fill:none;stroke:#000000;stroke-width:6;stroke-linecap:butt;stroke-linejoin:round;stroke-miterlimit:10;stroke-dasharray:none;stroke-opacity:1"
             id="path158"
             inkscape:connector-curvature="0" /><path
             d="m 1859.5,495.484 v 50"
             style="fill:#000000;fill-opacity:1;fill-rule:nonzero;stroke:none"
             id="path160"
             inkscape:connector-curvature="0" /><path
             d="m 1859.5,495.484 v 50"
             style="fill:none;stroke:#000000;stroke-width:6;stroke-linecap:butt;stroke-linejoin:round;stroke-miterlimit:10;stroke-dasharray:none;stroke-opacity:1"
             id="path162"
             inkscape:connector-curvature="0" /><path
             d="m 1601.96,495.484 v 50"
             style="fill:#000000;fill-opacity:1;fill-rule:nonzero;stroke:none"
             id="path164"
             inkscape:connector-curvature="0" /><path
             d="m 1601.96,495.484 v 50"
             style="fill:none;stroke:#000000;stroke-width:6;stroke-linecap:butt;stroke-linejoin:round;stroke-miterlimit:10;stroke-dasharray:none;stroke-opacity:1"
             id="path166"
             inkscape:connector-curvature="0" /><path
             d="m 1086.89,495.484 v 50"
             style="fill:#000000;fill-opacity:1;fill-rule:nonzero;stroke:none"
             id="path168"
             inkscape:connector-curvature="0" /><path
             d="m 1086.89,495.484 v 50"
             style="fill:none;stroke:#000000;stroke-width:6;stroke-linecap:butt;stroke-linejoin:round;stroke-miterlimit:10;stroke-dasharray:none;stroke-opacity:1"
             id="path170"
             inkscape:connector-curvature="0" /><path
             d="m 829.348,495.484 v 50"
             style="fill:#000000;fill-opacity:1;fill-rule:nonzero;stroke:none"
             id="path172"
             inkscape:connector-curvature="0" /><path
             d="m 829.348,495.484 v 50"
             style="fill:none;stroke:#000000;stroke-width:6;stroke-linecap:butt;stroke-linejoin:round;stroke-miterlimit:10;stroke-dasharray:none;stroke-opacity:1"
             id="path174"
             inkscape:connector-curvature="0" /><g
             id="g176"
             transform="scale(10)"><text
               transform="matrix(1,0,0,-1,332.235,11.6891)"
               style="font-variant:normal;font-weight:normal;font-size:18px;font-family:Arial;-inkscape-font-specification:Arial;writing-mode:lr-tb;fill:#000000;fill-opacity:1;fill-rule:nonzero;stroke:none"
               id="text180"><tspan
                 x="0 10.994924 22.403114 33.416016 44.824207 54.202206 65.232666 76.640854 92.937355 103.93228 115.00648 126.03696 133.43736 147.68581 160.03464"
                 y="0"
                 sodipodi:role="line"
                 id="tspan178">ThousandYearsBP</tspan></text>
</g><path
             d="m 879.348,873.824 h -100"
             style="fill:#000000;fill-opacity:1;fill-rule:nonzero;stroke:none"
             id="path182"
             inkscape:connector-curvature="0" /><path
             d="m 879.348,873.824 h -100"
             style="fill:none;stroke:#000000;stroke-width:8;stroke-linecap:butt;stroke-linejoin:round;stroke-miterlimit:10;stroke-dasharray:none;stroke-opacity:1"
             id="path184"
             inkscape:connector-curvature="0" /><g
             id="g186"
             transform="scale(10)"><text
               transform="matrix(1,0,0,-1,28.466,81.6871)"
               style="font-variant:normal;font-weight:normal;font-size:15px;font-family:Arial;-inkscape-font-specification:Arial;writing-mode:lr-tb;fill:#000000;fill-opacity:1;fill-rule:nonzero;stroke:none"
               id="text190"><tspan
                 x="0 12.568358 22.111717 31.655075 36.423431"
                 y="0"
                 sodipodi:role="line"
                 id="tspan188">−10.0</tspan></text>
</g><path
             d="m 879.348,1315.5 h -100"
             style="fill:#000000;fill-opacity:1;fill-rule:nonzero;stroke:none"
             id="path192"
             inkscape:connector-curvature="0" /><path
             d="m 879.348,1315.5 h -100"
             style="fill:none;stroke:#000000;stroke-width:8;stroke-linecap:butt;stroke-linejoin:round;stroke-miterlimit:10;stroke-dasharray:none;stroke-opacity:1"
             id="path194"
             inkscape:connector-curvature="0" /><g
             id="g196"
             transform="scale(10)"><text
               transform="matrix(1,0,0,-1,38.0129,125.855)"
               style="font-variant:normal;font-weight:normal;font-size:15px;font-family:Arial;-inkscape-font-specification:Arial;writing-mode:lr-tb;fill:#000000;fill-opacity:1;fill-rule:nonzero;stroke:none"
               id="text200"><tspan
                 x="0 12.568358 22.111715 26.879683"
                 y="0"
                 sodipodi:role="line"
                 id="tspan198">−7.5</tspan></text>
</g><path
             d="m 879.348,1757.18 h -100"
             style="fill:#000000;fill-opacity:1;fill-rule:nonzero;stroke:none"
             id="path202"
             inkscape:connector-curvature="0" /><path
             d="m 879.348,1757.18 h -100"
             style="fill:none;stroke:#000000;stroke-width:8;stroke-linecap:butt;stroke-linejoin:round;stroke-miterlimit:10;stroke-dasharray:none;stroke-opacity:1"
             id="path204"
             inkscape:connector-curvature="0" /><g
             id="g206"
             transform="scale(10)"><text
               transform="matrix(1,0,0,-1,38.0129,170.022)"
               style="font-variant:normal;font-weight:normal;font-size:15px;font-family:Arial;-inkscape-font-specification:Arial;writing-mode:lr-tb;fill:#000000;fill-opacity:1;fill-rule:nonzero;stroke:none"
               id="text210"><tspan
                 x="0 12.568358 22.111715 26.879683"
                 y="0"
                 sodipodi:role="line"
                 id="tspan208">−5.0</tspan></text>
</g><path
             d="m 879.348,2198.85 h -100"
             style="fill:#000000;fill-opacity:1;fill-rule:nonzero;stroke:none"
             id="path212"
             inkscape:connector-curvature="0" /><path
             d="m 879.348,2198.85 h -100"
             style="fill:none;stroke:#000000;stroke-width:8;stroke-linecap:butt;stroke-linejoin:round;stroke-miterlimit:10;stroke-dasharray:none;stroke-opacity:1"
             id="path214"
             inkscape:connector-curvature="0" /><g
             id="g216"
             transform="scale(10)"><text
               transform="matrix(1,0,0,-1,38.0129,214.19)"
               style="font-variant:normal;font-weight:normal;font-size:15px;font-family:Arial;-inkscape-font-specification:Arial;writing-mode:lr-tb;fill:#000000;fill-opacity:1;fill-rule:nonzero;stroke:none"
               id="text220"><tspan
                 x="0 12.568358 22.111715 26.879683"
                 y="0"
                 sodipodi:role="line"
                 id="tspan218">−2.5</tspan></text>
</g><path
             d="m 879.348,2640.53 h -100"
             style="fill:#000000;fill-opacity:1;fill-rule:nonzero;stroke:none"
             id="path222"
             inkscape:connector-curvature="0" /><path
             d="m 879.348,2640.53 h -100"
             style="fill:none;stroke:#000000;stroke-width:8;stroke-linecap:butt;stroke-linejoin:round;stroke-miterlimit:10;stroke-dasharray:none;stroke-opacity:1"
             id="path224"
             inkscape:connector-curvature="0" /><g
             id="g226"
             transform="scale(10)"><text
               transform="matrix(1,0,0,-1,50.5754,258.357)"
               style="font-variant:normal;font-weight:normal;font-size:15px;font-family:Arial;-inkscape-font-specification:Arial;writing-mode:lr-tb;fill:#000000;fill-opacity:1;fill-rule:nonzero;stroke:none"
               id="text230"><tspan
                 x="0 9.5433569 14.311324"
                 y="0"
                 sodipodi:role="line"
                 id="tspan228">0.0</tspan></text>
</g><path
             d="m 879.348,3082.2 h -100"
             style="fill:#000000;fill-opacity:1;fill-rule:nonzero;stroke:none"
             id="path232"
             inkscape:connector-curvature="0" /><path
             d="m 879.348,3082.2 h -100"
             style="fill:none;stroke:#000000;stroke-width:8;stroke-linecap:butt;stroke-linejoin:round;stroke-miterlimit:10;stroke-dasharray:none;stroke-opacity:1"
             id="path234"
             inkscape:connector-curvature="0" /><g
             id="g236"
             transform="scale(10)"><text
               transform="matrix(1,0,0,-1,50.5754,302.525)"
               style="font-variant:normal;font-weight:normal;font-size:15px;font-family:Arial;-inkscape-font-specification:Arial;writing-mode:lr-tb;fill:#000000;fill-opacity:1;fill-rule:nonzero;stroke:none"
               id="text240"><tspan
                 x="0 9.5433569 14.311324"
                 y="0"
                 sodipodi:role="line"
                 id="tspan238">2.5</tspan></text>
</g><path
             d="m 879.348,3523.87 h -100"
             style="fill:#000000;fill-opacity:1;fill-rule:nonzero;stroke:none"
             id="path242"
             inkscape:connector-curvature="0" /><path
             d="m 879.348,3523.87 h -100"
             style="fill:none;stroke:#000000;stroke-width:8;stroke-linecap:butt;stroke-linejoin:round;stroke-miterlimit:10;stroke-dasharray:none;stroke-opacity:1"
             id="path244"
             inkscape:connector-curvature="0" /><g
             id="g246"
             transform="scale(10)"><text
               transform="matrix(1,0,0,-1,50.5754,346.692)"
               style="font-variant:normal;font-weight:normal;font-size:15px;font-family:Arial;-inkscape-font-specification:Arial;writing-mode:lr-tb;fill:#000000;fill-opacity:1;fill-rule:nonzero;stroke:none"
               id="text250"><tspan
                 x="0 9.5433569 14.311324"
                 y="0"
                 sodipodi:role="line"
                 id="tspan248">5.0</tspan></text>
</g><path
             d="m 879.348,3965.55 h -100"
             style="fill:#000000;fill-opacity:1;fill-rule:nonzero;stroke:none"
             id="path252"
             inkscape:connector-curvature="0" /><path
             d="m 879.348,3965.55 h -100"
             style="fill:none;stroke:#000000;stroke-width:8;stroke-linecap:butt;stroke-linejoin:round;stroke-miterlimit:10;stroke-dasharray:none;stroke-opacity:1"
             id="path254"
             inkscape:connector-curvature="0" /><g
             id="g256"
             transform="scale(10)"><text
               transform="matrix(1,0,0,-1,50.5754,390.86)"
               style="font-variant:normal;font-weight:normal;font-size:15px;font-family:Arial;-inkscape-font-specification:Arial;writing-mode:lr-tb;fill:#000000;fill-opacity:1;fill-rule:nonzero;stroke:none"
               id="text260"><tspan
                 x="0 9.5433569 14.311324"
                 y="0"
                 sodipodi:role="line"
                 id="tspan258">7.5</tspan></text>
</g><path
             d="m 854.348,542.57 h -50"
             style="fill:#000000;fill-opacity:1;fill-rule:nonzero;stroke:none"
             id="path262"
             inkscape:connector-curvature="0" /><path
             d="m 854.348,542.57 h -50"
             style="fill:none;stroke:#000000;stroke-width:6;stroke-linecap:butt;stroke-linejoin:round;stroke-miterlimit:10;stroke-dasharray:none;stroke-opacity:1"
             id="path264"
             inkscape:connector-curvature="0" /><path
             d="m 854.348,652.988 h -50"
             style="fill:#000000;fill-opacity:1;fill-rule:nonzero;stroke:none"
             id="path266"
             inkscape:connector-curvature="0" /><path
             d="m 854.348,652.988 h -50"
             style="fill:none;stroke:#000000;stroke-width:6;stroke-linecap:butt;stroke-linejoin:round;stroke-miterlimit:10;stroke-dasharray:none;stroke-opacity:1"
             id="path268"
             inkscape:connector-curvature="0" /><path
             d="m 854.348,763.406 h -50"
             style="fill:#000000;fill-opacity:1;fill-rule:nonzero;stroke:none"
             id="path270"
             inkscape:connector-curvature="0" /><path
             d="m 854.348,763.406 h -50"
             style="fill:none;stroke:#000000;stroke-width:6;stroke-linecap:butt;stroke-linejoin:round;stroke-miterlimit:10;stroke-dasharray:none;stroke-opacity:1"
             id="path272"
             inkscape:connector-curvature="0" /><path
             d="m 854.348,984.242 h -50"
             style="fill:#000000;fill-opacity:1;fill-rule:nonzero;stroke:none"
             id="path274"
             inkscape:connector-curvature="0" /><path
             d="m 854.348,984.242 h -50"
             style="fill:none;stroke:#000000;stroke-width:6;stroke-linecap:butt;stroke-linejoin:round;stroke-miterlimit:10;stroke-dasharray:none;stroke-opacity:1"
             id="path276"
             inkscape:connector-curvature="0" /><path
             d="m 854.348,1094.66 h -50"
             style="fill:#000000;fill-opacity:1;fill-rule:nonzero;stroke:none"
             id="path278"
             inkscape:connector-curvature="0" /><path
             d="m 854.348,1094.66 h -50"
             style="fill:none;stroke:#000000;stroke-width:6;stroke-linecap:butt;stroke-linejoin:round;stroke-miterlimit:10;stroke-dasharray:none;stroke-opacity:1"
             id="path280"
             inkscape:connector-curvature="0" /><path
             d="m 854.348,1205.08 h -50"
             style="fill:#000000;fill-opacity:1;fill-rule:nonzero;stroke:none"
             id="path282"
             inkscape:connector-curvature="0" /><path
             d="m 854.348,1205.08 h -50"
             style="fill:none;stroke:#000000;stroke-width:6;stroke-linecap:butt;stroke-linejoin:round;stroke-miterlimit:10;stroke-dasharray:none;stroke-opacity:1"
             id="path284"
             inkscape:connector-curvature="0" /><path
             d="m 854.348,1425.92 h -50"
             style="fill:#000000;fill-opacity:1;fill-rule:nonzero;stroke:none"
             id="path286"
             inkscape:connector-curvature="0" /><path
             d="m 854.348,1425.92 h -50"
             style="fill:none;stroke:#000000;stroke-width:6;stroke-linecap:butt;stroke-linejoin:round;stroke-miterlimit:10;stroke-dasharray:none;stroke-opacity:1"
             id="path288"
             inkscape:connector-curvature="0" /><path
             d="m 854.348,1536.34 h -50"
             style="fill:#000000;fill-opacity:1;fill-rule:nonzero;stroke:none"
             id="path290"
             inkscape:connector-curvature="0" /><path
             d="m 854.348,1536.34 h -50"
             style="fill:none;stroke:#000000;stroke-width:6;stroke-linecap:butt;stroke-linejoin:round;stroke-miterlimit:10;stroke-dasharray:none;stroke-opacity:1"
             id="path292"
             inkscape:connector-curvature="0" /><path
             d="m 854.348,1646.76 h -50"
             style="fill:#000000;fill-opacity:1;fill-rule:nonzero;stroke:none"
             id="path294"
             inkscape:connector-curvature="0" /><path
             d="m 854.348,1646.76 h -50"
             style="fill:none;stroke:#000000;stroke-width:6;stroke-linecap:butt;stroke-linejoin:round;stroke-miterlimit:10;stroke-dasharray:none;stroke-opacity:1"
             id="path296"
             inkscape:connector-curvature="0" /><path
             d="m 854.348,1867.59 h -50"
             style="fill:#000000;fill-opacity:1;fill-rule:nonzero;stroke:none"
             id="path298"
             inkscape:connector-curvature="0" /><path
             d="m 854.348,1867.59 h -50"
             style="fill:none;stroke:#000000;stroke-width:6;stroke-linecap:butt;stroke-linejoin:round;stroke-miterlimit:10;stroke-dasharray:none;stroke-opacity:1"
             id="path300"
             inkscape:connector-curvature="0" /><path
             d="m 854.348,1978.01 h -50"
             style="fill:#000000;fill-opacity:1;fill-rule:nonzero;stroke:none"
             id="path302"
             inkscape:connector-curvature="0" /><path
             d="m 854.348,1978.01 h -50"
             style="fill:none;stroke:#000000;stroke-width:6;stroke-linecap:butt;stroke-linejoin:round;stroke-miterlimit:10;stroke-dasharray:none;stroke-opacity:1"
             id="path304"
             inkscape:connector-curvature="0" /><path
             d="m 854.348,2088.43 h -50"
             style="fill:#000000;fill-opacity:1;fill-rule:nonzero;stroke:none"
             id="path306"
             inkscape:connector-curvature="0" /><path
             d="m 854.348,2088.43 h -50"
             style="fill:none;stroke:#000000;stroke-width:6;stroke-linecap:butt;stroke-linejoin:round;stroke-miterlimit:10;stroke-dasharray:none;stroke-opacity:1"
             id="path308"
             inkscape:connector-curvature="0" /><path
             d="m 854.348,2309.27 h -50"
             style="fill:#000000;fill-opacity:1;fill-rule:nonzero;stroke:none"
             id="path310"
             inkscape:connector-curvature="0" /><path
             d="m 854.348,2309.27 h -50"
             style="fill:none;stroke:#000000;stroke-width:6;stroke-linecap:butt;stroke-linejoin:round;stroke-miterlimit:10;stroke-dasharray:none;stroke-opacity:1"
             id="path312"
             inkscape:connector-curvature="0" /><path
             d="m 854.348,2419.69 h -50"
             style="fill:#000000;fill-opacity:1;fill-rule:nonzero;stroke:none"
             id="path314"
             inkscape:connector-curvature="0" /><path
             d="m 854.348,2419.69 h -50"
             style="fill:none;stroke:#000000;stroke-width:6;stroke-linecap:butt;stroke-linejoin:round;stroke-miterlimit:10;stroke-dasharray:none;stroke-opacity:1"
             id="path316"
             inkscape:connector-curvature="0" /><path
             d="m 854.348,2530.11 h -50"
             style="fill:#000000;fill-opacity:1;fill-rule:nonzero;stroke:none"
             id="path318"
             inkscape:connector-curvature="0" /><path
             d="m 854.348,2530.11 h -50"
             style="fill:none;stroke:#000000;stroke-width:6;stroke-linecap:butt;stroke-linejoin:round;stroke-miterlimit:10;stroke-dasharray:none;stroke-opacity:1"
             id="path320"
             inkscape:connector-curvature="0" /><path
             d="m 854.348,2750.94 h -50"
             style="fill:#000000;fill-opacity:1;fill-rule:nonzero;stroke:none"
             id="path322"
             inkscape:connector-curvature="0" /><path
             d="m 854.348,2750.94 h -50"
             style="fill:none;stroke:#000000;stroke-width:6;stroke-linecap:butt;stroke-linejoin:round;stroke-miterlimit:10;stroke-dasharray:none;stroke-opacity:1"
             id="path324"
             inkscape:connector-curvature="0" /><path
             d="m 854.348,2861.36 h -50"
             style="fill:#000000;fill-opacity:1;fill-rule:nonzero;stroke:none"
             id="path326"
             inkscape:connector-curvature="0" /><path
             d="m 854.348,2861.36 h -50"
             style="fill:none;stroke:#000000;stroke-width:6;stroke-linecap:butt;stroke-linejoin:round;stroke-miterlimit:10;stroke-dasharray:none;stroke-opacity:1"
             id="path328"
             inkscape:connector-curvature="0" /><path
             d="m 854.348,2971.78 h -50"
             style="fill:#000000;fill-opacity:1;fill-rule:nonzero;stroke:none"
             id="path330"
             inkscape:connector-curvature="0" /><path
             d="m 854.348,2971.78 h -50"
             style="fill:none;stroke:#000000;stroke-width:6;stroke-linecap:butt;stroke-linejoin:round;stroke-miterlimit:10;stroke-dasharray:none;stroke-opacity:1"
             id="path332"
             inkscape:connector-curvature="0" /><path
             d="m 854.348,3192.62 h -50"
             style="fill:#000000;fill-opacity:1;fill-rule:nonzero;stroke:none"
             id="path334"
             inkscape:connector-curvature="0" /><path
             d="m 854.348,3192.62 h -50"
             style="fill:none;stroke:#000000;stroke-width:6;stroke-linecap:butt;stroke-linejoin:round;stroke-miterlimit:10;stroke-dasharray:none;stroke-opacity:1"
             id="path336"
             inkscape:connector-curvature="0" /><path
             d="m 854.348,3303.04 h -50"
             style="fill:#000000;fill-opacity:1;fill-rule:nonzero;stroke:none"
             id="path338"
             inkscape:connector-curvature="0" /><path
             d="m 854.348,3303.04 h -50"
             style="fill:none;stroke:#000000;stroke-width:6;stroke-linecap:butt;stroke-linejoin:round;stroke-miterlimit:10;stroke-dasharray:none;stroke-opacity:1"
             id="path340"
             inkscape:connector-curvature="0" /><path
             d="m 854.348,3413.46 h -50"
             style="fill:#000000;fill-opacity:1;fill-rule:nonzero;stroke:none"
             id="path342"
             inkscape:connector-curvature="0" /><path
             d="m 854.348,3413.46 h -50"
             style="fill:none;stroke:#000000;stroke-width:6;stroke-linecap:butt;stroke-linejoin:round;stroke-miterlimit:10;stroke-dasharray:none;stroke-opacity:1"
             id="path344"
             inkscape:connector-curvature="0" /><path
             d="m 854.348,3634.29 h -50"
             style="fill:#000000;fill-opacity:1;fill-rule:nonzero;stroke:none"
             id="path346"
             inkscape:connector-curvature="0" /><path
             d="m 854.348,3634.29 h -50"
             style="fill:none;stroke:#000000;stroke-width:6;stroke-linecap:butt;stroke-linejoin:round;stroke-miterlimit:10;stroke-dasharray:none;stroke-opacity:1"
             id="path348"
             inkscape:connector-curvature="0" /><path
             d="m 854.348,3744.71 h -50"
             style="fill:#000000;fill-opacity:1;fill-rule:nonzero;stroke:none"
             id="path350"
             inkscape:connector-curvature="0" /><path
             d="m 854.348,3744.71 h -50"
             style="fill:none;stroke:#000000;stroke-width:6;stroke-linecap:butt;stroke-linejoin:round;stroke-miterlimit:10;stroke-dasharray:none;stroke-opacity:1"
             id="path352"
             inkscape:connector-curvature="0" /><path
             d="m 854.348,3855.13 h -50"
             style="fill:#000000;fill-opacity:1;fill-rule:nonzero;stroke:none"
             id="path354"
             inkscape:connector-curvature="0" /><path
             d="m 854.348,3855.13 h -50"
             style="fill:none;stroke:#000000;stroke-width:6;stroke-linecap:butt;stroke-linejoin:round;stroke-miterlimit:10;stroke-dasharray:none;stroke-opacity:1"
             id="path356"
             inkscape:connector-curvature="0" /><g
             id="g358"
             transform="scale(10)"><text
               transform="matrix(0,1,1,0,20.1379,113.218)"
               style="font-variant:normal;font-weight:normal;font-size:18px;font-family:Arial;-inkscape-font-specification:Arial;writing-mode:lr-tb;fill:#000000;fill-opacity:1;fill-rule:nonzero;stroke:none"
               id="text362"><tspan
                 x="0 10.995315 22.069538 39.603516 51.029293 62.103516 69.503906 80.534378 87.591797 98.999985 106.40038 122.3453 133.37576 144.78395 155.79646 173.33083 184.3609 189.36206"
                 y="0"
                 sodipodi:role="line"
                 id="tspan360">Temperatureanomaly</tspan></text>
<text
               transform="matrix(0,1,1,0,20.1379,318.103)"
               style="font-variant:normal;font-weight:normal;font-size:18px;font-family:Arial;-inkscape-font-specification:Arial;writing-mode:lr-tb;fill:#000000;fill-opacity:1;fill-rule:nonzero;stroke:none"
               id="text366"><tspan
                 x="0"
                 y="0"
                 id="tspan364">[</tspan></text>
<text
               transform="matrix(0,1,1,0,20.1379,325.12527)"
               style="font-variant:normal;font-weight:normal;font-size:18px;font-family:Arial;-inkscape-font-specification:Arial;writing-mode:lr-tb;fill:#000000;fill-opacity:1;fill-rule:nonzero;stroke:none"
               id="text370"><tspan
                 x="0"
                 y="0"
                 id="tspan368">K</tspan></text>
<text
               transform="matrix(0,1,1,0,20.1379,336.92917)"
               style="font-variant:normal;font-weight:normal;font-size:18px;font-family:Arial;-inkscape-font-specification:Arial;writing-mode:lr-tb;fill:#000000;fill-opacity:1;fill-rule:nonzero;stroke:none"
               id="text374"><tspan
                 x="0"
                 y="0"
                 id="tspan372">]</tspan></text>
</g></g></g><g
         id="g376"><g
           id="g378"
           clip-path="url(#clipPath382)"><path
             d="m 7521.13,2841.57 -0.93,-92.57 -0.51,-125.79 -1.01,10.95 -0.54,-40.98 -0.52,11.66 -1.08,13.43 -1.06,43.1 -1.63,-148.05 -0.54,4.95 -2.27,186.21 -2.37,-168.19 -0.61,-9.54 -1.18,42.05 -1.89,-57.6 -0.63,4.24 -0.58,-5.3 -0.6,31.1 -0.62,-29.33 -1.22,81.27 -1.25,-51.24 -0.65,75.97 -1.33,-124.02 -0.66,7.07 -2.67,218.36 -0.67,-18.02 -0.67,-73.14 -0.65,26.85 -0.66,61.84 -1.4,-43.11 -0.75,7.06 -2.19,-169.25 -1.52,-27.55 -2.07,75.61 -3.25,229.32 -5.11,-245.22 -0.75,23.32 -0.74,-19.08 -1.48,30.39 -0.7,-14.14 -2.18,79.86 -0.74,-10.95 -0.75,5.3 -0.75,20.49 -0.74,-54.06 -0.73,42.05 -0.73,-5.3 -1.4,23.67 -0.69,55.47 -0.69,-23.67 -0.74,12.72 -0.74,32.51 -2.23,-83.39 -0.76,8.48 -2.21,39.57 -0.72,-0.35 -0.72,65.37 -0.72,-12.02 -2.34,-56.88 -1.61,-126.85 -0.8,42.75 -0.8,-32.15 -0.79,5.65 -1.59,12.01 -0.82,-4.94 -0.8,0.35 -1.65,40.28 -1.71,-92.57 -0.87,58.3 -0.83,-45.23 -0.82,6.36 -1.73,54.06 -0.89,-45.58 -0.88,39.93 -0.85,-11.31 -0.87,7.07 -0.86,-21.2 -0.92,28.62 -2.61,-78.44 -0.84,12.36 -2.53,126.5 -0.89,-25.79 -0.9,43.81 -2.7,-138.16 -0.94,12.73 -0.9,-38.87 -1.76,68.9 -2.69,38.16 -1.88,-80.56 -0.95,9.19 -0.88,-31.81 -4.48,145.58 -3.1,-192.57 -0.97,-16.96 -0.98,-39.22 -1,2.82 -2.94,50.89 -0.96,10.95 -1.83,86.92 -2.78,91.87 -0.93,-32.86 -0.9,28.97 -0.89,-2.47 -0.89,7.07 -0.97,-24.74 -0.96,7.42 -0.94,-20.14 -0.92,-61.13 -5.27,200.7 -1.79,19.08 -1.87,-53.71 -1.89,-101.4 -1.94,-42.76 -0.99,-9.54 -0.98,34.98 -1.92,-44.87 -2.8,71.02 -1.87,92.93 -3.09,-156.18 -1.04,-11.66 -2.08,-84.45 -2.02,68.55 -1,-59.01 -2.02,90.81 -1.03,-67.49 -2.08,53 -1.02,-40.28 -1.01,18.73 -1.97,66.78 -0.98,-26.85 -1.9,74.9 -2.02,-20.14 -1,13.08 -0.93,-15.19 -3.77,114.48 -0.93,-68.55 -1.88,59.36 -1,-77.38 -1,1.41 -1,38.87 -2.04,-108.12 -1.01,22.97 -3.04,-47 -2.04,36.04 -3,-29.33 -1.97,77.39 -1,-55.12 -1.99,101.05 -2.02,-91.87 -1.01,43.11 -1,-13.78 -0.99,-84.45 -1.94,105.65 -0.97,-9.19 -1.97,68.9 -2.1,-106.35 -1.01,17.31 -0.99,-46.64 -3.04,22.62 -0.97,36.74 -0.97,-15.19 -2.02,45.93 -1.05,-26.5 -1.03,-75.26 -1.02,14.13 -1.03,-21.9 -1.01,34.27 -1.01,-5.65 -1.02,27.91 -1.04,-6 -1.01,-19.09 -1.02,23.68 -1.01,-7.07 -2.11,-46.64 -1.05,0.35 -1.07,-74.2 -1.05,15.55 -1.99,85.15 -0.98,7.43 -1.95,64.3 -1,10.96 -4.08,-77.74 -2.08,-37.81 -4,47.7 -1.92,71.73 -2.11,-26.85 -2.04,-98.23 -2.98,54.42 -1.99,49.82 -1.01,-5.3 -3.36,-166.43 -1.09,-3.18 -1.07,-65.01 -1.16,-1.77 -1.14,9.19 -4.96,210.94 -1.01,-3.53 -2.07,-77.03 -1.01,16.61 -1.02,-0.71 -0.94,52.29 -0.96,-16.96 -1.93,81.98 -0.99,-7.42 -0.95,-38.51 -0.95,45.58 -0.95,-20.85 -1.07,-54.77 -1.04,3.18 -1.09,-35.33 -2.14,-103.53 -2.99,76.67 -2.05,45.94 -1.04,1.41 -1.03,-53 -0.99,42.4 -1.01,-4.59 -1.01,-20.14 -1.02,-42.4 -1.02,54.76 -2.12,-62.89 -2.05,45.94 -2.13,-77.74 -1.07,30.03 -2.17,-78.08 -1,29.32 -1.95,91.17 -2.22,-34.99 -1.03,45.23 -2.04,-84.8 -1.13,37.81 -4.28,-131.09 -2.05,134.62 -1.03,-2.12 -1.04,1.06 -1.11,24.38 -3.14,-120.49 -2.86,193.28 -1.04,12.01 -1.04,-7.42 -2.07,-78.44 -2.1,-70.31 -1.09,-4.95 -1.07,20.14 -2.12,-52.65 -1.08,37.1 -1.09,-34.27 -2.39,-90.1 -1.11,8.12 -1.09,-50.52 -1.11,12.36 -4.06,187.62 -1.12,-19.07 -1.1,13.78 -2.27,-141.69 -1.09,20.14 -1.05,20.14 -1.06,-25.8 -4.98,184.8 -0.98,62.19 -3.16,-122.61 -0.99,8.83 -1.99,-40.28 -1.02,20.14 -2.02,89.75 -1.02,-86.92 -1.08,29.68 -1.09,-11.66 -2.02,-109.18 -2.03,97.87 -2.1,23.32 -5.6,-207.41 -1.11,9.9 -2.13,49.11 -1.18,-41.34 -1.17,19.43 -2.27,-62.89 -1.08,-10.96 -3.23,115.9 -1.1,1.77 -1.1,16.6 -2.26,-69.6 -2.18,-21.2 -1.06,17.66 -2.07,89.75 -1.06,-31.8 -2.09,62.9 -1.02,-3.89 -1.01,-24.38 -1.01,99.29 -1,-16.96 -1.04,-53.36 -1.04,3.89 -1.06,-2.12 -1.07,-55.48 -1.05,13.43 -1.02,-5.65 -1.03,9.18 -2.22,-16.6 -1,-3.18 -0.99,38.87 -1.01,-16.26 -2.02,67.14 -0.98,-7.07 -0.99,8.48 -1,28.26 -1.01,-22.25 -2.01,13.42 -2,-57.59 -2.08,41.69 -2.15,-103.53 -1.01,36.4 -0.99,-32.86 -0.92,21.2 -1.93,158.65 -2,-38.16 -0.97,-5.3 -0.96,-28.98 -0.97,2.12 -0.96,14.84 -0.94,50.53 -0.93,-10.25 -1.81,47 -0.89,37.1 -0.99,-12.01 -3,-131.8 -1.88,-25.09 -1.86,107.42 -0.96,-1.77 -0.96,-4.24 -3.57,67.84 -3.5,60.78 -2.03,-105.65 -0.97,-4.6 -0.97,-102.46 -0.94,2.12 -1.82,73.14 -0.97,-15.9 -0.97,21.2 -0.95,-11.66 -0.94,8.83 -0.93,-31.8 -1.79,77.73 -0.92,-19.43 -0.94,22.97 -1.77,-23.68 -1.75,60.07 -0.92,-10.95 -1.83,37.81 -2.82,-157.59 -0.95,38.16 -0.91,-15.9 -0.9,1.76 -0.94,42.41 -1.93,-25.8 -2.93,-83.03 -1.9,9.89 -4.15,278.08 -2.89,-141.34 -0.96,-30.39 -0.97,-97.52 -0.92,25.45 -0.93,-5.31 -1.85,53.71 -0.95,-7.07 -1.99,-46.28 -0.96,-64.31 -1.88,36.75 -1.83,64.66 -2.92,-33.92 -0.92,1.06 -1.97,-31.8 -1.91,12.36 -0.91,-19.43 -1.87,105.65 -3.94,-131.45 -1.03,-54.41 -0.96,18.37 -3.65,191.87 -3.75,-147.7 -1.79,171.02 -0.98,-40.99 -1.98,-38.87 -1.91,-125.08 -3.5,231.09 -0.95,-12.73 -4.01,-218.71 -4.7,108.47 -0.98,-38.87 -0.98,19.44 -0.96,-31.45 -0.96,39.93 -6.5,-277.72 -1.1,22.61 -2.36,-52.3 -2.17,10.25 -2.31,-12.72 -1.19,2.47 -1.21,-43.1 -2.59,-124.38 -1.26,1.77 -1.24,-43.81 -1.16,9.89 -1.17,81.97 -1.21,-20.49 -1.24,26.14 -1.35,-14.83 -4.01,-156.89 -1.33,-33.21 -2.55,62.54 -1.35,-22.97 -1.4,37.1 -4.48,-196.1 -1.46,-18.02 -1.43,-45.58 -2.78,77.03 -1.39,34.62 -3.01,-35.69 -1.43,-7.77 -1.38,-13.78 -4.24,78.09 -1.48,-33.21 -1.39,5.65 -1.38,-10.25 -2.8,20.14 -2.92,-8.83 -1.41,-14.84 -4.03,64.31 -2.64,63.6 -5.77,-111.66 -2.87,-60.77 -1.39,10.95 -2.61,111.3 -1.38,21.56 -1.45,3.18 -1.48,-35.69 -2.98,-101.41 -1.42,-10.6 -1.43,1.77 -1.44,19.43 -1.34,70.67 -1.34,-1.41 -1.34,36.39 -1.39,6.36 -1.45,-8.83 -1.35,-41.34 -5.05,187.62 -1.31,8.84 -1.39,-19.79 -2.63,-80.92 -2.49,53.36 -2.6,33.92 -2.19,107.06 -3.52,113.78 -5.2,-239.57 -1.27,-7.42 -2.76,-101.05 -1.36,62.54 -1.39,-28.63 -4.45,-124.02 -2.88,-39.22 -1.45,-8.48 -2.7,95.4 -1.37,-2.47 -2.74,64.66 -1.45,-22.26 -1.5,-52.29 -1.3,70.31 -4.31,-100.35 -1.41,51.94 -1.42,-66.07 -1.42,1.41 -2.92,37.81 -9.52,-221.19 -1.6,0.71 -3.05,44.87 -1.58,5.66 -1.59,-9.55 -1.59,18.03 -1.65,-57.25 -1.59,10.96 -1.54,-1.42 -1.58,26.86 -1.57,-14.84 -1.58,37.1 -4.94,-77.03 -1.65,7.77 -1.67,-47.35 -5.14,-25.08 -1.79,-53.36 -5.16,-9.54 -1.69,13.78 -1.77,24.03 -3.59,-40.63 -1.72,-0.71 -3.6,-44.52 -1.81,23.32 -1.86,-14.84 -1.96,-71.73 -1.93,-10.25 -3.78,-37.09 -1.92,1.41 -8.14,-96.47 -2.1,-49.82 -2.17,-6 -2.05,-13.07 -2.03,14.48 -2.03,-9.54 -1.99,30.04 -4.16,24.02 -2.2,-55.47 -2.18,-4.24 -2.18,-36.04 -2.19,-15.9 -2.18,-34.98 -2.26,10.24 -4.71,-74.55 -2.36,-12.72 -2.39,-46.289 -4.38,53.709 -2.35,-9.54 -4.55,49.46 -4.77,-79.848 -2.39,3.531 -4.64,-24.379 -4.59,43.816 -2.35,6.71 -4.71,-10.95 -2.39,-20.142 -2.37,-7.774 -2.56,-31.8 -2.23,26.148 -2.29,3.531 -2.28,33.567 -2.38,-18.371 -2.38,40.281 -2.38,-33.215 -2.36,-3.535 -2.34,-16.254 -2.35,8.129 -2.37,13.074 -2.42,-18.023 -2.36,0.707 -2.31,20.496 -4.95,-63.25 -2.28,56.535 -2.38,-7.066 -2.35,-31.801 -2.11,92.573 -2.37,12.02 -4.78,-28.62 -2.39,6.35 -2.44,-68.542 -2.47,-2.473 -2.51,-45.23 -2.47,20.848 -2.52,-36.395 -2.48,-6.359 -2.34,24.027 -4.55,77.383 -2.42,24.031 -2.56,-17.67 -4.91,-50.529 -2.37,-18.02 -2.36,1.766 -2.35,60.773 -2.42,0.71 -2.41,6.36 -2.43,-17.316 -2.48,-8.129 -2.5,-35.687 -2.54,-13.778 -2.35,10.598 -2.31,24.735 -7.31,40.277 -2.48,-25.438 -2.35,-7.066 -2.41,-1.766 -2.43,2.828 -4.9,15.192 -2.54,-39.219 -2.44,3.887 -2.42,-3.887 -2.34,25.793 -2.39,11.66 -2.53,4.239 -2.55,-27.915 -4.66,16.61 -2.29,40.282 -2.46,-2.83 -4.91,22.26 -2.48,-37.1 -2.57,-77.733 -2.49,18.726 -2.37,26.5 -2.31,6.36 -4.72,66.077 -2.4,15.19 -4.98,-48.4 -2.56,-47.707 -5.11,-38.512 -2.35,27.91 -2.61,-20.843 -2.58,-3.18 -2.27,57.238 -2.4,18.724 -2.44,-21.197 -2.38,45.937 -2.44,24.38 -2.52,-55.121 -2.48,4.941 -7.55,-56.176 -2.51,18.727 -2.54,-25.793 -4.91,24.027 -2.34,42.045 -2.31,19.44 -2.31,53 -2.37,19.78 -2.42,-2.82 -2.42,-12.73 -5.13,-89.742 -2.42,1.414 -2.45,-3.18 -2.36,3.532 -2.38,48.406 -7.18,33.57 -5.02,-38.16 -5.33,-93.637 -2.57,-23.675 -2.58,-8.125 -2.77,-43.11 -7.55,64.664 -2.46,18.371 -2.58,28.977 -2.54,12.367 -2.67,-23.676 -2.68,-37.101 -4.71,63.25 -2.63,-20.141 -2.72,-4.945 -2.7,1.41 -2.66,-69.961 -2.66,-31.801 -5.22,25.797 -2.56,23.672 -2.64,4.594 -2.67,-2.121 -2.64,-10.246 -2.56,17.312 -2.57,1.414 -5.54,-32.152 -2.74,-17.317 -2.65,-6.711 -2.66,-18.375 -2.66,13.075 -5.22,56.179 -2.6,8.481 -2.7,-11.305 -2.71,-6.363 -2.67,4.949 -2.73,-32.859 -2.55,13.07 -2.62,20.496 -2.72,-6.359 -5.21,41.34 -2.7,-36.395 -2.57,15.547 -2.81,-7.067 -2.71,-34.628 -2.52,29.328 -2.7,0.707 -2.6,-6.008 -2.64,28.621 h -2.73 l -2.78,-41.34 -2.73,-6.008 -2.58,10.246 -2.62,3.887 -2.69,8.481 -2.73,2.121 -2.69,18.375 -2.69,-24.735 -5.38,-15.195 -5.06,60.422 -4.77,82.333 -2.29,106.7 -2.48,-1.06 -2.53,-8.48 -2.52,-14.49 -2.8,-59 -2.58,-78.796 -4.6,95.756 -2.44,2.83 -2.53,55.47 -2.59,-9.18 -2.45,-18.38 -8.06,-128.617 -2.61,8.836 -5.42,-76.324 -2.65,15.902 -2.49,53.355 -2.52,9.188 -2.38,43.11 -2.35,73.84 -2.45,25.8 -2.47,3.53 -2.49,10.6 -2.55,-23.67 -2.62,-57.25 -7.75,-50.52 -4.99,38.86 -2.46,30.39 -2.47,6.72 -2.43,35.68 -2.39,8.84 -9.41,83.74 -2.41,6.01 -5.13,-94.7 -2.48,6.36 -4.9,-45.58 -4.8,75.97 -2.44,2.12 -2.58,-19.44 -10.92,-196.453 -2.6,17.668 -2.76,-7.422 -5.31,13.426 -2.57,54.421 -2.69,-54.421 -2.61,50.171 -2.62,6.72 h -2.65 l -2.67,-31.09 -2.66,22.96 -2.61,-9.54 -2.6,6.36 -7.73,37.45 -2.39,46.29 -2.53,6.72 -2.58,3.53 -2.52,12.37 -2.76,-22.62 -2.85,-83.38 -5.49,-45.941 -2.85,-53.707 -2.75,3.179 -2.65,36.043 -2.65,7.774 -2.68,20.142 -2.75,6 -2.77,17.67 -2.84,-51.234 -2.66,-4.238 -4.95,104.942 -2.57,1.41 -4.84,140.63 -2.4,-21.9 -2.26,49.46 -2.5,16.96 -2.56,-4.94 -2.54,-43.82 -2.57,-24.38 -2.52,-45.93 -2.49,0.7 -2.5,30.39 -2.53,-25.08 -2.51,30.38 -2.52,3.89 -2.69,-27.56 -2.81,-70.32 -2.8,-15.54 -5.64,-111.308 -2.74,-2.824 -2.65,41.691 -2.69,7.421 -2.63,20.14 -4.98,102.82 -2.44,23.32 -2.41,60.78 -4.86,38.87 -2.38,19.43 -5.01,-31.8 -5.07,-27.91 -2.48,-22.62 -2.52,20.49 -2.63,-44.51 -2.6,13.07 -2.66,-22.26 -5.64,-113.78 -2.84,-7.42 -2.85,-50.174 -2.85,-26.5 -2.75,13.075 -2.62,35.329 -5.47,33.92 -2.85,-2.12 -2.73,2.83 -2.56,12.01 -2.52,38.52 -2.61,14.84 -2.39,77.38 -5,41.7 -2.47,12.36 -4.94,3.89 -2.43,33.21 -5.02,-34.62 -2.44,27.91 -2.34,11.31 -2.43,-10.25 -2.59,-1.41 -2.44,11.3 -2.36,21.2 -4.95,-34.63 -2.56,6.01 -2.47,-12.01 -2.42,9.89 -2.56,-35.33 -2.63,-17.31 -4.96,31.09 -2.49,-38.16 -2.68,-5.66 -2.58,17.32 -2.81,-50.53 -2.53,-12.72 -2.53,-4.59 -2.55,21.2 -5.31,10.6 -5.36,-43.82 -2.6,-8.48 -2.52,7.42 -2.51,43.46 -2.56,21.21 -5.12,21.55 -2.54,2.47 -2.59,-21.2 -2.58,0.36 -2.57,8.83 -2.68,-21.56 -2.72,-37.8 -5.22,-6.72 -2.38,33.57 -2.28,71.73 -5.06,56.18 -4.85,23.32 -2.38,-40.99 -2.43,37.81 -2.41,-1.06 -2.42,37.1 -2.5,-53.71 -2.35,33.22 -2.35,-12.02 -2.2,66.08 -2.18,23.32 -4.19,126.49 -4.2,56.19 -2.02,53.7 -2.11,3.89 -2.39,-71.73 -2.42,-28.97 -4.63,-139.92 -2.17,23.32 -2.3,1.41 -2.4,-0.71 -4.68,13.43 -2.28,-62.9 -4.56,53.71 -2.33,21.2 -2.29,-27.91 -2.24,31.45 -2.24,-4.24 -4.57,15.54 -2.39,-19.79 -2.45,-40.27 -2.22,9.18 -2.31,-19.43 -2.28,8.13 -2.34,25.44 -2.4,-8.84 -2.36,-25.44 -2.2,33.22 -5.12,-96.47 -2.61,-14.84 -2.6,-41.69 -2.6,-71.38 -2.61,-5.3 -2.6,-8.47 -2.64,6 -8.51,-109.53 -2.7,-7.42 -2.83,-42.76 -7.86,115.54 -2.57,2.12 -2.52,72.09 -2.57,-14.84 -2.56,26.14 -2.58,5.3 -2.69,-18.02 -2.73,-46.99 -2.63,-5.66 -2.52,19.44 -2.47,1.77 -2.51,48.4 -2.7,-0.35 -2.79,-16.96 -8.36,-150.17 -2.73,4.24 -2.73,26.5 -2.81,-23.68 -2.72,19.44 -5.18,51.23 -5.21,48.76 -2.49,29.68 -2.37,55.48 -2.48,7.77 -2.52,-0.35 -2.59,26.5 -2.75,-44.52 -2.38,-7.42 -2.77,-45.23 -2.61,-7.42 -2.77,-31.8 -2.64,21.91 -2.69,-55.12 -2.84,-4.95 -2.73,-20.14 -2.82,-2.47 -5.65,-46.64 -2.88,-3.19 -2.86,-24.02 -2.76,20.49 -2.75,-5.3 -5.29,74.56 -5.25,48.05 -2.54,47.35 -5.29,-18.73 -2.51,43.82 -2.72,-34.63 -2.58,-2.12 -2.63,-6.01 -2.51,37.1 -2.38,13.08 -2.42,51.23 -4.86,46.99 -2.39,27.92 -2.4,-2.83 -2.48,-15.54 -2.44,6.71 -2.63,-29.33 -2.61,-46.29 -2.34,12.72 -2.42,20.5 -2.52,-18.73 -2.61,4.59 -2.63,-4.59 -5.11,-54.42 -2.56,-15.89 -2.59,24.02 -2.7,-12.72 -2.75,-46.28 -2.65,-15.91 -2.64,-4.59 -2.76,-53.71 -2.78,-8.48 -2.76,13.08 -5.67,-57.6 -2.78,10.6 -2.67,21.91 -5.15,86.92 -2.74,1.42 -2.73,4.94 -2.72,-14.84 -2.64,-30.38 -2.6,2.12 -5.26,46.28 -2.62,24.03 -2.59,11.66 -2.59,-2.83 -2.57,6.01 -4.97,45.58 -4.85,55.12 -2.45,26.5 -2.43,8.83 -2.36,18.73 -2.39,-6 -2.38,18.72 -4.75,1.77 -2.28,46.64 -2.34,-9.19 -4.67,21.2 -2.18,51.59 -2.18,-26.14 -2.2,60.06 -2.19,-3.18 -1.99,86.22 -2.11,10.6 -2.25,-0.71 -2.31,-53.35 -2.24,16.96 -4.42,-78.8 -2.27,-9.89 -2.27,26.14 -4.45,-29.67 -2.18,23.32 -3.97,106.35 -1.96,75.97 -2.13,2.12 -2.12,7.42 -2.13,-7.07 -11.32,-214.12 -2.3,-7.07 -2.3,-42.05 -2.33,4.95 -2.31,11.31 -2.38,3.88 -2.41,-32.5 -2.31,7.06 h -2.25 l -2.22,42.41 -2.28,2.82 -2.4,5.66 -2.45,-32.16 -2.39,-5.3 -2.45,-70.67 -2.41,-2.12 -2.47,-12.72 -2.44,-1.76 -2.35,12.36 -2.36,24.74 -2.47,-14.14 -2.53,-23.32 -2.46,19.44 -2.56,-35.69 -2.83,-94.34 -2.74,-27.92 -2.73,-12.72 -2.78,-67.13 -2.68,-24.38 -2.61,57.59 -2.6,-2.47 -2.49,43.1 -4.87,108.13 h -2.53 l -2.48,34.98 -5.43,-93.28 -2.48,-4.6 -5.51,-77.03 -2.5,50.53 -10.09,77.38 -2.64,-18.02 -5.31,-67.13 -2.67,-16.96 -2.68,1.06 -2.74,-28.27 -2.63,28.62 -2.65,-24.02 -7.57,92.92 -2.52,-3.18 -2.45,65.73 -2.55,-19.09 -2.57,-32.5 -2.5,43.81 -2.57,-7.77 -2.64,-49.12 -2.67,-16.96 -2.54,21.56 -2.44,-12.02 -4.84,60.07 -2.5,40.99 -2.61,-16.61 -2.6,-30.38 -2.5,-3.54 -2.45,-19.43 -2.33,48.76 -2.47,12.72 -2.61,2.47 -2.6,-37.1 -2.48,28.27 -2.48,-48.76 -2.52,-10.96 -5.06,51.24 -2.55,-39.58 -2.46,11.66 -2.45,27.21 -2.66,-44.17 -2.6,4.25 -2.58,-0.36 -2.55,-18.73 -2.49,-8.48 -4.96,50.53 -2.5,6.01 -4.79,40.28 -2.38,36.75 -2.46,-22.62 -2.49,22.62 -2.47,-26.15 -2.39,10.95 -2.37,-23.32 -2.22,67.84 -2.42,-8.48 -2.34,38.52 -2.21,4.94 -2.18,71.38 -2.21,-30.74 -2.19,55.47 -2.34,1.06 -9.74,-161.83 -2.37,-18.37 -4.62,65.72 -2.42,-6.36 -4.65,26.5 -2.22,27.92 -2.34,-37.46 -2.25,32.86 -2.17,48.06 -2.23,8.48 -2.32,-31.8 -2.42,3.53 -2.45,-25.09 -2.27,-60.77 -2.13,65.72 -4.41,30.74 -4.3,93.99 -2.11,-27.56 -2.1,20.14 -2.09,43.46 -2.06,5.65 -2.1,14.84 -2.18,-9.18 -6.97,-124.03 -4.97,-133.56 -2.42,-16.96 -2.22,26.85 -2.29,-6 -2.28,58.3 -4.7,26.85 -2.4,-39.93 -2.43,-8.83 -2.43,-50.88 -2.27,30.39 -2.27,10.24 -4.51,67.84 -2.41,-2.12 -7.58,-131.08 -2.57,-69.97 -2.54,8.84 -5.31,-62.19 -5.16,1.42 -4.77,66.07 -4.77,83.74 -2.29,56.53 -2.46,-34.98 -2.43,-7.77 -2.4,25.44 -4.91,-69.61 -2.41,20.85 -2.48,8.13 -2.58,-62.55 -2.52,9.19 -2.47,2.83 -5.03,-37.81 -2.62,15.55 -8.17,-112.72 -2.64,-5.65 -5.53,-43.46 -2.66,55.82 -2.75,-47.69 -2.68,-0.71 -2.55,29.68 -2.48,65.72 -2.54,-4.59 -7.68,57.24 -5.09,-32.16 -2.46,50.89 -2.43,6 -2.62,-21.55 -2.45,20.49 -2.56,1.06 -4.72,21.55 -4.65,79.51 -2.36,12.37 -2.4,3.88 -2.34,-8.48 -2.26,29.68 -2.15,4.24 -2.27,29.68 -4.35,68.9 -2.35,4.95 -2.52,-91.51 -2.47,-23.68 -2.32,-35.33 -2.28,-1.77 -2.38,-30.03 -4.68,71.02 -2.26,26.14 -4.96,-68.19 -2.48,-7.42 -2.38,-14.13 -2.34,-34.28 -4.62,72.08 -2.18,55.48 -2.36,-12.02 -2.23,32.51 -2.17,-0.35 -2.16,59.36 -2.18,-27.56 -2.14,54.42 -2.12,12.71 -2.23,4.24 -2.28,-43.81 -2.25,-13.78 -2.15,7.07 -2.03,11.3 -2.14,23.68 -2.19,7.77 -2.17,27.56 -2.17,-2.12 -2.23,-46.99 -4.58,-44.17 -2.27,-4.95 -2.27,-35.69 -4.49,7.78 -4.39,38.51 -2.51,-41.69 -2.07,44.87 -2.29,-15.9 -2.41,-30.03 -2.47,-68.55 -2.32,34.63 -2.22,-10.25 -2.29,-4.24 -2.41,-10.24 -2.36,39.22 -2.29,8.83 -2.54,-82.33 -2.46,-21.91 -2.24,43.46 -2.26,10.25 -2.27,-2.47 -2.35,50.52 -2.46,-13.07 -9.97,-148.05 -2.6,-2.12 -2.52,-20.14 -2.47,4.24 -2.63,-28.62 -2.53,9.89 -2.38,38.17 -2.58,-11.66 -2.47,-2.48 -4.68,91.52 -2.5,-34.28 -2.55,12.02 -2.59,-18.02 -5.11,-82.68 -2.46,27.2 -2.57,-7.77 -2.61,-18.73 -2.54,38.51 -5.05,-30.38 -2.56,1.41 -2.61,15.9 -2.62,-33.92 -2.63,4.24 -2.73,-44.17 -2.69,-18.02 -2.6,12.73 -2.65,-1.77 -2.7,-26.86 -5.32,32.86 -2.7,-23.32 -2.76,-11.66 -5.75,-45.93 -3.02,-59.36 -2.87,-19.44 -2.81,-6 -2.83,11.3 -2.87,1.07 -2.96,12.01 -5.99,-46.64 -2.67,28.26 -3.04,-25.43 -3.06,-10.25 -6,1.76 -2.92,-34.98 -3.14,-9.18 -3.18,-20.5 -3.02,8.84 -3.05,4.23 -3.46,-68.9 -3.19,-3.53 -3.19,8.83 -6.32,-47.696 -3.19,31.446 -3.12,7.77 -3.06,13.78 -2.9,32.51 -5.25,167.84 -2.77,25.08 -2.65,77.74 -2.98,-13.43 -5.6,-79.15 -2.65,43.11 -2.74,-28.97 -2.98,12.01 -3.08,-42.4 -3.01,-18.37 -6.26,-124.73 -3.04,-6.36 -2.98,29.68 -6.2,-27.21 -3,32.51 -3.16,-18.73 -3.05,-2.12 -3.17,-18.37 -3.16,3.53 -3.11,-14.84 -3.05,12.37 -2.86,20.49 -2.93,57.24 -3.21,-26.85 -3.04,16.25 -3.14,-4.94 -3.1,-33.57 -3.2,-50.18 -3.25,12.37 -6.4,-33.92 -6.26,12.37 -3.27,2.12 -3.31,-28.27 -3.18,27.56 -6.6,-49.819 -3.32,-4.242 -3.28,14.841 -3.4,-36.392 -3.25,3.18 -3.21,16.605 -3.17,22.967 -3.18,4.6 -2.91,69.25 -3.33,-18.02 -6.24,28.62 -3.23,-6.01 -3.24,-48.76 -3.13,42.76 -3.2,-12.02 -3.37,-40.63 -3.2,13.78 -3.3,-5.65 -3.31,-26.86 -3.32,-15.191 -3.2,26.501 -3.22,-2.83 -3.31,-0.35 -3.14,16.96 -2.99,57.59 -6.47,-16.61 -3.27,2.83 -2.83,58.66 -3.12,-37.46 -3.11,18.02 -3.08,30.04 -3.24,9.18 -3.43,-88.68 -6.77,-47.71 -2.9,16.96 -2.96,36.04 -8.78,169.25 -2.95,0.71 -3.12,-19.78 -3.07,-7.78 -3.31,-64.66 -3.29,-28.62 -6.7,-79.85 -3.33,-25.09 -3.44,-8.84 -3.24,7.43 -3.31,-10.61 -3.3,25.45 -3.21,-1.42 -2.88,85.16 -3.1,9.18 -3.19,14.84 -3.08,22.97 -2.75,69.96 -2.87,-11.3 -5.81,73.49 -3.01,9.54 -2.92,-20.5 -5.74,-6.35 -2.91,7.77 -5.36,74.55 -2.84,4.95 -5.26,73.85 -5.2,15.19 -2.39,83.04 -2.48,8.48 -7.14,120.84 -2.37,-10.6 -2.41,18.02 -2.45,-13.07 -2.52,7.77 -5.58,-156.88 -2.48,9.89 -5.31,-74.55 -5.09,97.87 -2.56,-27.91 -2.75,1.41 -8.25,-78.44 -2.51,6.71 -5.41,24.38 -2.71,4.6 -2.76,-4.25 -2.74,-37.09 -2.72,3.88 -2.79,-8.83 -2.84,-22.26 -2.84,2.12 -2.99,-40.64 -5.78,-33.56 -2.92,-0.71 -3.19,-45.93 -12.64,-115.19 -3.11,1.77 -3.01,43.46 -2.98,10.59 -2.98,18.03 -5.81,67.84 h -2.9 l -8.24,94.34 -2.74,25.44 -2.85,3.89 -2.69,14.83 -2.81,-7.41 -2.7,2.11 -2.87,-33.21 -2.54,71.38 -2.75,-26.51 -2.66,30.75 -2.62,7.77 -2.63,45.23 -2.68,-38.52 -2.62,30.74 -2.48,9.19 -2.3,71.38 -2.4,25.44 -2.47,38.86 -2.47,16.97 -2.34,40.28 -2.45,-52.65 -2.31,31.09 -2.38,16.26 -2.45,-10.61 -2.4,-3.18 -2.37,19.44 -2.33,-16.26 -2.23,20.85 -2.1,82.68 -2.26,9.9 -2.18,37.8 -2.28,18.73 -2.42,-39.57 -2.44,-62.55 -2.46,-21.9 -2.47,-57.95 -5.04,-50.17 -2.54,3.53 -2.66,-49.82 -5.25,-36.04 -2.58,10.24 -2.6,-27.91 -2.62,20.14 -2.65,8.13 -5.49,-56.89 -2.73,-8.48 -5.59,-49.11 -2.97,-27.92 -2.86,-3.89 -6.15,-83.38 -3,-32.16 -2.86,22.62 -2.87,-7.42 -5.47,100.7 -2.99,-2.83 -2.89,-4.94 -5.51,18.37 -2.8,1.06 -3.01,-20.5 -2.76,32.51 -2.85,-8.12 h -2.69 l -2.74,-3.54 -2.95,32.16 -2.89,-33.92 -2.84,11.66 -2.83,-27.92 -2.74,6.01 -5.34,72.08 -2.72,18.73 -2.75,3.89 -2.58,37.09 -2.68,-11.3 -2.62,9.19 -5.34,32.86 -2.94,-67.84 -2.78,-1.77 -2.81,-24.38 -2.92,-48.76 -2.93,-26.15 -2.88,9.54 -2.82,1.77 -2.82,-8.13 -8.31,67.84 -2.74,6.36 -2.8,2.12 -5.33,56.54 -2.95,-51.59 -2.82,-15.55 -2.6,48.76 -2.6,2.83 -2.69,-13.08 -5.28,90.81 -2.58,-14.84 -2.53,5.66 -5.02,78.79 -2.64,-34.63 -2.63,9.19 -2.59,-6.71 -2.7,-26.5 -2.82,-72.44 -2.61,45.94 -2.63,-22.97 -2.58,18.02 -2.64,-21.2 -2.44,95.75 -2.4,4.95 -2.47,45.93 -2.52,-16.25 -2.57,46.29 -2.61,-65.37 -2.56,6.01 -2.53,-43.46 -4.75,78.79 -2.49,25.44 -2.55,-14.84 -2.58,19.43 -5.19,-102.46 -2.48,25.09 -2.46,7.41 -2.4,19.09 -2.33,69.6 -2.6,-18.02 -2.46,8.48 -2.54,-16.6 -2.36,18.72 -2.46,-39.22 -2.55,24.73 -2.49,-13.77 -2.49,12.36 -2.44,-17.31 -4.79,39.93 -2.46,-4.6 -2.42,19.44 -2.46,6 -2.52,-40.28 -2.52,-2.82 -2.55,-12.72 -2.54,-27.92 -2.51,-1.06 -2.58,1.06 -2.6,-31.45 -2.52,15.91 -4.72,50.87 -2.36,40.29 -2.52,13.07 -2.53,-5.65 -2.38,9.89 -2.36,-16.26 -2.36,-0.7 -2.38,16.25 -2.14,90.46 -2.18,8.12 -2.24,34.98 -2.27,5.66 -2.3,25.79 -4.77,-76.67 -2.35,-31.1 -2.38,-13.42 -2.29,12.72 -2.35,-28.62 -2.3,41.69 -2.2,12.37 -2.14,57.24 -2.1,20.84 -4.3,70.68 -2.18,11.3 -2.19,-31.8 -2.2,2.83 -4.5,-49.47 -1.95,55.83 -2.15,2.83 -2.16,-19.09 -2.12,57.6 -2.15,3.88 -2.22,-61.12 -2.21,2.12 -2.17,15.54 -2.15,-41.69 -2.12,34.98 -2.1,7.78 -2.02,44.16 -2.01,17.32 -2.04,42.04 -2.03,-12.01 -2,37.1 -1.99,6.36 -4.36,-59.36 -2.22,-25.79 -2.21,-55.48 -4.42,-33.57 -2.22,-7.77 -2.18,6.71 -4.21,21.56 -2.05,55.82 -2.39,-37.45 -2.19,-0.71 -2.25,-7.77 -2.14,-31.09 -2.13,3.53 -2.18,21.55 -2.22,1.06 -2.31,-8.48 -2.19,5.66 -2.42,-87.63 -2.32,9.54 -2.35,-31.45 -4.58,-16.25 -2.24,46.29 -2.32,-17.32 -4.6,27.91 -2.21,-4.59 -4.47,24.73 -2.4,-16.95 -4.79,-55.83 -2.3,1.76 -2.5,-51.94 -2.47,-10.6 -2.4,24.03 -2.45,-14.13 -2.5,-57.25 -2.35,38.52 -2.14,69.96 -2.41,-18.37 -2.46,-1.06 -2.44,13.42 -2.49,-13.42 -2.49,-91.52 -2.45,29.68 -7.55,-42.75 -2.48,26.15 -2.51,-26.86 -7.86,-36.04 -2.58,-26.85 -2.51,6.71 -2.5,23.32 -2.52,10.95 -2.52,31.1 -7.95,-63.6 -2.62,-10.96 -2.63,-20.84 -2.71,1.77 -2.76,-15.91 -5.7,-56.88 -2.87,-47.35 -2.57,37.45 -2.83,-14.48 -5.59,13.42 -2.73,35.33 -2.88,-62.89 -2.85,14.84 -6.13,-67.84 -3.3,-80.56 -6.28,-67.13 -2.83,39.57 -6.09,39.93 -2.99,37.8 -3,-9.54 -2.92,-2.82 -3.06,-27.92 -2.94,40.28 -3.08,-18.02 -2.99,11.31 -2.87,-16.61 -2.81,57.95 -2.85,3.53 -2.97,13.43 h -2.98 l -2.89,3.53 -3.07,-38.16 -2.88,-2.12 -2.99,6.01 -3.04,-17.31 -2.89,8.83 -2.89,25.79 -2.94,-16.25 -2.79,25.79 -2.69,61.84 -2.75,2.83 -5.39,63.24 -2.73,20.85 -2.92,-41.69 -11.57,-100.35 -5.18,112.01 -2.64,18.37 -5.24,83.39 -2.7,-20.49 -5.8,-82.33 -2.67,2.83 -2.66,-4.25 -2.7,1.06 -2.71,25.09 -5.05,80.56 -2.6,5.66 -2.72,-6.01 -2.75,2.12 -2.75,-24.73 -2.68,-55.48 -2.6,36.39 -2.86,-34.62 -2.88,-14.13 -2.74,2.82 -2.63,19.43 -3.12,-98.58 -3.08,-7.77 -3.03,-18.37 -5.87,-67.14 -2.82,39.93 -5.34,103.53 -2.83,19.07 -2.82,7.43 -2.8,16.96 -2.97,-60.78 -5.92,-44.87 -2.91,-5.65 -2.89,-23.32 -3.04,-4.6 -5.27,103.53 -2.82,9.89 -2.94,-7.77 -2.93,19.08 -5.64,-62.9 -2.83,-0.7 -5.42,71.73 -2.77,-2.83 -2.78,12.37 -2.88,-5.3 -2.89,-33.57 -2.84,-11.66 -2.7,2.83 -2.61,42.4 -2.69,20.14 -2.79,7.77 -2.71,26.86 -2.66,6.36 -2.6,-2.83 -2.83,-25.09 -2.65,33.22 -2.66,-1.42 -2.67,7.42 -2.65,-20.84 -2.8,18.72 -2.9,-48.05 -2.69,10.95 -5.52,-28.26 -2.75,-7.78 -2.61,59.01 -2.55,13.07 -7.86,79.5 -2.83,-54.41 -2.76,-28.98 -2.62,-10.95 -2.51,33.22 -2.71,-26.86 -2.67,42.05 -2.59,21.55 -2.65,3.54 -2.66,-46.64 -2.63,30.73 -2.56,13.79 -2.55,1.76 -5.08,44.88 -2.8,-33.22 -2.51,12.37 -2.62,-7.42 -2.81,-44.87 -2.54,-0.71 -2.7,24.03 -2.71,-33.93 -2.77,-15.89 -5.59,-40.64 -2.45,34.98 -7.04,219.07 -2.35,44.88 -2.41,10.95 -5.08,-99.29 -2.54,2.12 -5.49,-111.65 -2.72,-18.38 -5.55,-74.55 -2.75,-5.65 -2.74,16.25 -2.76,-14.84 -5.43,28.27 -2.73,-9.9 -2.65,24.74 -2.71,14.13 -2.69,-26.85 -2.5,63.24 -2.66,16.96 -2.86,-57.95 -5.27,46.64 -2.58,-38.51 -5.12,81.62 -2.79,-38.51 -2.71,-2.47 -2.46,22.26 -2.95,-74.56 -2.79,-19.43 -2.67,17.67 -2.56,37.09 -2.76,-62.53 -2.66,54.76 -5.28,29.69 -2.66,-31.81 -2.74,26.86 -2.76,-50.18 -2.63,43.82 -2.64,-30.75 -5.21,31.1 -2.58,52.65 -2.59,-28.62 -2.62,33.21 -5.41,-47.35 -2.6,13.43 -2.8,-38.51 -2.73,-19.79 -2.71,6.71 -2.44,50.18 -2.58,-12.72 -2.71,23.32 -2.81,-14.14 -2.78,-6 -2.69,-48.41 -5.16,25.44 -2.62,34.27 -2.77,-14.48 -2.62,38.86 -2.77,-54.06 -2.72,-6 -2.64,-15.2 -2.57,60.42 -2.59,-33.92 -2.58,59.01 -2.71,-6.71 -2.84,-26.15 -2.81,-50.17 -2.75,3.53 -2.81,-57.24 -2.72,12.36 -2.94,-11.66 -2.63,29.33 -2.72,-5.65 -2.76,22.26 -2.98,-49.47 -2.96,2.48 -2.85,-29.68 -2.78,-0.36 -2.85,-21.55 -8.17,93.99 -2.85,-17.67 -5.23,69.6 -2.69,4.25 -5.61,-25.8 -2.75,-3.53 -2.74,-30.39 -2.67,9.19 -2.65,16.25 -2.7,25.8 -2.66,-1.06 -2.62,40.28 -5.42,-29.68 -2.7,4.24 -2.6,19.08 -2.68,-27.56 -2.64,25.79 -2.79,-18.37 -2.72,6.71 -2.69,-23.32 -2.66,13.07 -2.64,-9.53 -2.59,38.16 -8.54,-66.79 -2.8,-21.55 -2.69,-11.31 -2.63,26.86 -2.56,39.92 -2.53,57.24 -2.49,30.39 -4.91,83.74 -2.62,-25.44 -2.66,-12.01 -2.73,-28.27 -5.48,-103.17 -2.68,14.84 -2.73,-26.86 -2.7,17.67 -2.69,4.59 -2.69,15.2 -2.85,-32.86 -2.76,1.76 -2.71,-2.47 -2.7,3.53 -2.89,-22.61 -3.06,-40.99 -2.9,-5.3 -2.84,-15.19 -2.89,-31.45 -2.86,1.06 -2.83,49.82 -2.96,-25.09 -2.81,18.38 -2.98,-13.43 -6.09,-52.29 -2.97,7.42 -6.01,-32.51 -3.15,-5.66 -3.19,-24.02 -3.05,-1.77 -3.47,-76.67 -10.35,-86.21 -3.51,-59.72 -3.39,18.37 -3.54,-19.43 -6.73,31.45 -3.17,45.58 -3.25,7.07 -3.17,55.47 -6.58,9.54 -3.21,-16.61 -2.98,59.36 -3.09,2.83 -3.2,-9.54 -3.1,45.93 -3.08,24.38 -3.07,-25.44 -3.14,-3.89 -11.75,90.46 -2.92,39.22 -2.98,3.54 -2.94,-13.79 -2.75,31.1 -2.94,1.06 -3.11,-30.03 -3.11,-15.9 -2.99,3.88 -2.94,-27.2 -3.03,-11.67 -2.95,21.21 -2.91,33.91 -2.93,4.25 -2.97,-3.89 -3.04,0.71 -6.12,-30.39 -2.99,-18.38 -2.76,48.06 -11.44,102.47 -2.89,-37.46 -2.75,19.08 -2.74,31.1 -2.78,-1.77 -5.41,52.65 -5.25,33.92 -2.58,40.63 -2.69,-1.41 -2.85,-7.42 -6.03,-108.83 -2.95,-57.24 -2.8,-10.96 -3,-23.67 -2.92,31.1 -3.05,-6.01 -3.14,-24.38 -3.1,-36.39 -3.07,-1.77 -3.27,-54.41 -3.18,-1.07 -3.2,-7.06 -3.09,5.3 -3.28,-25.09 -3.28,7.07 -3.3,-18.02 -3.48,-25.8 -3.51,-46.64 -10.71,-87.63 -3.62,-9.54 -7.48,-38.16 -3.92,-37.1 -3.65,0.71 -3.78,-15.9 -3.68,9.89 -3.75,0.36 -3.67,40.63 -3.83,-29.33 -3.68,19.08 -3.68,2.48 -4.03,-30.39 -3.68,1.76 -3.49,48.77 -3.57,6.36 -3.53,13.43 -3.46,83.03 -3.79,-25.8 h -3.48 l -6.85,39.93 -3.41,-7.77 -3.36,57.59 -3.28,28.27 -3.72,-35.33 -3.45,-3.18 -3.11,48.05 -3.42,2.12 -3.64,-49.82 -3.51,35.33 -3.4,3.18 -3.22,-7.77 -3.29,8.13 -3.37,40.63 -3.39,12.72 -3.46,0.35 -3.42,-33.21 -3.3,12.01 -3.35,-0.7 -3.29,16.25 -3.32,22.61 -3.43,-1.41 -3.36,-7.77 -3.28,11.66 -3.22,24.02 -3.49,-28.26 -3.56,-11.31 -3.35,10.96 -3.45,-15.91 -3.4,-37.8 -3.29,45.58 -3.46,12.01 -3.53,-27.56 -3.48,5.65 -3.44,0.36 -3.37,-13.78 -3.53,1.76 -3.58,-5.3 -6.59,47.71 -7.03,-19.79 -3.33,36.04 -3.23,11.66 -3.37,-16.61 -3.16,39.57 -3.12,63.96 -3.24,8.48 -3.37,-21.9 -3.35,15.19 -3.29,-16.61 -3.21,-9.54 -3.23,9.19 -3.37,-10.96 -3.08,50.53 -3.06,30.04 -3.16,3.88 -6.38,45.94 -3.34,-49.82 -3.14,-3.18 -3.1,19.78 -3.28,-40.99 -3.07,38.52 -2.95,55.12 -2.89,32.15 -2.98,8.48 -2.94,58.66 -2.9,15.19 -2.85,6.71 -2.8,28.63 -5.87,3.88 -2.98,-8.83 -2.9,11.31 -2.79,-0.36 -2.95,1.77 -3.05,-12.37 -5.95,-11.66 -2.9,-14.13 -5.32,103.53 -2.85,27.56 -2.91,-5.66 -2.82,8.84 -2.74,-28.98 -2.67,31.1 -2.75,11.66 -2.78,32.86 -2.73,-0.36 -2.64,43.82 -2.84,-57.95 -2.8,1.42 -2.84,-15.55 -2.81,-1.77 -2.73,-30.38 -2.71,34.62 -2.83,-5.65 -2.85,-8.48 -5.43,44.17 -2.83,-34.98 -2.74,20.14 -2.73,34.27 -2.88,-32.86 h -2.66 l -2.73,31.09 -3,-46.64 -2.71,2.83 -2.55,61.83 -2.58,7.42 -2.57,25.44 -2.59,63.25 -2.6,18.73 -2.68,-27.91 -5.25,-15.91 -2.54,24.03 -2.63,-10.6 -2.64,-3.88 -2.51,41.69 -2.48,14.13 -2.49,4.59 -2.57,11.66 -2.62,5.3 -4.9,20.15 -2.46,-2.48 -2.48,15.2 -2.43,43.81 -2.3,10.6 -2.51,-4.95 -2.52,-9.18 -2.43,12.72 -2.45,-2.47 -2.42,-25.09 -2.36,38.51 -2.44,9.19 -2.43,-10.95 -2.39,27.91 -2.39,-1.41 -7.4,-28.63 -8.98,144.52 -2.5,-8.83 -4.87,-78.09 -2.47,-65.02 -2.36,13.43 -2.28,49.47 -2.31,16.96 -2.44,-6.01 -2.4,30.39 -2.44,-18.37 -4.9,-57.25 -2.26,43.82 -2.42,-12.37 -2.36,13.43 -2.27,26.85 -2.25,49.47 -2.22,-20.85 -2.2,63.25 -4.53,16.61 -2.35,-35.69 -2.36,1.06 -2.3,-31.09 -4.66,-20.85 -2.34,19.43 -4.78,-39.57 -2.23,35.69 -4.43,30.74 -4.56,48.76 -2.13,-1.42 -2.11,50.89 -2.22,-21.56 -4.5,21.91 -2.33,-27.56 -2.36,-70.67 -2.28,2.83 -2.25,16.6 -2.21,-19.08 -2.14,53.36 -2.28,16.96 -2.06,37.45 -2.12,14.49 -2.15,23.32 -2.19,-18.02 -2.22,7.07 -2.22,-26.86 -2.17,-5.65 -2.24,-9.19 -2.27,-26.85 -4.45,10.95 -2.22,-12.72 -2.21,4.6 -2.09,40.28 -8.55,53.7 -2.07,0.71 -2,42.05 -4.31,-27.56 -2.1,32.15 -2.13,-22.96 -2.17,-39.23 -2.17,8.13 -2.15,16.61 -2.15,-39.58 -2.11,11.66 -6.05,97.52 -2.09,10.96 -2.15,-20.14 -2.07,-3.54 -2,17.32 -2.11,-42.76 -2.13,-5.65 -2.1,25.09 -2.07,-3.18 -6.72,-84.1 -2.19,-6.71 -2.18,-37.1 -2.17,8.83 -8.45,109.54 -2.02,0.35 -2.01,52.3 -2.1,13.42 -4.31,-50.53 -2.1,9.54 -2.1,-34.62 -2.1,-14.13 -4.08,46.99 -2.08,2.47 -2.06,-2.82 -3.95,49.46 -2.06,4.6 -2.09,-34.99 -2.08,27.92 -4.08,-35.69 -2.08,-24.38 -2.15,44.17 -2.16,-67.84 -4.1,20.84 -2.12,3.18 -2.11,-36.39 -2.11,71.73 -2.14,-48.05 -4.17,-15.2 -2.03,60.77 -2.09,-37.8 -4.19,14.13 -1.95,44.17 -1.99,-25.09 -2.05,29.68 -2.07,7.78 -1.93,25.79 -4.03,-24.03 -4.16,8.83 -2.27,-80.91 -2,7.07 -1.99,14.84 -1.92,-4.95 -3.75,134.98 -1.87,15.9 -1.86,42.4 -2.03,-14.13 -2,-45.59 -1.98,-13.78 -2.01,-1.41 -2.12,-80.21 -2.17,-13.78 -2.26,-57.95 -2.12,-9.18 -6.67,-79.5 -2.17,30.74 -2.04,8.83 -4.06,45.94 -2.11,57.59 -2.22,-21.2 -4.4,-69.61 -4.42,-56.89 -4.25,64.66 -2.17,-21.55 -2.26,1.41 -2.12,22.26 -2.1,-11.66 -2.07,10.25 -2.08,19.43 -2.21,6.36 -4.41,-34.62 -2.2,-18.73 -2.2,-32.15 -2.23,16.96 -2.32,-24.03 -2.39,-39.57 -4.3,31.8 -2.24,-19.09 -2.18,18.38 -2.16,73.14 -2.18,-45.93 -2.1,26.5 -6.64,-23.32 -2.15,44.87 -2.25,-60.42 -2.32,9.54 -2.38,-20.49 -4.59,-81.27 -4.32,49.11 -4.211,91.52 -5.992,101.41 -1.965,13.42 -1.887,60.42 -1.925,4.95 -1.926,20.49 h -1.93 l -1.937,17.67 -1.86,-0.35 -1.953,4.24 -2.012,-45.23 -2.031,0.71 -3.926,-39.93 -1.968,7.42 -6.106,-24.03 -3.742,29.68 -5.75,89.4 -1.949,-33.22 -1.91,-13.42 -3.891,57.59 -1.816,-4.94 -1.692,83.38 -3.508,26.5 -3.41,95.05 -1.738,-36.75 -1.692,21.56 -3.468,-55.83 -1.797,-41.34 -1.735,36.04 -1.742,-49.82 -3.496,74.91 -3.258,-23.32 -1.609,31.8 h -1.609 l -3.235,66.07 -3.183,40.99 -3.27,-96.81 -3.234,48.75 -1.672,4.25 -1.676,8.48 -1.668,22.61 -1.613,-8.83 -3.445,-61.84 -1.684,15.9 -1.746,-14.84 -3.539,-114.13 -3.399,46.64 -1.761,-17.66 -3.418,47.35 -1.684,4.94 -1.641,-29.68 -1.605,41.69 -1.852,-16.6 -3.636,-71.73 -1.645,20.49 -1.719,-39.57 -1.765,14.49 -3.442,41.34 -1.75,-36.4 -1.73,0.71 -1.754,10.95 -1.801,-24.38 -3.785,-78.79 -1.773,8.48 -1.727,-2.12 -1.797,-5.66 -3.535,73.5 -3.707,-69.96 v 0"
             style="fill:none;stroke:#4e79a7;stroke-width:17;stroke-linecap:square;stroke-linejoin:round;stroke-miterlimit:10;stroke-dasharray:none;stroke-opacity:1"
             id="path384"
             inkscape:connector-curvature="0" /></g></g><g
         id="g386"><g
           id="g388"
           clip-path="url(#clipPath392)"><path
             d="M 829.348,520.484 V 4053.89"
             style="fill:none;stroke:#000000;stroke-width:8;stroke-linecap:square;stroke-linejoin:miter;stroke-miterlimit:10;stroke-dasharray:none;stroke-opacity:1"
             id="path394"
             inkscape:connector-curvature="0" /><path
             d="M 7525.35,520.484 V 4053.89"
             style="fill:none;stroke:#000000;stroke-width:8;stroke-linecap:square;stroke-linejoin:miter;stroke-miterlimit:10;stroke-dasharray:none;stroke-opacity:1"
             id="path396"
             inkscape:connector-curvature="0" /><path
             d="M 829.348,520.484 H 7525.35"
             style="fill:none;stroke:#000000;stroke-width:8;stroke-linecap:square;stroke-linejoin:miter;stroke-miterlimit:10;stroke-dasharray:none;stroke-opacity:1"
             id="path398"
             inkscape:connector-curvature="0" /><path
             d="M 829.348,4053.89 H 7525.35"
             style="fill:none;stroke:#000000;stroke-width:8;stroke-linecap:square;stroke-linejoin:miter;stroke-miterlimit:10;stroke-dasharray:none;stroke-opacity:1"
             id="path400"
             inkscape:connector-curvature="0" /><path
             d="M 948.348,605.484 H 3650 c 22.67,0 34,11.332 34,34 v 232.532 c 0,22.668 -11.33,34 -34,34 H 948.348 c -22.668,0 -34,-11.332 -34,-34 V 639.484 c 0,-22.668 11.332,-34 34,-34"
             style="fill:#ffffff;fill-opacity:1;fill-rule:nonzero;stroke:none"
             id="path402"
             inkscape:connector-curvature="0" /><path
             d="M 948.348,605.484 H 3650 c 22.67,0 34,11.332 34,34 v 232.532 c 0,22.668 -11.33,34 -34,34 H 948.348 c -22.668,0 -34,-11.332 -34,-34 V 639.484 c 0,-22.668 11.332,-34 34,-34 z"
             style="fill:none;stroke:#cccccc;stroke-width:10;stroke-linecap:butt;stroke-linejoin:miter;stroke-miterlimit:10;stroke-dasharray:none;stroke-opacity:1"
             id="path404"
             inkscape:connector-curvature="0" /><path
             d="M 982.348,768.297 H 1322.35"
             style="fill:none;stroke:#4e79a7;stroke-width:17;stroke-linecap:square;stroke-linejoin:round;stroke-miterlimit:10;stroke-dasharray:none;stroke-opacity:1"
             id="path406"
             inkscape:connector-curvature="0" /><g
             id="g408"
             transform="scale(10)"><text
               transform="matrix(1,0,0,-1,145.835,70.8797)"
               style="font-variant:normal;font-weight:normal;font-size:17px;font-family:Arial;-inkscape-font-specification:Arial;writing-mode:lr-tb;fill:#000000;fill-opacity:1;fill-rule:nonzero;stroke:none"
               id="text412"><tspan
                 x="0 10.74101 23.831633 35.70155 41.10545 46.119122 55.465603 65.924583 75.271461 85.672234 92.661674 103.12066 108.52417 115.1898 125.64878 142.20892 152.99995 163.45892 170.44798 180.86557 187.5312 198.30542 205.29486"
                 y="0"
                 sodipodi:role="line"
                 id="tspan410">EDC Icecore temperature</tspan></text>
</g></g></g></g><path
       style="fill:none;fill-rule:evenodd;stroke:#4d4d4d;stroke-width:2.625;stroke-linecap:butt;stroke-linejoin:miter;stroke-miterlimit:4.4000001;stroke-dasharray:none;stroke-dashoffset:0;stroke-opacity:1;marker-start:url(#StopM);marker-end:url(#StopM)"
       d="M 696.37236,305.13573 H 631.065"
       id="path1223"
       inkscape:connector-curvature="0" /><text
       xml:space="preserve"
       style="font-style:normal;font-variant:normal;font-weight:normal;font-stretch:normal;font-size:30px;line-height:125%;font-family:'GFS Artemisia';-inkscape-font-specification:'GFS Artemisia';letter-spacing:0px;word-spacing:0px;fill:#4d4d4d;fill-opacity:1;stroke:none;stroke-width:0.75px;stroke-linecap:butt;stroke-linejoin:miter;stroke-opacity:1"
       x="585.7334"
       y="-316.68671"
       id="text2345"
       transform="scale(1,-1)"><tspan
         sodipodi:role="line"
         id="tspan2343"
         x="585.7334"
         y="-316.68671"
         style="font-size:20px;fill:#4d4d4d;stroke-width:0.75px">Last Deglaciation</tspan></text>
<path
       style="fill:none;fill-rule:evenodd;stroke:#4d4d4d;stroke-width:2.625;stroke-linecap:butt;stroke-linejoin:miter;stroke-miterlimit:4;stroke-dasharray:none;stroke-opacity:1;marker-start:url(#marker2753);marker-end:url(#marker2753)"
       d="M 696.37236,346.81581 H 160.21383"
       id="path2749"
       inkscape:connector-curvature="0" /><text
       xml:space="preserve"
       style="font-style:normal;font-variant:normal;font-weight:normal;font-stretch:normal;font-size:30px;line-height:125%;font-family:'GFS Artemisia';-inkscape-font-specification:'GFS Artemisia';letter-spacing:0px;word-spacing:0px;fill:#4d4d4d;fill-opacity:1;stroke:none;stroke-width:0.75px;stroke-linecap:butt;stroke-linejoin:miter;stroke-opacity:1"
       x="361.15158"
       y="-358.55267"
       id="text2345-3"
       transform="scale(1,-1)"><tspan
         sodipodi:role="line"
         id="tspan2343-6"
         x="361.15158"
         y="-358.55267"
         style="font-size:20px;fill:#4d4d4d;stroke-width:0.75px">Last Glacial Period</tspan></text>
</g></svg>