<?xml version="1.0" encoding="utf-8" standalone="no"?>
<!DOCTYPE svg PUBLIC "-//W3C//DTD SVG 1.1//EN"
  "http://www.w3.org/Graphics/SVG/1.1/DTD/svg11.dtd">
<!-- Created with matplotlib (https://matplotlib.org/) -->
<svg height="424.98375pt" version="1.1" viewBox="0 0 945.389477 424.98375" width="945.389477pt" xmlns="http://www.w3.org/2000/svg" xmlns:xlink="http://www.w3.org/1999/xlink">
 <defs>
  <style type="text/css">
*{stroke-linecap:butt;stroke-linejoin:round;}
  </style>
 </defs>
 <g id="figure_1">
  <g id="patch_1">
   <path d="M 0 424.98375 
L 945.389477 424.98375 
L 945.389477 0 
L 0 0 
z
" style="fill:#ffffff;"/>
  </g>
  <g id="axes_1">
   <g id="line2d_1">
    <path clip-path="url(#p0e21f281bd)" d="M 41.100848 379.906638 
L 41.718978 383.398161 
L 42.337107 385.688767 
L 42.955237 387.189302 
L 43.617519 388.227108 
L 44.323953 388.920199 
L 44.368105 388.953359 
L 44.67717 150.562771 
L 44.942082 71.308228 
L 45.162843 53.387307 
L 45.206995 53.164082 
L 45.295299 55.177969 
L 45.471908 66.672937 
L 45.869277 111.682739 
L 47.017232 246.198965 
L 47.679514 296.826085 
L 48.297643 328.531212 
L 48.915773 349.637861 
L 49.533903 363.556346 
L 50.152032 372.695533 
L 50.770162 378.684846 
L 51.388292 382.60641 
L 52.006421 385.173044 
L 52.40379 386.332592 
L 52.447942 390.031225 
L 52.492095 388.933915 
L 52.801159 384.137868 
L 53.066072 382.628711 
L 53.286833 382.35814 
L 53.463441 382.511144 
L 53.772506 383.191409 
L 55.406134 387.349648 
L 56.112568 388.355839 
L 56.819002 388.993438 
L 57.657893 389.446139 
L 58.717543 389.7482 
L 60.262868 389.933197 
L 63.397668 390.031225 
L 63.706733 390.031225 
L 64.015798 377.392612 
L 64.28071 373.209734 
L 64.501471 372.263907 
L 64.589775 372.285299 
L 64.766384 372.773848 
L 65.119601 374.749588 
L 66.444164 382.858689 
L 67.106446 385.393674 
L 67.768728 387.064188 
L 68.43101 388.141479 
L 69.137444 388.865737 
L 69.932182 389.355273 
L 70.903528 389.684083 
L 71.742419 389.83602 
L 71.874875 390.031225 
L 75.009675 390.031225 
L 75.31874 354.110957 
L 75.583653 342.222776 
L 75.804413 339.534637 
L 75.848566 339.501154 
L 75.892718 339.595435 
L 76.025174 340.508739 
L 76.334239 344.988536 
L 76.599152 349.997873 
L 76.864064 342.049019 
L 77.040673 341.01018 
L 77.128977 341.301176 
L 77.305586 342.971061 
L 77.702955 349.518349 
L 78.85091 369.095288 
L 79.513191 376.464321 
L 79.822256 379.0017 
L 80.131321 368.174578 
L 80.396234 365.37669 
L 80.484538 365.217458 
L 80.52869 365.240276 
L 80.661147 365.633196 
L 80.926059 367.393905 
L 82.8246 382.448637 
L 83.663491 386.077672 
L 84.28162 387.434547 
L 85.164663 388.767008 
L 85.915249 389.275413 
L 86.842443 389.63111 
L 88.740984 390.031225 
L 115.276408 390.031225 
L 115.585473 381.383753 
L 115.850385 378.521784 
L 116.071146 377.874639 
L 116.203602 377.939302 
L 116.424363 378.499576 
L 116.910036 380.602151 
L 117.881383 384.688796 
L 118.543665 386.565052 
L 119.205947 387.810391 
L 119.868228 388.615863 
L 120.133141 388.850124 
L 120.442206 378.338786 
L 120.707119 374.944061 
L 120.927879 374.252526 
L 121.060336 374.3923 
L 121.281096 375.175841 
L 121.810922 378.209589 
L 122.738116 383.200211 
L 123.488702 385.973718 
L 124.150984 387.434103 
L 124.813266 388.376759 
L 125.5197 389.010754 
L 126.35859 389.457009 
L 127.418241 389.753669 
L 128.168827 389.8654 
L 128.301283 390.031225 
L 131.391931 390.031225 
L 131.700996 348.486016 
L 131.965909 334.736202 
L 132.18667 331.627115 
L 132.230822 331.588388 
L 132.274974 331.697432 
L 132.40743 332.753756 
L 132.716495 337.935067 
L 134.305971 369.00812 
L 134.968253 376.489179 
L 135.586383 381.117331 
L 136.204512 384.183001 
L 136.822642 386.200074 
L 137.440772 387.523175 
L 138.103054 388.438829 
L 138.809487 389.050518 
L 139.427617 389.389552 
L 139.560073 390.031225 
L 157.176769 390.031225 
L 157.485834 374.731852 
L 157.750747 369.668367 
L 157.971507 368.523419 
L 158.059811 368.549314 
L 158.23642 369.140716 
L 158.589637 371.532402 
L 159.9142 381.348681 
L 160.576482 384.417348 
L 161.194612 386.330327 
L 161.856894 387.67361 
L 162.519175 388.532411 
L 163.269761 389.135159 
L 164.152804 389.542271 
L 165.212455 389.794924 
L 165.344911 390.031225 
L 171.702816 390.031225 
L 172.011881 383.113248 
L 172.276794 380.823672 
L 172.497554 380.305956 
L 172.630011 380.357687 
L 172.850771 380.805906 
L 173.336445 382.487966 
L 174.307791 385.757282 
L 174.970073 387.258287 
L 175.632355 388.254558 
L 176.338789 388.932549 
L 177.133527 389.393274 
L 178.149026 389.713219 
L 178.45809 378.103973 
L 178.723003 374.284421 
L 178.943764 373.441232 
L 179.032068 373.471823 
L 179.208676 373.942733 
L 179.561893 375.80014 
L 180.886457 383.408384 
L 181.548739 385.749091 
L 182.21102 387.291578 
L 182.873302 388.286308 
L 183.579736 388.955059 
L 184.374474 389.407078 
L 185.389973 389.720253 
L 186.184711 389.85098 
L 186.317168 390.031225 
L 199.07713 390.031225 
L 199.386195 370.425621 
L 199.651108 363.936945 
L 199.871868 362.469735 
L 199.960172 362.502918 
L 200.136781 363.260779 
L 200.489998 366.325639 
L 201.814561 378.904853 
L 202.476843 382.83724 
L 203.094973 385.288655 
L 203.713102 386.917567 
L 204.375384 388.051591 
L 205.081818 388.811271 
L 205.876556 389.323932 
L 206.847903 389.668039 
L 207.112816 389.728413 
L 207.245272 390.031225 
L 220.049387 390.031225 
L 220.358451 371.538939 
L 220.623364 365.418727 
L 220.844125 364.034834 
L 220.932429 364.066133 
L 221.109037 364.780958 
L 221.462254 367.671777 
L 222.786818 379.536672 
L 223.4491 383.245756 
L 224.067229 385.557965 
L 224.685359 387.094378 
L 225.347641 388.164006 
L 226.054075 388.880547 
L 226.848813 389.364096 
L 227.820159 389.688663 
L 228.085072 389.745609 
L 228.217529 390.031225 
L 234.531282 390.031225 
L 234.840346 385.129824 
L 235.105259 383.507655 
L 235.32602 383.140853 
L 235.502628 383.219581 
L 235.767541 383.679734 
L 237.798538 388.066593 
L 238.504972 388.809552 
L 239.29971 389.320134 
L 240.271057 389.665499 
L 241.595621 389.88379 
L 244.156444 390.031225 
L 249.057329 390.031225 
L 249.366394 339.383414 
L 249.631306 322.621001 
L 249.852067 318.830708 
L 249.896219 318.783496 
L 249.984523 319.209435 
L 250.161132 321.640632 
L 250.558501 331.160249 
L 251.706456 359.610562 
L 252.368738 370.318247 
L 252.986867 377.023913 
L 253.604997 381.487989 
L 254.223127 384.431763 
L 254.841256 386.364709 
L 255.459386 387.631455 
L 256.121668 388.50773 
L 256.828102 389.092995 
L 257.093014 389.248961 
L 257.181319 387.72651 
L 257.490384 383.056105 
L 257.755296 381.674515 
L 257.931905 381.494631 
L 258.108513 381.664853 
L 258.417578 382.421674 
L 260.051206 387.04787 
L 260.713488 388.11105 
L 261.419922 388.841405 
L 262.21466 389.33974 
L 263.186007 389.675806 
L 264.554723 389.892251 
L 265.172852 390.031225 
L 265.481917 323.04541 
L 265.74683 300.875767 
L 265.96759 295.8628 
L 266.011742 295.800358 
L 266.100047 296.363697 
L 266.276655 299.579151 
L 266.674024 312.169612 
L 267.821979 349.797445 
L 268.484261 363.959222 
L 269.102391 372.828005 
L 269.720521 378.732107 
L 270.33865 382.625484 
L 270.95678 385.181962 
L 271.57491 386.857336 
L 272.237191 388.01628 
L 272.899473 388.752167 
L 273.208538 388.996617 
L 273.340994 390.031225 
L 274.842166 390.031225 
L 275.151231 254.892595 
L 275.416144 210.167077 
L 275.636904 200.053809 
L 275.681057 199.927837 
L 275.769361 201.064329 
L 275.945969 207.551256 
L 276.343338 232.951524 
L 277.491293 308.862727 
L 278.153575 337.433003 
L 278.771705 355.325078 
L 279.389835 367.23614 
L 280.007964 375.090723 
L 280.626094 380.248218 
L 281.244224 383.628152 
L 281.862353 385.841198 
L 282.480483 387.28962 
L 282.877852 387.943985 
L 283.010308 390.031225 
L 303.850109 390.031225 
L 304.159173 384.443628 
L 304.424086 382.594355 
L 304.644847 382.1762 
L 304.821455 382.26595 
L 305.086368 382.790525 
L 307.073213 387.724834 
L 307.382278 368.08266 
L 307.647191 361.746129 
L 307.867951 360.461876 
L 307.956256 360.574476 
L 308.132864 361.49441 
L 308.530233 365.365806 
L 309.72234 377.59437 
L 310.384622 381.976954 
L 311.002752 384.718059 
L 311.620882 386.541919 
L 312.327315 387.942252 
L 312.989597 388.704268 
L 313.740183 389.238204 
L 314.667378 389.611482 
L 315.108899 389.721203 
L 315.241355 390.031225 
L 332.858051 390.031225 
L 333.167116 378.323879 
L 333.432028 374.449212 
L 333.652789 373.573078 
L 333.741093 373.592893 
L 333.917702 374.045444 
L 334.270919 375.875604 
L 335.595482 383.387191 
L 336.257764 385.735388 
L 336.920046 387.282812 
L 337.582328 388.280724 
L 338.288761 388.951615 
L 339.0835 389.40508 
L 339.30426 389.493061 
L 339.613325 251.656449 
L 339.878238 206.076332 
L 340.098998 195.804486 
L 340.14315 195.685214 
L 340.231455 196.863055 
L 340.408063 203.516939 
L 340.805432 229.503867 
L 341.953387 307.180479 
L 342.615669 336.342884 
L 343.233799 354.605779 
L 343.851928 366.763703 
L 344.470058 374.781076 
L 345.088188 380.045461 
L 345.706317 383.495446 
L 346.324447 385.754358 
L 346.942577 387.232799 
L 347.339946 387.900726 
L 347.958076 359.698971 
L 348.178836 358.590292 
L 348.26714 358.778255 
L 348.487901 360.226347 
L 348.973574 365.660695 
L 349.944921 376.2231 
L 350.607203 381.072501 
L 351.225332 384.117047 
L 351.843462 386.145914 
L 352.461592 387.484431 
L 353.123873 388.413227 
L 353.830307 389.034472 
L 354.669198 389.470668 
L 355.375632 389.686019 
L 355.508088 390.031225 
L 360.232365 390.031225 
L 360.541429 348.019216 
L 360.806342 334.11491 
L 361.027103 330.970889 
L 361.071255 330.931726 
L 361.159559 331.28504 
L 361.336168 333.301701 
L 361.733537 341.198158 
L 362.881492 364.797495 
L 363.543774 373.679446 
L 364.161903 379.241749 
L 364.780033 382.94467 
L 365.398163 385.38651 
L 366.016292 386.989876 
L 366.678574 388.100016 
L 367.385008 388.841794 
L 368.179746 389.341803 
L 368.26805 389.382342 
L 368.400507 390.031225 
L 373.124783 390.031225 
L 373.433848 380.695223 
L 373.698761 377.605377 
L 373.919522 376.906706 
L 374.051978 376.976517 
L 374.272738 377.581402 
L 374.758412 379.851388 
L 375.729758 384.26342 
L 376.39204 386.289068 
L 377.054322 387.633564 
L 377.716604 388.503169 
L 378.46719 389.116617 
L 379.350232 389.531907 
L 380.498187 389.804062 
L 381.160469 389.887029 
L 381.204621 390.031225 
L 381.513686 362.758429 
L 381.778599 353.732217 
L 381.999359 351.691223 
L 382.087664 351.737384 
L 382.22012 352.430819 
L 382.529185 355.832146 
L 384.118661 376.230384 
L 384.780943 381.141405 
L 385.399073 384.179604 
L 386.017202 386.192096 
L 386.635332 387.516225 
L 387.297614 388.43389 
L 388.004048 389.04733 
L 388.842938 389.477932 
L 389.240307 389.609992 
L 389.372763 390.031225 
L 390.873935 390.031225 
L 391.183 353.854217 
L 391.447913 341.881065 
L 391.668673 339.173713 
L 391.712826 339.13999 
L 391.756978 339.234945 
L 391.889434 340.154777 
L 392.198499 344.666593 
L 393.787975 371.724589 
L 394.450257 378.238994 
L 395.068387 382.269126 
L 395.686516 384.93867 
L 396.304646 386.69511 
L 396.966928 387.91238 
L 397.629209 388.685961 
L 398.379796 389.227451 
L 398.909621 389.472465 
L 399.042077 390.031225 
L 423.104982 390.031225 
L 423.414047 373.926622 
L 423.67896 368.596638 
L 423.89972 367.39143 
L 423.988025 367.418688 
L 424.164633 368.041215 
L 424.51785 370.558779 
L 425.842414 380.891705 
L 426.328087 383.383731 
L 426.637152 265.356317 
L 426.902064 226.767329 
L 427.122825 218.469809 
L 427.166977 218.473602 
L 427.255281 219.696679 
L 427.476042 227.920658 
L 428.005867 260.730293 
L 428.933062 315.216421 
L 429.595344 341.506953 
L 430.213473 358.001676 
L 430.831603 368.990698 
L 431.493885 376.845394 
L 432.112014 381.397172 
L 432.730144 384.380153 
L 433.348274 386.333291 
L 433.966403 387.611605 
L 434.363773 388.189119 
L 434.496229 390.031225 
L 447.256191 390.031225 
L 447.565256 380.585525 
L 447.830169 377.459374 
L 448.050929 376.752493 
L 448.183386 376.823125 
L 448.404146 377.435116 
L 448.88982 379.731775 
L 449.861166 384.195648 
L 450.523448 386.245098 
L 451.18573 387.605391 
L 451.848012 388.485215 
L 452.598598 389.10587 
L 453.437488 389.510509 
L 454.541291 389.787036 
L 455.291877 389.885335 
L 455.424333 390.031225 
L 465.005343 390.031225 
L 465.314408 385.241856 
L 465.579321 383.656765 
L 465.800081 383.298347 
L 465.97669 383.375275 
L 466.241603 383.824911 
L 466.594819 384.693445 
L 466.903884 377.779739 
L 467.168797 375.871703 
L 467.301253 375.704388 
L 467.345406 375.727957 
L 467.522014 376.112232 
L 467.875231 377.695983 
L 468.228448 379.640683 
L 468.537513 371.450842 
L 468.758273 369.601082 
L 468.89073 369.422991 
L 469.023186 369.70396 
L 469.288099 371.115694 
L 471.274944 384.026484 
L 471.937226 386.182329 
L 472.599508 387.577855 
L 473.350094 388.622491 
L 474.10068 389.18896 
L 474.674657 389.578678 
L 474.983722 383.678428 
L 475.248635 381.757908 
L 475.469395 381.352791 
L 475.601852 381.420351 
L 475.822612 381.841906 
L 476.264134 383.206945 
L 476.484894 384.079409 
L 477.323784 386.435419 
L 478.030218 387.768724 
L 478.736652 388.625786 
L 479.487238 389.18849 
L 480.370281 389.570792 
L 481.120867 389.756028 
L 481.429932 352.824033 
L 481.694844 340.620609 
L 481.915605 337.878914 
L 481.959757 337.849199 
L 482.003909 337.950892 
L 482.136365 338.904303 
L 482.44543 343.543036 
L 484.034907 371.315938 
L 484.697188 377.975761 
L 485.315318 382.095856 
L 485.933448 384.824991 
L 486.551577 386.62064 
L 487.169707 387.798497 
L 487.831989 388.613634 
L 488.582575 389.184231 
L 489.156552 389.459992 
L 489.289009 390.031225 
L 497.23639 390.031225 
L 497.545455 362.492353 
L 497.810368 353.378081 
L 498.031128 351.317175 
L 498.119433 351.363786 
L 498.251889 352.063986 
L 498.560954 355.498497 
L 500.15043 376.095741 
L 500.812712 381.054675 
L 501.430841 384.122515 
L 502.048971 386.154641 
L 502.667101 387.491688 
L 503.329383 388.418306 
L 504.035816 389.037731 
L 504.874707 389.472534 
L 505.272076 389.605882 
L 505.404532 390.031225 
L 524.610704 390.031225 
L 524.919769 379.654259 
L 525.184682 376.219895 
L 525.405442 375.443322 
L 525.537898 375.520917 
L 525.758659 376.193246 
L 526.244332 378.716336 
L 527.215679 383.62031 
L 527.877961 385.871817 
L 528.540243 387.366225 
L 529.202524 388.332791 
L 529.908958 388.983433 
L 530.747849 389.441585 
L 531.807499 389.746203 
L 532.64639 389.870951 
L 532.778846 390.031225 
L 534.280018 390.031225 
L 534.589083 348.952816 
L 534.853996 335.357495 
L 535.074756 332.283341 
L 535.118908 332.245049 
L 535.16306 332.352868 
L 535.295517 333.397323 
L 535.604582 338.520417 
L 537.194058 369.244335 
L 537.85634 376.641337 
L 538.474469 381.217487 
L 539.092599 384.248711 
L 539.710729 386.24312 
L 540.328858 387.551355 
L 540.726227 388.142931 
L 541.035292 372.006984 
L 541.300205 366.8011 
L 541.520966 365.745578 
L 541.60927 365.837858 
L 541.785878 366.593134 
L 542.183247 369.772509 
L 543.463659 380.669177 
L 544.125941 383.978001 
L 544.74407 386.040691 
L 545.3622 387.411304 
L 546.024482 388.365504 
L 546.730916 389.00472 
L 547.172437 389.272904 
L 547.481502 382.100693 
L 547.746414 379.78098 
L 547.967175 379.305293 
L 548.099631 379.398201 
L 548.320392 379.928706 
L 548.761913 381.621488 
L 548.982674 382.756783 
L 549.821564 385.636351 
L 550.483846 387.18329 
L 551.146128 388.207442 
L 551.852561 388.90367 
L 552.6473 389.376571 
L 553.662798 389.704907 
L 555.075666 389.907457 
L 557.85725 390.031225 
L 568.144693 390.031225 
L 568.453758 209.36558 
L 568.718671 149.57243 
L 568.939432 136.052091 
L 568.983584 135.883681 
L 569.071888 137.403047 
L 569.248496 146.075361 
L 569.645865 180.032756 
L 570.793821 281.517775 
L 571.456102 319.713125 
L 572.074232 343.632882 
L 572.692362 359.556676 
L 572.957274 364.599334 
L 573.222187 359.523105 
L 573.398796 358.854339 
L 573.4871 359.036564 
L 573.70786 360.465704 
L 574.193534 365.84997 
L 575.16488 376.327915 
L 575.827162 381.140175 
L 576.180379 383.012428 
L 576.312835 386.159834 
L 576.975117 387.553232 
L 577.637399 388.452648 
L 578.343833 389.057562 
L 579.182723 389.483348 
L 580.286526 389.774303 
L 580.99296 389.873006 
L 581.125416 390.031225 
L 589.072798 390.031225 
L 589.381863 382.714134 
L 589.646775 380.292467 
L 589.867536 379.744883 
L 589.999992 379.799598 
L 590.220753 380.273676 
L 590.706426 382.052778 
L 591.015491 374.891058 
L 591.280404 373.088992 
L 591.41286 373.030879 
L 591.589469 373.482034 
L 591.942686 375.35931 
L 593.311401 383.329669 
L 593.973683 385.702024 
L 594.635965 387.262502 
L 595.298247 388.268072 
L 596.004681 388.943891 
L 596.799419 389.400621 
L 598.07983 389.82729 
L 600.331588 390.031225 
L 610.045054 390.031225 
L 610.354119 249.991194 
L 610.619032 203.643507 
L 610.839793 193.163437 
L 610.883945 193.032896 
L 610.972249 194.210608 
L 611.148857 200.932811 
L 611.546226 227.254333 
L 612.694182 305.918792 
L 613.356463 335.525295 
L 613.974593 354.066305 
L 614.592723 366.409375 
L 615.210852 374.54884 
L 615.828982 379.893394 
L 616.447112 383.395916 
L 617.065241 385.689228 
L 617.683371 387.190183 
L 618.08074 387.868282 
L 618.213196 390.031225 
L 619.714368 390.031225 
L 620.023433 190.47418 
L 620.288346 124.428727 
L 620.509107 109.494627 
L 620.553259 109.308606 
L 620.641563 110.986845 
L 620.818171 120.565985 
L 621.215541 158.074154 
L 622.363496 270.171008 
L 623.025777 312.360275 
L 623.643907 338.781215 
L 624.262037 356.370088 
L 624.880166 367.968826 
L 625.498296 375.584815 
L 626.116426 380.575909 
L 626.734555 383.843879 
L 627.352685 385.982741 
L 627.750054 386.949031 
L 627.882511 390.031225 
L 629.383683 390.031225 
L 629.692747 383.262624 
L 629.95766 381.022486 
L 630.178421 380.515949 
L 630.310877 380.566562 
L 630.531638 381.005103 
L 631.061463 382.814328 
L 631.988658 385.849567 
L 632.606787 387.237351 
L 632.915852 377.647626 
L 633.180765 374.672771 
L 633.357373 374.180091 
L 633.445678 374.218951 
L 633.622286 374.682256 
L 633.975503 376.468359 
L 635.300067 383.680334 
L 635.962348 385.925997 
L 636.62463 387.40505 
L 637.286912 388.358659 
L 638.125802 389.153566 
L 639.008845 389.552156 
L 640.1568 389.813288 
L 640.642473 389.875061 
L 640.774929 390.031225 
L 647.088682 390.031225 
L 647.397747 314.643008 
L 647.66266 289.692504 
L 647.88342 284.050732 
L 647.927573 283.980458 
L 648.015877 284.614459 
L 648.192485 288.233246 
L 648.589854 302.402998 
L 649.737809 344.750699 
L 650.400091 360.688866 
L 651.018221 370.67011 
L 651.636351 377.314796 
L 652.25448 381.696541 
L 652.87261 384.573692 
L 653.49074 386.459217 
L 653.534892 386.565777 
L 653.843957 310.439251 
L 654.108869 285.491185 
L 654.32963 280.073175 
L 654.373782 280.061545 
L 654.462086 280.821912 
L 654.682847 286.054948 
L 655.124368 303.285471 
L 655.433433 317.316452 
L 656.228171 345.196784 
L 656.890453 361.011226 
L 657.508582 370.891679 
L 658.126712 377.462965 
L 658.744842 381.794446 
L 659.362971 384.638038 
L 659.981101 386.501403 
L 660.599231 387.72141 
L 661.261513 388.564987 
L 661.570577 388.845211 
L 661.703034 390.031225 
L 669.650415 390.031225 
L 669.95948 376.993498 
L 670.224393 372.678529 
L 670.445153 371.702834 
L 670.533458 371.724901 
L 670.710066 372.228878 
L 671.063283 374.26701 
L 672.387847 382.632187 
L 673.050128 385.247225 
L 673.71241 386.970492 
L 674.374692 388.081803 
L 675.081126 388.828932 
L 675.875864 389.333927 
L 676.847211 389.67312 
L 677.686101 389.829855 
L 677.818557 390.031225 
L 680.953358 390.031225 
L 681.262422 382.98021 
L 681.527335 380.646604 
L 681.748096 380.118932 
L 681.880552 380.171657 
L 682.101313 380.628496 
L 682.586986 382.342903 
L 683.558333 385.67509 
L 684.220614 387.204961 
L 684.882896 388.220392 
L 685.58933 388.91142 
L 685.765939 389.03867 
L 686.075003 377.91954 
L 686.339916 374.310234 
L 686.560677 373.558033 
L 686.648981 373.611003 
L 686.825589 374.109956 
L 687.222959 376.254642 
L 688.415066 383.077669 
L 689.165652 385.881837 
L 689.827934 387.376508 
L 690.490215 388.3404 
L 691.196649 388.98842 
L 692.03554 389.444466 
L 693.09519 389.74761 
L 693.801624 389.856568 
L 693.934081 390.031225 
L 695.435253 390.031225 
L 695.744318 342.884415 
L 696.00923 327.280694 
L 696.229991 323.752403 
L 696.274143 323.708454 
L 696.362447 324.104951 
L 696.539056 326.368093 
L 696.936425 335.229671 
L 698.08438 361.713373 
L 698.746662 371.680895 
L 699.364791 377.923036 
L 699.982921 382.078536 
L 700.601051 384.818822 
L 701.21918 386.618155 
L 701.83731 387.797338 
L 702.499592 388.613041 
L 703.250178 389.183916 
L 703.470938 389.303034 
L 703.603395 390.031225 
L 713.184405 390.031225 
L 713.493469 379.654259 
L 713.758382 376.219895 
L 713.979143 375.443322 
L 714.111599 375.520917 
L 714.33236 376.193246 
L 714.818033 378.716336 
L 715.78938 383.62031 
L 716.407509 385.747927 
L 716.716574 379.895025 
L 716.981487 378.262979 
L 717.158095 378.126307 
L 717.334704 378.435446 
L 717.687921 379.743832 
L 719.056636 385.328796 
L 719.718918 386.993222 
L 720.3812 388.088218 
L 721.087634 388.830649 
L 721.22009 388.934578 
L 721.396699 389.201354 
L 722.279741 389.577963 
L 723.471848 389.831135 
L 725.767759 390.031225 
L 730.889404 390.031225 
L 731.198469 326.079611 
L 731.463382 304.914167 
L 731.684142 300.128268 
L 731.728295 300.068655 
L 731.816599 300.606477 
L 731.993207 303.676283 
L 732.390576 315.696444 
L 733.538531 351.619881 
L 734.200813 365.140184 
L 734.818943 373.607245 
L 735.437073 379.243914 
L 735.746137 381.296499 
L 736.055202 373.858334 
L 736.320115 372.018633 
L 736.408419 371.944942 
L 736.452571 371.979364 
L 736.62918 372.478366 
L 736.982397 374.490027 
L 738.30696 382.737945 
L 739.366611 387.150963 
L 740.028893 388.19204 
L 740.558718 388.749873 
L 740.867783 384.092596 
L 741.132696 382.642473 
L 741.353457 382.397105 
L 741.530065 382.560621 
L 741.83913 383.247098 
L 743.428606 387.299337 
L 744.267496 388.569888 
L 745.018082 389.153143 
L 745.901125 389.551056 
L 747.04908 389.812639 
L 749.256686 390.031225 
L 761.530975 390.031225 
L 761.84004 382.795824 
L 762.104953 380.401193 
L 762.325713 379.859723 
L 762.458169 379.913827 
L 762.67893 380.382612 
L 763.164603 382.141851 
L 764.13595 385.561176 
L 764.798232 387.131053 
L 765.460514 388.173038 
L 766.166947 388.882137 
L 766.961686 389.364002 
L 767.933032 389.688401 
L 769.301748 389.897192 
L 769.566661 389.919473 
L 769.919878 375.082221 
L 770.18479 371.254116 
L 770.405551 370.56779 
L 770.538007 370.802925 
L 770.80292 372.101872 
L 771.685962 378.49556 
L 772.436548 382.825227 
L 773.09883 385.385494 
L 773.71696 386.972159 
L 774.379242 388.083569 
L 775.085676 388.830217 
L 775.880414 389.334723 
L 776.01287 389.395214 
L 776.321935 351.46785 
L 776.586848 338.960693 
L 776.807608 336.173559 
L 776.85176 336.149093 
L 776.940065 336.490108 
L 777.160825 339.002639 
L 777.602346 347.411828 
L 778.132172 358.308147 
L 778.838606 369.637446 
L 779.500887 376.871334 
L 780.119017 381.362657 
L 780.737147 384.342096 
L 781.355276 386.303739 
L 781.973406 387.590872 
L 782.635688 388.481759 
L 783.342122 389.076944 
L 784.048556 389.443554 
L 784.181012 390.031225 
L 787.315813 390.031225 
L 787.624877 382.181981 
L 787.88979 379.584194 
L 788.110551 378.996786 
L 788.243007 379.05548 
L 788.463768 379.564036 
L 788.949441 381.472527 
L 789.920788 385.181943 
L 790.583069 386.885006 
L 791.245351 388.015391 
L 791.951785 388.78465 
L 792.746523 389.307396 
L 793.71787 389.659316 
L 795.042433 389.881348 
L 795.351498 389.909992 
L 795.483955 390.031225 
L 796.985127 390.031225 
L 797.294191 378.057803 
L 797.559104 374.095075 
L 797.779865 373.199029 
L 797.868169 373.219295 
L 798.044777 373.682131 
L 798.397994 375.553885 
L 798.574603 376.686775 
L 798.883668 357.806054 
L 799.14858 352.5076 
L 799.281037 351.992701 
L 799.325189 352.036624 
L 799.457645 352.660128 
L 799.722558 355.382822 
L 801.576947 378.096173 
L 802.195077 382.137795 
L 802.813206 384.841356 
L 803.431336 386.628018 
L 804.093618 387.86875 
L 804.7559 388.657979 
L 805.020812 388.88616 
L 805.153269 389.154487 
L 806.036311 389.552887 
L 806.610289 389.708622 
L 806.654441 390.031225 
L 806.963506 386.997025 
L 807.228418 385.992825 
L 807.449179 385.765756 
L 807.669939 385.848039 
L 808.023156 386.293567 
L 809.524328 388.450962 
L 810.274914 389.071138 
L 811.157957 389.503771 
L 812.26176 389.783309 
L 813.93954 389.952785 
L 817.515862 390.031225 
L 825.993069 390.031225 
L 826.302134 378.323879 
L 826.567046 374.449212 
L 826.787807 373.573078 
L 826.876111 373.592893 
L 827.05272 374.045444 
L 827.405937 375.875604 
L 828.7305 383.387191 
L 829.392782 385.735388 
L 830.055064 387.282812 
L 830.717346 388.280724 
L 831.423779 388.951615 
L 832.218518 389.40508 
L 832.439278 389.493061 
L 832.748343 382.677903 
L 833.013256 380.460681 
L 833.234016 379.993989 
L 833.366473 380.072824 
L 833.587233 380.561088 
L 834.028755 382.140276 
L 834.249515 383.153571 
L 835.088405 385.876071 
L 835.750687 387.338632 
L 836.412969 388.306921 
L 837.119403 388.965173 
L 837.958293 389.430721 
L 839.017944 389.74084 
L 841.048941 390.031225 
L 848.554802 390.031225 
L 848.863867 378.589955 
L 849.128779 374.803349 
L 849.34954 373.947127 
L 849.437844 373.966492 
L 849.614453 374.408757 
L 849.96767 376.197322 
L 851.292233 383.538192 
L 851.954515 385.833021 
L 852.616797 387.345276 
L 853.279078 388.320508 
L 853.985512 388.976152 
L 854.824403 389.437563 
L 855.884053 389.744273 
L 856.590487 389.854513 
L 856.722944 390.031225 
L 859.813592 390.031225 
L 860.122657 346.385415 
L 860.38757 331.940387 
L 860.60833 328.674098 
L 860.652482 328.633413 
L 860.740787 329.000466 
L 860.917395 331.095553 
L 861.314764 339.299094 
L 862.462719 363.816184 
L 863.125001 373.043544 
L 863.743131 378.822159 
L 864.36126 382.669082 
L 864.97939 385.205882 
L 865.59752 386.871601 
L 866.259801 388.024913 
L 866.568866 383.273428 
L 866.833779 381.843753 
L 867.010387 381.639215 
L 867.186996 381.789149 
L 867.496061 382.51825 
L 867.849278 383.634342 
L 867.981734 384.680204 
L 868.908929 386.947103 
L 869.615362 388.090678 
L 870.321796 388.825781 
L 871.116535 389.329897 
L 872.087881 389.670587 
L 873.456597 389.890189 
L 876.105724 390.031225 
L 884.008953 390.031225 
L 884.318018 385.830024 
L 884.582931 384.439594 
L 884.803691 384.125192 
L 884.9803 384.192673 
L 885.289365 384.673226 
L 887.099602 388.138133 
L 887.806036 388.851132 
L 888.600774 389.3436 
L 888.821534 389.439832 
L 889.130599 384.651103 
L 889.395512 383.10834 
L 889.616272 382.797585 
L 889.792881 382.915446 
L 890.101946 383.534167 
L 891.823878 387.614883 
L 892.574464 388.612779 
L 893.32505 389.179183 
L 894.208093 389.565358 
L 895.4002 389.825487 
L 897.651958 390.031225 
L 903.347581 390.031225 
L 903.656646 314.176208 
L 903.921559 289.071211 
L 904.14232 283.394506 
L 904.186472 283.323797 
L 904.274776 283.961724 
L 904.451384 287.602918 
L 904.848754 301.860409 
L 905.996709 344.470324 
L 906.65899 360.50718 
L 907.27712 370.550227 
L 907.89525 377.236056 
L 908.513379 381.644933 
L 909.131509 384.5399 
L 909.749639 386.437099 
L 910.367768 387.67931 
L 911.03005 388.538256 
L 911.383267 388.859631 
L 911.515724 390.031225 
L 917.785324 390.031225 
L 917.785324 390.031225 
" style="fill:none;stroke:#000000;stroke-linecap:square;stroke-width:2;"/>
   </g>
  </g>
 </g>
 <defs>
  <clipPath id="p0e21f281bd">
   <rect height="380.52" width="892.8" x="41.145" y="13.27875"/>
  </clipPath>
 </defs>
</svg>
