<?xml version="1.0" encoding="utf-8" standalone="no"?>
<!DOCTYPE svg PUBLIC "-//W3C//DTD SVG 1.1//EN"
  "http://www.w3.org/Graphics/SVG/1.1/DTD/svg11.dtd">
<!-- Created with matplotlib (https://matplotlib.org/) -->
<svg height="424.98375pt" version="1.1" viewBox="0 0 946.145 424.98375" width="946.145pt" xmlns="http://www.w3.org/2000/svg" xmlns:xlink="http://www.w3.org/1999/xlink">
 <defs>
  <style type="text/css">
*{stroke-linecap:butt;stroke-linejoin:round;}
  </style>
 </defs>
 <g id="figure_1">
  <g id="patch_1">
   <path d="M 0 424.98375 
L 946.145 424.98375 
L 946.145 0 
L 0 0 
z
" style="fill:#ffffff;"/>
  </g>
  <g id="axes_1">
   <g id="patch_2">
    <path d="M 41.145 393.79875 
L 933.945 393.79875 
L 933.945 13.27875 
L 41.145 13.27875 
z
" style="fill:#ffffff;"/>
   </g>
   <g id="matplotlib.axis_1">
    <g id="xtick_1">
     <g id="line2d_1">
      <defs>
       <path d="M 0 5 
L 0 -5 
" id="m29f1ec04cb" style="stroke:#000000;stroke-width:0.8;"/>
      </defs>
      <g>
       <use style="stroke:#000000;stroke-width:0.8;" x="41.145" xlink:href="#m29f1ec04cb" y="393.79875"/>
      </g>
     </g>
     <g id="text_1">
      <!-- 1600 -->
      <defs>
       <path d="M 12.40625 8.296875 
L 28.515625 8.296875 
L 28.515625 63.921875 
L 10.984375 60.40625 
L 10.984375 69.390625 
L 28.421875 72.90625 
L 38.28125 72.90625 
L 38.28125 8.296875 
L 54.390625 8.296875 
L 54.390625 0 
L 12.40625 0 
z
" id="DejaVuSans-49"/>
       <path d="M 33.015625 40.375 
Q 26.375 40.375 22.484375 35.828125 
Q 18.609375 31.296875 18.609375 23.390625 
Q 18.609375 15.53125 22.484375 10.953125 
Q 26.375 6.390625 33.015625 6.390625 
Q 39.65625 6.390625 43.53125 10.953125 
Q 47.40625 15.53125 47.40625 23.390625 
Q 47.40625 31.296875 43.53125 35.828125 
Q 39.65625 40.375 33.015625 40.375 
z
M 52.59375 71.296875 
L 52.59375 62.3125 
Q 48.875 64.0625 45.09375 64.984375 
Q 41.3125 65.921875 37.59375 65.921875 
Q 27.828125 65.921875 22.671875 59.328125 
Q 17.53125 52.734375 16.796875 39.40625 
Q 19.671875 43.65625 24.015625 45.921875 
Q 28.375 48.1875 33.59375 48.1875 
Q 44.578125 48.1875 50.953125 41.515625 
Q 57.328125 34.859375 57.328125 23.390625 
Q 57.328125 12.15625 50.6875 5.359375 
Q 44.046875 -1.421875 33.015625 -1.421875 
Q 20.359375 -1.421875 13.671875 8.265625 
Q 6.984375 17.96875 6.984375 36.375 
Q 6.984375 53.65625 15.1875 63.9375 
Q 23.390625 74.21875 37.203125 74.21875 
Q 40.921875 74.21875 44.703125 73.484375 
Q 48.484375 72.75 52.59375 71.296875 
z
" id="DejaVuSans-54"/>
       <path d="M 31.78125 66.40625 
Q 24.171875 66.40625 20.328125 58.90625 
Q 16.5 51.421875 16.5 36.375 
Q 16.5 21.390625 20.328125 13.890625 
Q 24.171875 6.390625 31.78125 6.390625 
Q 39.453125 6.390625 43.28125 13.890625 
Q 47.125 21.390625 47.125 36.375 
Q 47.125 51.421875 43.28125 58.90625 
Q 39.453125 66.40625 31.78125 66.40625 
z
M 31.78125 74.21875 
Q 44.046875 74.21875 50.515625 64.515625 
Q 56.984375 54.828125 56.984375 36.375 
Q 56.984375 17.96875 50.515625 8.265625 
Q 44.046875 -1.421875 31.78125 -1.421875 
Q 19.53125 -1.421875 13.0625 8.265625 
Q 6.59375 17.96875 6.59375 36.375 
Q 6.59375 54.828125 13.0625 64.515625 
Q 19.53125 74.21875 31.78125 74.21875 
z
" id="DejaVuSans-48"/>
      </defs>
      <g transform="translate(20.785 414.45625)scale(0.16 -0.16)">
       <use xlink:href="#DejaVuSans-49"/>
       <use x="63.623047" xlink:href="#DejaVuSans-54"/>
       <use x="127.246094" xlink:href="#DejaVuSans-48"/>
       <use x="190.869141" xlink:href="#DejaVuSans-48"/>
      </g>
     </g>
    </g>
    <g id="xtick_2">
     <g id="line2d_2">
      <g>
       <use style="stroke:#000000;stroke-width:0.8;" x="150.023049" xlink:href="#m29f1ec04cb" y="393.79875"/>
      </g>
     </g>
     <g id="text_2">
      <!-- 1650 -->
      <defs>
       <path d="M 10.796875 72.90625 
L 49.515625 72.90625 
L 49.515625 64.59375 
L 19.828125 64.59375 
L 19.828125 46.734375 
Q 21.96875 47.46875 24.109375 47.828125 
Q 26.265625 48.1875 28.421875 48.1875 
Q 40.625 48.1875 47.75 41.5 
Q 54.890625 34.8125 54.890625 23.390625 
Q 54.890625 11.625 47.5625 5.09375 
Q 40.234375 -1.421875 26.90625 -1.421875 
Q 22.3125 -1.421875 17.546875 -0.640625 
Q 12.796875 0.140625 7.71875 1.703125 
L 7.71875 11.625 
Q 12.109375 9.234375 16.796875 8.0625 
Q 21.484375 6.890625 26.703125 6.890625 
Q 35.15625 6.890625 40.078125 11.328125 
Q 45.015625 15.765625 45.015625 23.390625 
Q 45.015625 31 40.078125 35.4375 
Q 35.15625 39.890625 26.703125 39.890625 
Q 22.75 39.890625 18.8125 39.015625 
Q 14.890625 38.140625 10.796875 36.28125 
z
" id="DejaVuSans-53"/>
      </defs>
      <g transform="translate(129.663049 414.45625)scale(0.16 -0.16)">
       <use xlink:href="#DejaVuSans-49"/>
       <use x="63.623047" xlink:href="#DejaVuSans-54"/>
       <use x="127.246094" xlink:href="#DejaVuSans-53"/>
       <use x="190.869141" xlink:href="#DejaVuSans-48"/>
      </g>
     </g>
    </g>
    <g id="xtick_3">
     <g id="line2d_3">
      <g>
       <use style="stroke:#000000;stroke-width:0.8;" x="258.901098" xlink:href="#m29f1ec04cb" y="393.79875"/>
      </g>
     </g>
     <g id="text_3">
      <!-- 1700 -->
      <defs>
       <path d="M 8.203125 72.90625 
L 55.078125 72.90625 
L 55.078125 68.703125 
L 28.609375 0 
L 18.3125 0 
L 43.21875 64.59375 
L 8.203125 64.59375 
z
" id="DejaVuSans-55"/>
      </defs>
      <g transform="translate(238.541098 414.45625)scale(0.16 -0.16)">
       <use xlink:href="#DejaVuSans-49"/>
       <use x="63.623047" xlink:href="#DejaVuSans-55"/>
       <use x="127.246094" xlink:href="#DejaVuSans-48"/>
       <use x="190.869141" xlink:href="#DejaVuSans-48"/>
      </g>
     </g>
    </g>
    <g id="xtick_4">
     <g id="line2d_4">
      <g>
       <use style="stroke:#000000;stroke-width:0.8;" x="367.779146" xlink:href="#m29f1ec04cb" y="393.79875"/>
      </g>
     </g>
     <g id="text_4">
      <!-- 1750 -->
      <g transform="translate(347.419146 414.45625)scale(0.16 -0.16)">
       <use xlink:href="#DejaVuSans-49"/>
       <use x="63.623047" xlink:href="#DejaVuSans-55"/>
       <use x="127.246094" xlink:href="#DejaVuSans-53"/>
       <use x="190.869141" xlink:href="#DejaVuSans-48"/>
      </g>
     </g>
    </g>
    <g id="xtick_5">
     <g id="line2d_5">
      <g>
       <use style="stroke:#000000;stroke-width:0.8;" x="476.657195" xlink:href="#m29f1ec04cb" y="393.79875"/>
      </g>
     </g>
     <g id="text_5">
      <!-- 1800 -->
      <defs>
       <path d="M 31.78125 34.625 
Q 24.75 34.625 20.71875 30.859375 
Q 16.703125 27.09375 16.703125 20.515625 
Q 16.703125 13.921875 20.71875 10.15625 
Q 24.75 6.390625 31.78125 6.390625 
Q 38.8125 6.390625 42.859375 10.171875 
Q 46.921875 13.96875 46.921875 20.515625 
Q 46.921875 27.09375 42.890625 30.859375 
Q 38.875 34.625 31.78125 34.625 
z
M 21.921875 38.8125 
Q 15.578125 40.375 12.03125 44.71875 
Q 8.5 49.078125 8.5 55.328125 
Q 8.5 64.0625 14.71875 69.140625 
Q 20.953125 74.21875 31.78125 74.21875 
Q 42.671875 74.21875 48.875 69.140625 
Q 55.078125 64.0625 55.078125 55.328125 
Q 55.078125 49.078125 51.53125 44.71875 
Q 48 40.375 41.703125 38.8125 
Q 48.828125 37.15625 52.796875 32.3125 
Q 56.78125 27.484375 56.78125 20.515625 
Q 56.78125 9.90625 50.3125 4.234375 
Q 43.84375 -1.421875 31.78125 -1.421875 
Q 19.734375 -1.421875 13.25 4.234375 
Q 6.78125 9.90625 6.78125 20.515625 
Q 6.78125 27.484375 10.78125 32.3125 
Q 14.796875 37.15625 21.921875 38.8125 
z
M 18.3125 54.390625 
Q 18.3125 48.734375 21.84375 45.5625 
Q 25.390625 42.390625 31.78125 42.390625 
Q 38.140625 42.390625 41.71875 45.5625 
Q 45.3125 48.734375 45.3125 54.390625 
Q 45.3125 60.0625 41.71875 63.234375 
Q 38.140625 66.40625 31.78125 66.40625 
Q 25.390625 66.40625 21.84375 63.234375 
Q 18.3125 60.0625 18.3125 54.390625 
z
" id="DejaVuSans-56"/>
      </defs>
      <g transform="translate(456.297195 414.45625)scale(0.16 -0.16)">
       <use xlink:href="#DejaVuSans-49"/>
       <use x="63.623047" xlink:href="#DejaVuSans-56"/>
       <use x="127.246094" xlink:href="#DejaVuSans-48"/>
       <use x="190.869141" xlink:href="#DejaVuSans-48"/>
      </g>
     </g>
    </g>
    <g id="xtick_6">
     <g id="line2d_6">
      <g>
       <use style="stroke:#000000;stroke-width:0.8;" x="585.535244" xlink:href="#m29f1ec04cb" y="393.79875"/>
      </g>
     </g>
     <g id="text_6">
      <!-- 1850 -->
      <g transform="translate(565.175244 414.45625)scale(0.16 -0.16)">
       <use xlink:href="#DejaVuSans-49"/>
       <use x="63.623047" xlink:href="#DejaVuSans-56"/>
       <use x="127.246094" xlink:href="#DejaVuSans-53"/>
       <use x="190.869141" xlink:href="#DejaVuSans-48"/>
      </g>
     </g>
    </g>
    <g id="xtick_7">
     <g id="line2d_7">
      <g>
       <use style="stroke:#000000;stroke-width:0.8;" x="694.413293" xlink:href="#m29f1ec04cb" y="393.79875"/>
      </g>
     </g>
     <g id="text_7">
      <!-- 1900 -->
      <defs>
       <path d="M 10.984375 1.515625 
L 10.984375 10.5 
Q 14.703125 8.734375 18.5 7.8125 
Q 22.3125 6.890625 25.984375 6.890625 
Q 35.75 6.890625 40.890625 13.453125 
Q 46.046875 20.015625 46.78125 33.40625 
Q 43.953125 29.203125 39.59375 26.953125 
Q 35.25 24.703125 29.984375 24.703125 
Q 19.046875 24.703125 12.671875 31.3125 
Q 6.296875 37.9375 6.296875 49.421875 
Q 6.296875 60.640625 12.9375 67.421875 
Q 19.578125 74.21875 30.609375 74.21875 
Q 43.265625 74.21875 49.921875 64.515625 
Q 56.59375 54.828125 56.59375 36.375 
Q 56.59375 19.140625 48.40625 8.859375 
Q 40.234375 -1.421875 26.421875 -1.421875 
Q 22.703125 -1.421875 18.890625 -0.6875 
Q 15.09375 0.046875 10.984375 1.515625 
z
M 30.609375 32.421875 
Q 37.25 32.421875 41.125 36.953125 
Q 45.015625 41.5 45.015625 49.421875 
Q 45.015625 57.28125 41.125 61.84375 
Q 37.25 66.40625 30.609375 66.40625 
Q 23.96875 66.40625 20.09375 61.84375 
Q 16.21875 57.28125 16.21875 49.421875 
Q 16.21875 41.5 20.09375 36.953125 
Q 23.96875 32.421875 30.609375 32.421875 
z
" id="DejaVuSans-57"/>
      </defs>
      <g transform="translate(674.053293 414.45625)scale(0.16 -0.16)">
       <use xlink:href="#DejaVuSans-49"/>
       <use x="63.623047" xlink:href="#DejaVuSans-57"/>
       <use x="127.246094" xlink:href="#DejaVuSans-48"/>
       <use x="190.869141" xlink:href="#DejaVuSans-48"/>
      </g>
     </g>
    </g>
    <g id="xtick_8">
     <g id="line2d_8">
      <g>
       <use style="stroke:#000000;stroke-width:0.8;" x="803.291341" xlink:href="#m29f1ec04cb" y="393.79875"/>
      </g>
     </g>
     <g id="text_8">
      <!-- 1950 -->
      <g transform="translate(782.931341 414.45625)scale(0.16 -0.16)">
       <use xlink:href="#DejaVuSans-49"/>
       <use x="63.623047" xlink:href="#DejaVuSans-57"/>
       <use x="127.246094" xlink:href="#DejaVuSans-53"/>
       <use x="190.869141" xlink:href="#DejaVuSans-48"/>
      </g>
     </g>
    </g>
    <g id="xtick_9">
     <g id="line2d_9">
      <g>
       <use style="stroke:#000000;stroke-width:0.8;" x="912.16939" xlink:href="#m29f1ec04cb" y="393.79875"/>
      </g>
     </g>
     <g id="text_9">
      <!-- 2000 -->
      <defs>
       <path d="M 19.1875 8.296875 
L 53.609375 8.296875 
L 53.609375 0 
L 7.328125 0 
L 7.328125 8.296875 
Q 12.9375 14.109375 22.625 23.890625 
Q 32.328125 33.6875 34.8125 36.53125 
Q 39.546875 41.84375 41.421875 45.53125 
Q 43.3125 49.21875 43.3125 52.78125 
Q 43.3125 58.59375 39.234375 62.25 
Q 35.15625 65.921875 28.609375 65.921875 
Q 23.96875 65.921875 18.8125 64.3125 
Q 13.671875 62.703125 7.8125 59.421875 
L 7.8125 69.390625 
Q 13.765625 71.78125 18.9375 73 
Q 24.125 74.21875 28.421875 74.21875 
Q 39.75 74.21875 46.484375 68.546875 
Q 53.21875 62.890625 53.21875 53.421875 
Q 53.21875 48.921875 51.53125 44.890625 
Q 49.859375 40.875 45.40625 35.40625 
Q 44.1875 33.984375 37.640625 27.21875 
Q 31.109375 20.453125 19.1875 8.296875 
z
" id="DejaVuSans-50"/>
      </defs>
      <g transform="translate(891.80939 414.45625)scale(0.16 -0.16)">
       <use xlink:href="#DejaVuSans-50"/>
       <use x="63.623047" xlink:href="#DejaVuSans-48"/>
       <use x="127.246094" xlink:href="#DejaVuSans-48"/>
       <use x="190.869141" xlink:href="#DejaVuSans-48"/>
      </g>
     </g>
    </g>
    <g id="xtick_10">
     <g id="line2d_10">
      <defs>
       <path d="M 0 2.5 
L 0 -2.5 
" id="m4fc47bf30b" style="stroke:#000000;stroke-width:0.6;"/>
      </defs>
      <g>
       <use style="stroke:#000000;stroke-width:0.6;" x="62.92061" xlink:href="#m4fc47bf30b" y="393.79875"/>
      </g>
     </g>
    </g>
    <g id="xtick_11">
     <g id="line2d_11">
      <g>
       <use style="stroke:#000000;stroke-width:0.6;" x="84.69622" xlink:href="#m4fc47bf30b" y="393.79875"/>
      </g>
     </g>
    </g>
    <g id="xtick_12">
     <g id="line2d_12">
      <g>
       <use style="stroke:#000000;stroke-width:0.6;" x="106.471829" xlink:href="#m4fc47bf30b" y="393.79875"/>
      </g>
     </g>
    </g>
    <g id="xtick_13">
     <g id="line2d_13">
      <g>
       <use style="stroke:#000000;stroke-width:0.6;" x="128.247439" xlink:href="#m4fc47bf30b" y="393.79875"/>
      </g>
     </g>
    </g>
    <g id="xtick_14">
     <g id="line2d_14">
      <g>
       <use style="stroke:#000000;stroke-width:0.6;" x="171.798659" xlink:href="#m4fc47bf30b" y="393.79875"/>
      </g>
     </g>
    </g>
    <g id="xtick_15">
     <g id="line2d_15">
      <g>
       <use style="stroke:#000000;stroke-width:0.6;" x="193.574268" xlink:href="#m4fc47bf30b" y="393.79875"/>
      </g>
     </g>
    </g>
    <g id="xtick_16">
     <g id="line2d_16">
      <g>
       <use style="stroke:#000000;stroke-width:0.6;" x="215.349878" xlink:href="#m4fc47bf30b" y="393.79875"/>
      </g>
     </g>
    </g>
    <g id="xtick_17">
     <g id="line2d_17">
      <g>
       <use style="stroke:#000000;stroke-width:0.6;" x="237.125488" xlink:href="#m4fc47bf30b" y="393.79875"/>
      </g>
     </g>
    </g>
    <g id="xtick_18">
     <g id="line2d_18">
      <g>
       <use style="stroke:#000000;stroke-width:0.6;" x="280.676707" xlink:href="#m4fc47bf30b" y="393.79875"/>
      </g>
     </g>
    </g>
    <g id="xtick_19">
     <g id="line2d_19">
      <g>
       <use style="stroke:#000000;stroke-width:0.6;" x="302.452317" xlink:href="#m4fc47bf30b" y="393.79875"/>
      </g>
     </g>
    </g>
    <g id="xtick_20">
     <g id="line2d_20">
      <g>
       <use style="stroke:#000000;stroke-width:0.6;" x="324.227927" xlink:href="#m4fc47bf30b" y="393.79875"/>
      </g>
     </g>
    </g>
    <g id="xtick_21">
     <g id="line2d_21">
      <g>
       <use style="stroke:#000000;stroke-width:0.6;" x="346.003537" xlink:href="#m4fc47bf30b" y="393.79875"/>
      </g>
     </g>
    </g>
    <g id="xtick_22">
     <g id="line2d_22">
      <g>
       <use style="stroke:#000000;stroke-width:0.6;" x="389.554756" xlink:href="#m4fc47bf30b" y="393.79875"/>
      </g>
     </g>
    </g>
    <g id="xtick_23">
     <g id="line2d_23">
      <g>
       <use style="stroke:#000000;stroke-width:0.6;" x="411.330366" xlink:href="#m4fc47bf30b" y="393.79875"/>
      </g>
     </g>
    </g>
    <g id="xtick_24">
     <g id="line2d_24">
      <g>
       <use style="stroke:#000000;stroke-width:0.6;" x="433.105976" xlink:href="#m4fc47bf30b" y="393.79875"/>
      </g>
     </g>
    </g>
    <g id="xtick_25">
     <g id="line2d_25">
      <g>
       <use style="stroke:#000000;stroke-width:0.6;" x="454.881585" xlink:href="#m4fc47bf30b" y="393.79875"/>
      </g>
     </g>
    </g>
    <g id="xtick_26">
     <g id="line2d_26">
      <g>
       <use style="stroke:#000000;stroke-width:0.6;" x="498.432805" xlink:href="#m4fc47bf30b" y="393.79875"/>
      </g>
     </g>
    </g>
    <g id="xtick_27">
     <g id="line2d_27">
      <g>
       <use style="stroke:#000000;stroke-width:0.6;" x="520.208415" xlink:href="#m4fc47bf30b" y="393.79875"/>
      </g>
     </g>
    </g>
    <g id="xtick_28">
     <g id="line2d_28">
      <g>
       <use style="stroke:#000000;stroke-width:0.6;" x="541.984024" xlink:href="#m4fc47bf30b" y="393.79875"/>
      </g>
     </g>
    </g>
    <g id="xtick_29">
     <g id="line2d_29">
      <g>
       <use style="stroke:#000000;stroke-width:0.6;" x="563.759634" xlink:href="#m4fc47bf30b" y="393.79875"/>
      </g>
     </g>
    </g>
    <g id="xtick_30">
     <g id="line2d_30">
      <g>
       <use style="stroke:#000000;stroke-width:0.6;" x="607.310854" xlink:href="#m4fc47bf30b" y="393.79875"/>
      </g>
     </g>
    </g>
    <g id="xtick_31">
     <g id="line2d_31">
      <g>
       <use style="stroke:#000000;stroke-width:0.6;" x="629.086463" xlink:href="#m4fc47bf30b" y="393.79875"/>
      </g>
     </g>
    </g>
    <g id="xtick_32">
     <g id="line2d_32">
      <g>
       <use style="stroke:#000000;stroke-width:0.6;" x="650.862073" xlink:href="#m4fc47bf30b" y="393.79875"/>
      </g>
     </g>
    </g>
    <g id="xtick_33">
     <g id="line2d_33">
      <g>
       <use style="stroke:#000000;stroke-width:0.6;" x="672.637683" xlink:href="#m4fc47bf30b" y="393.79875"/>
      </g>
     </g>
    </g>
    <g id="xtick_34">
     <g id="line2d_34">
      <g>
       <use style="stroke:#000000;stroke-width:0.6;" x="716.188902" xlink:href="#m4fc47bf30b" y="393.79875"/>
      </g>
     </g>
    </g>
    <g id="xtick_35">
     <g id="line2d_35">
      <g>
       <use style="stroke:#000000;stroke-width:0.6;" x="737.964512" xlink:href="#m4fc47bf30b" y="393.79875"/>
      </g>
     </g>
    </g>
    <g id="xtick_36">
     <g id="line2d_36">
      <g>
       <use style="stroke:#000000;stroke-width:0.6;" x="759.740122" xlink:href="#m4fc47bf30b" y="393.79875"/>
      </g>
     </g>
    </g>
    <g id="xtick_37">
     <g id="line2d_37">
      <g>
       <use style="stroke:#000000;stroke-width:0.6;" x="781.515732" xlink:href="#m4fc47bf30b" y="393.79875"/>
      </g>
     </g>
    </g>
    <g id="xtick_38">
     <g id="line2d_38">
      <g>
       <use style="stroke:#000000;stroke-width:0.6;" x="825.066951" xlink:href="#m4fc47bf30b" y="393.79875"/>
      </g>
     </g>
    </g>
    <g id="xtick_39">
     <g id="line2d_39">
      <g>
       <use style="stroke:#000000;stroke-width:0.6;" x="846.842561" xlink:href="#m4fc47bf30b" y="393.79875"/>
      </g>
     </g>
    </g>
    <g id="xtick_40">
     <g id="line2d_40">
      <g>
       <use style="stroke:#000000;stroke-width:0.6;" x="868.618171" xlink:href="#m4fc47bf30b" y="393.79875"/>
      </g>
     </g>
    </g>
    <g id="xtick_41">
     <g id="line2d_41">
      <g>
       <use style="stroke:#000000;stroke-width:0.6;" x="890.39378" xlink:href="#m4fc47bf30b" y="393.79875"/>
      </g>
     </g>
    </g>
    <g id="xtick_42">
     <g id="line2d_42">
      <g>
       <use style="stroke:#000000;stroke-width:0.6;" x="933.945" xlink:href="#m4fc47bf30b" y="393.79875"/>
      </g>
     </g>
    </g>
   </g>
   <g id="matplotlib.axis_2">
    <g id="ytick_1">
     <g id="line2d_43">
      <defs>
       <path d="M 5 0 
L -5 -0 
" id="m4df52fe9a7" style="stroke:#000000;stroke-width:0.8;"/>
      </defs>
      <g>
       <use style="stroke:#000000;stroke-width:0.8;" x="41.145" xlink:href="#m4df52fe9a7" y="390.031225"/>
      </g>
     </g>
     <g id="text_10">
      <!-- 0.0 -->
      <defs>
       <path d="M 10.6875 12.40625 
L 21 12.40625 
L 21 0 
L 10.6875 0 
z
" id="DejaVuSans-46"/>
      </defs>
      <g transform="translate(7.2 396.109975)scale(0.16 -0.16)">
       <use xlink:href="#DejaVuSans-48"/>
       <use x="63.623047" xlink:href="#DejaVuSans-46"/>
       <use x="95.410156" xlink:href="#DejaVuSans-48"/>
      </g>
     </g>
    </g>
    <g id="ytick_2">
     <g id="line2d_44">
      <g>
       <use style="stroke:#000000;stroke-width:0.8;" x="41.145" xlink:href="#m4df52fe9a7" y="314.68073"/>
      </g>
     </g>
     <g id="text_11">
      <!-- 0.1 -->
      <g transform="translate(7.2 320.75948)scale(0.16 -0.16)">
       <use xlink:href="#DejaVuSans-48"/>
       <use x="63.623047" xlink:href="#DejaVuSans-46"/>
       <use x="95.410156" xlink:href="#DejaVuSans-49"/>
      </g>
     </g>
    </g>
    <g id="ytick_3">
     <g id="line2d_45">
      <g>
       <use style="stroke:#000000;stroke-width:0.8;" x="41.145" xlink:href="#m4df52fe9a7" y="239.330235"/>
      </g>
     </g>
     <g id="text_12">
      <!-- 0.2 -->
      <g transform="translate(7.2 245.408985)scale(0.16 -0.16)">
       <use xlink:href="#DejaVuSans-48"/>
       <use x="63.623047" xlink:href="#DejaVuSans-46"/>
       <use x="95.410156" xlink:href="#DejaVuSans-50"/>
      </g>
     </g>
    </g>
    <g id="ytick_4">
     <g id="line2d_46">
      <g>
       <use style="stroke:#000000;stroke-width:0.8;" x="41.145" xlink:href="#m4df52fe9a7" y="163.97974"/>
      </g>
     </g>
     <g id="text_13">
      <!-- 0.3 -->
      <defs>
       <path d="M 40.578125 39.3125 
Q 47.65625 37.796875 51.625 33 
Q 55.609375 28.21875 55.609375 21.1875 
Q 55.609375 10.40625 48.1875 4.484375 
Q 40.765625 -1.421875 27.09375 -1.421875 
Q 22.515625 -1.421875 17.65625 -0.515625 
Q 12.796875 0.390625 7.625 2.203125 
L 7.625 11.71875 
Q 11.71875 9.328125 16.59375 8.109375 
Q 21.484375 6.890625 26.8125 6.890625 
Q 36.078125 6.890625 40.9375 10.546875 
Q 45.796875 14.203125 45.796875 21.1875 
Q 45.796875 27.640625 41.28125 31.265625 
Q 36.765625 34.90625 28.71875 34.90625 
L 20.21875 34.90625 
L 20.21875 43.015625 
L 29.109375 43.015625 
Q 36.375 43.015625 40.234375 45.921875 
Q 44.09375 48.828125 44.09375 54.296875 
Q 44.09375 59.90625 40.109375 62.90625 
Q 36.140625 65.921875 28.71875 65.921875 
Q 24.65625 65.921875 20.015625 65.03125 
Q 15.375 64.15625 9.8125 62.3125 
L 9.8125 71.09375 
Q 15.4375 72.65625 20.34375 73.4375 
Q 25.25 74.21875 29.59375 74.21875 
Q 40.828125 74.21875 47.359375 69.109375 
Q 53.90625 64.015625 53.90625 55.328125 
Q 53.90625 49.265625 50.4375 45.09375 
Q 46.96875 40.921875 40.578125 39.3125 
z
" id="DejaVuSans-51"/>
      </defs>
      <g transform="translate(7.2 170.05849)scale(0.16 -0.16)">
       <use xlink:href="#DejaVuSans-48"/>
       <use x="63.623047" xlink:href="#DejaVuSans-46"/>
       <use x="95.410156" xlink:href="#DejaVuSans-51"/>
      </g>
     </g>
    </g>
    <g id="ytick_5">
     <g id="line2d_47">
      <g>
       <use style="stroke:#000000;stroke-width:0.8;" x="41.145" xlink:href="#m4df52fe9a7" y="88.629245"/>
      </g>
     </g>
     <g id="text_14">
      <!-- 0.4 -->
      <defs>
       <path d="M 37.796875 64.3125 
L 12.890625 25.390625 
L 37.796875 25.390625 
z
M 35.203125 72.90625 
L 47.609375 72.90625 
L 47.609375 25.390625 
L 58.015625 25.390625 
L 58.015625 17.1875 
L 47.609375 17.1875 
L 47.609375 0 
L 37.796875 0 
L 37.796875 17.1875 
L 4.890625 17.1875 
L 4.890625 26.703125 
z
" id="DejaVuSans-52"/>
      </defs>
      <g transform="translate(7.2 94.707995)scale(0.16 -0.16)">
       <use xlink:href="#DejaVuSans-48"/>
       <use x="63.623047" xlink:href="#DejaVuSans-46"/>
       <use x="95.410156" xlink:href="#DejaVuSans-52"/>
      </g>
     </g>
    </g>
    <g id="ytick_6">
     <g id="line2d_48">
      <g>
       <use style="stroke:#000000;stroke-width:0.8;" x="41.145" xlink:href="#m4df52fe9a7" y="13.27875"/>
      </g>
     </g>
     <g id="text_15">
      <!-- 0.5 -->
      <g transform="translate(7.2 19.3575)scale(0.16 -0.16)">
       <use xlink:href="#DejaVuSans-48"/>
       <use x="63.623047" xlink:href="#DejaVuSans-46"/>
       <use x="95.410156" xlink:href="#DejaVuSans-53"/>
      </g>
     </g>
    </g>
    <g id="ytick_7">
     <g id="line2d_49">
      <defs>
       <path d="M 2.5 0 
L -2.5 -0 
" id="m864a7c1664" style="stroke:#000000;stroke-width:0.6;"/>
      </defs>
      <g>
       <use style="stroke:#000000;stroke-width:0.6;" x="41.145" xlink:href="#m864a7c1664" y="374.961126"/>
      </g>
     </g>
    </g>
    <g id="ytick_8">
     <g id="line2d_50">
      <g>
       <use style="stroke:#000000;stroke-width:0.6;" x="41.145" xlink:href="#m864a7c1664" y="359.891027"/>
      </g>
     </g>
    </g>
    <g id="ytick_9">
     <g id="line2d_51">
      <g>
       <use style="stroke:#000000;stroke-width:0.6;" x="41.145" xlink:href="#m864a7c1664" y="344.820928"/>
      </g>
     </g>
    </g>
    <g id="ytick_10">
     <g id="line2d_52">
      <g>
       <use style="stroke:#000000;stroke-width:0.6;" x="41.145" xlink:href="#m864a7c1664" y="329.750829"/>
      </g>
     </g>
    </g>
    <g id="ytick_11">
     <g id="line2d_53">
      <g>
       <use style="stroke:#000000;stroke-width:0.6;" x="41.145" xlink:href="#m864a7c1664" y="299.610631"/>
      </g>
     </g>
    </g>
    <g id="ytick_12">
     <g id="line2d_54">
      <g>
       <use style="stroke:#000000;stroke-width:0.6;" x="41.145" xlink:href="#m864a7c1664" y="284.540532"/>
      </g>
     </g>
    </g>
    <g id="ytick_13">
     <g id="line2d_55">
      <g>
       <use style="stroke:#000000;stroke-width:0.6;" x="41.145" xlink:href="#m864a7c1664" y="269.470433"/>
      </g>
     </g>
    </g>
    <g id="ytick_14">
     <g id="line2d_56">
      <g>
       <use style="stroke:#000000;stroke-width:0.6;" x="41.145" xlink:href="#m864a7c1664" y="254.400334"/>
      </g>
     </g>
    </g>
    <g id="ytick_15">
     <g id="line2d_57">
      <g>
       <use style="stroke:#000000;stroke-width:0.6;" x="41.145" xlink:href="#m864a7c1664" y="224.260136"/>
      </g>
     </g>
    </g>
    <g id="ytick_16">
     <g id="line2d_58">
      <g>
       <use style="stroke:#000000;stroke-width:0.6;" x="41.145" xlink:href="#m864a7c1664" y="209.190037"/>
      </g>
     </g>
    </g>
    <g id="ytick_17">
     <g id="line2d_59">
      <g>
       <use style="stroke:#000000;stroke-width:0.6;" x="41.145" xlink:href="#m864a7c1664" y="194.119938"/>
      </g>
     </g>
    </g>
    <g id="ytick_18">
     <g id="line2d_60">
      <g>
       <use style="stroke:#000000;stroke-width:0.6;" x="41.145" xlink:href="#m864a7c1664" y="179.049839"/>
      </g>
     </g>
    </g>
    <g id="ytick_19">
     <g id="line2d_61">
      <g>
       <use style="stroke:#000000;stroke-width:0.6;" x="41.145" xlink:href="#m864a7c1664" y="148.909641"/>
      </g>
     </g>
    </g>
    <g id="ytick_20">
     <g id="line2d_62">
      <g>
       <use style="stroke:#000000;stroke-width:0.6;" x="41.145" xlink:href="#m864a7c1664" y="133.839542"/>
      </g>
     </g>
    </g>
    <g id="ytick_21">
     <g id="line2d_63">
      <g>
       <use style="stroke:#000000;stroke-width:0.6;" x="41.145" xlink:href="#m864a7c1664" y="118.769443"/>
      </g>
     </g>
    </g>
    <g id="ytick_22">
     <g id="line2d_64">
      <g>
       <use style="stroke:#000000;stroke-width:0.6;" x="41.145" xlink:href="#m864a7c1664" y="103.699344"/>
      </g>
     </g>
    </g>
    <g id="ytick_23">
     <g id="line2d_65">
      <g>
       <use style="stroke:#000000;stroke-width:0.6;" x="41.145" xlink:href="#m864a7c1664" y="73.559146"/>
      </g>
     </g>
    </g>
    <g id="ytick_24">
     <g id="line2d_66">
      <g>
       <use style="stroke:#000000;stroke-width:0.6;" x="41.145" xlink:href="#m864a7c1664" y="58.489047"/>
      </g>
     </g>
    </g>
    <g id="ytick_25">
     <g id="line2d_67">
      <g>
       <use style="stroke:#000000;stroke-width:0.6;" x="41.145" xlink:href="#m864a7c1664" y="43.418948"/>
      </g>
     </g>
    </g>
    <g id="ytick_26">
     <g id="line2d_68">
      <g>
       <use style="stroke:#000000;stroke-width:0.6;" x="41.145" xlink:href="#m864a7c1664" y="28.348849"/>
      </g>
     </g>
    </g>
   </g>
   <g id="line2d_69">
    <path clip-path="url(#p0dc10e0e01)" d="M 41.085341 388.964788 
L 41.145 388.996617 
L 41.264318 390.031225 
L 43.352391 390.031225 
L 43.710346 267.475833 
L 44.068301 214.634484 
L 44.306938 201.98898 
L 44.485915 199.927837 
L 44.605234 201.064329 
L 44.843871 207.551256 
L 45.321144 229.766873 
L 46.812624 304.166222 
L 47.588194 330.887656 
L 48.304105 348.522948 
L 49.020015 361.036029 
L 49.735925 369.825078 
L 50.451836 375.967089 
L 51.167746 380.248218 
L 51.883657 383.22834 
L 52.599567 385.301424 
L 53.315478 386.743042 
L 54.091047 387.813584 
L 54.210366 387.943985 
L 54.329684 390.031225 
L 82.548488 390.031225 
L 82.906443 384.963909 
L 83.264399 382.77907 
L 83.562695 382.203717 
L 83.741672 382.185658 
L 83.980309 382.401648 
L 84.397923 383.148185 
L 86.307018 386.949377 
L 86.90361 387.724834 
L 87.261565 369.895262 
L 87.619521 362.362176 
L 87.858157 360.665943 
L 88.037135 360.483055 
L 88.216113 360.937049 
L 88.514409 362.598272 
L 89.230319 368.395136 
L 90.244526 376.117058 
L 91.020095 380.429373 
L 91.736006 383.286861 
L 92.451916 385.318047 
L 93.167827 386.74601 
L 94.062715 388.004457 
L 94.897944 388.704268 
L 95.852491 389.213816 
L 97.045675 389.58526 
L 97.761585 389.721203 
L 97.880904 390.031225 
L 121.744586 390.031225 
L 122.102541 379.413991 
L 122.460496 374.836233 
L 122.699133 373.740726 
L 122.878111 373.562165 
L 123.057088 373.761125 
L 123.355384 374.63248 
L 124.011635 377.548481 
L 125.14516 382.381881 
L 125.92073 384.755808 
L 126.6963 386.435275 
L 127.471869 387.593611 
L 128.307098 388.432196 
L 129.201986 389.014988 
L 130.275852 389.441877 
L 130.45483 389.493061 
L 130.812785 264.487092 
L 131.17074 210.625163 
L 131.409377 197.760276 
L 131.588354 195.685214 
L 131.707673 196.863055 
L 131.94631 203.516939 
L 132.423583 226.247303 
L 133.915063 302.386637 
L 134.690633 329.661882 
L 135.406544 347.662672 
L 136.122454 360.435092 
L 136.838365 369.406298 
L 137.554275 375.675604 
L 138.270185 380.045461 
L 138.986096 383.087347 
L 139.702006 385.203397 
L 140.417917 386.674893 
L 141.193486 387.767623 
L 141.312805 387.900726 
L 142.088375 360.283745 
L 142.327011 358.721193 
L 142.44633 358.590292 
L 142.565648 358.778255 
L 142.804285 359.851118 
L 143.281559 363.525328 
L 144.773039 375.830133 
L 145.548608 380.249553 
L 146.264519 383.166229 
L 146.980429 385.23575 
L 147.69634 386.689359 
L 148.471909 387.774442 
L 149.307138 388.553673 
L 150.261686 389.121049 
L 151.39521 389.519372 
L 152.17078 389.686019 
L 152.290099 390.031225 
L 158.733293 390.031225 
L 159.091248 351.931103 
L 159.449203 335.503741 
L 159.68784 331.572496 
L 159.866818 330.931726 
L 159.986136 331.28504 
L 160.224773 333.301701 
L 160.702046 340.208111 
L 162.193527 363.337442 
L 162.969096 371.644623 
L 163.685007 377.127097 
L 164.400917 381.017174 
L 165.116828 383.749522 
L 165.832738 385.658955 
L 166.548649 386.989876 
L 167.324218 387.979425 
L 168.159447 388.68856 
L 169.113994 389.20435 
L 169.591268 389.382342 
L 169.710586 390.031225 
L 176.15378 390.031225 
L 176.511736 381.564532 
L 176.869691 377.914007 
L 177.167987 376.952682 
L 177.346965 376.922508 
L 177.585601 377.283393 
L 178.003216 378.53074 
L 179.852651 384.732953 
L 180.628221 386.397497 
L 181.403791 387.560808 
L 182.239019 388.408288 
L 183.133907 388.999066 
L 184.207773 389.432439 
L 185.579935 389.732855 
L 187.071415 390.031225 
L 187.42937 365.297896 
L 187.787325 354.6338 
L 188.025962 352.081767 
L 188.20494 351.665801 
L 188.324258 351.89516 
L 188.562895 353.204309 
L 189.040169 357.68772 
L 190.531649 372.702511 
L 191.307219 378.095256 
L 192.023129 381.654296 
L 192.739039 384.179604 
L 193.45495 385.953353 
L 194.23052 387.277413 
L 195.006089 388.172851 
L 195.841318 388.814949 
L 196.855525 389.304483 
L 197.92939 389.609992 
L 198.048709 390.031225 
L 200.136781 390.031225 
L 200.494736 357.222787 
L 200.852691 343.077003 
L 201.091328 339.691764 
L 201.270306 339.13999 
L 201.389624 339.444232 
L 201.628261 341.180802 
L 202.105535 347.127988 
L 203.597015 367.044912 
L 204.372584 374.198318 
L 205.088495 378.919337 
L 205.804405 382.269126 
L 206.520316 384.62198 
L 207.236226 386.266215 
L 208.011796 387.490362 
L 208.787366 388.317104 
L 209.682254 388.943015 
L 210.69646 389.381062 
L 210.994756 389.472465 
L 211.114075 390.031225 
L 243.688 390.031225 
L 244.045956 375.426179 
L 244.403911 369.129023 
L 244.642548 367.622046 
L 244.821525 367.376417 
L 244.940844 367.511854 
L 245.17948 368.284908 
L 245.656754 370.932365 
L 247.148234 379.798608 
L 247.923804 382.983028 
L 248.043122 383.383731 
L 248.401078 276.299145 
L 248.759033 230.573147 
L 248.99767 219.937423 
L 249.116988 218.469809 
L 249.176647 218.473602 
L 249.295966 219.696679 
L 249.534602 225.824809 
L 250.011876 246.107238 
L 251.503356 313.08469 
L 252.278926 337.047182 
L 252.994836 352.851004 
L 253.710747 364.061175 
L 254.426657 371.933888 
L 255.202227 377.98845 
L 255.918137 381.654573 
L 256.634048 384.206393 
L 257.349958 385.981468 
L 258.065869 387.215825 
L 258.841438 388.132447 
L 258.901098 388.189119 
L 259.020416 390.031225 
L 276.321585 390.031225 
L 276.679541 381.465048 
L 277.037496 377.771629 
L 277.335792 376.799009 
L 277.514769 376.76848 
L 277.753406 377.133606 
L 278.171021 378.395609 
L 280.020456 384.670698 
L 280.796026 386.3548 
L 281.571595 387.531781 
L 282.406824 388.389219 
L 283.301712 388.986938 
L 284.375578 389.425403 
L 285.74774 389.729349 
L 288.432404 390.031225 
L 300.304586 390.031225 
L 300.662541 385.687811 
L 301.020496 383.815092 
L 301.318792 383.321933 
L 301.557429 383.33416 
L 301.855725 383.644466 
L 302.452317 384.693445 
L 302.810272 378.385659 
L 303.108568 376.232058 
L 303.347205 375.717434 
L 303.526183 375.784068 
L 303.76482 376.264659 
L 304.242093 377.931826 
L 304.659708 379.640683 
L 305.017663 372.139767 
L 305.315959 369.793113 
L 305.494937 369.423202 
L 305.614255 369.473412 
L 305.793233 369.874226 
L 306.151188 371.419541 
L 308.418238 382.8787 
L 309.193807 385.146981 
L 309.969377 386.717462 
L 310.744947 387.789937 
L 311.699494 388.705151 
L 312.654041 389.214078 
L 313.369952 389.578678 
L 313.727907 384.224614 
L 314.085862 381.946428 
L 314.324499 381.422133 
L 314.503476 381.355039 
L 314.742113 381.552019 
L 315.159728 382.341739 
L 317.2478 386.913245 
L 318.083029 387.960613 
L 318.918258 388.66729 
L 319.872805 389.18849 
L 321.065989 389.570792 
L 322.080195 389.756028 
L 322.438151 356.260952 
L 322.796106 341.837534 
L 323.034743 338.398563 
L 323.21372 337.849199 
L 323.333039 338.169332 
L 323.571676 339.961292 
L 324.048949 346.069012 
L 325.600089 367.182065 
L 326.375658 374.311269 
L 327.091569 379.004388 
L 327.807479 382.33058 
L 328.52339 384.665532 
L 329.2393 386.296787 
L 330.01487 387.511088 
L 330.790439 388.331117 
L 331.685327 388.951921 
L 332.759193 389.405633 
L 332.938171 389.459992 
L 333.057489 390.031225 
L 343.855805 390.031225 
L 344.21376 365.056595 
L 344.571716 354.288459 
L 344.810352 351.711528 
L 344.98933 351.291504 
L 345.108649 351.523101 
L 345.347285 352.845022 
L 345.824559 357.372174 
L 347.316039 372.53345 
L 348.091609 377.978808 
L 348.807519 381.572569 
L 349.52343 384.122515 
L 350.23934 385.913569 
L 351.01491 387.250546 
L 351.790479 388.15472 
L 352.625708 388.803083 
L 353.639915 389.297393 
L 354.71378 389.605882 
L 354.833099 390.031225 
L 380.844512 390.031225 
L 381.202467 380.620495 
L 381.560423 376.562937 
L 381.858719 375.494425 
L 382.037696 375.460886 
L 382.216674 375.724729 
L 382.574629 376.796967 
L 384.901338 385.075333 
L 385.676908 386.648757 
L 386.452477 387.736926 
L 387.287706 388.525743 
L 388.242254 389.102807 
L 389.375778 389.508848 
L 390.867259 389.786269 
L 391.702487 389.870951 
L 391.821806 390.031225 
L 393.909878 390.031225 
L 394.267833 352.777773 
L 394.625789 336.715463 
L 394.864425 332.871579 
L 395.043403 332.245049 
L 395.162721 332.590511 
L 395.401358 334.562357 
L 395.878632 341.315291 
L 397.370112 363.930637 
L 398.145682 372.053214 
L 398.861592 377.413856 
L 399.577503 381.217487 
L 400.293413 383.889115 
L 401.009323 385.756116 
L 401.725234 387.057461 
L 402.500804 388.025021 
L 402.620122 388.142931 
L 402.978077 373.496073 
L 403.336032 367.307272 
L 403.574669 365.913432 
L 403.753647 365.762867 
L 403.932624 366.135487 
L 404.23092 367.499621 
L 404.767853 371.011074 
L 405.00649 373.23638 
L 406.020697 379.252604 
L 406.796266 382.597683 
L 407.571836 384.964204 
L 408.287746 386.491708 
L 409.063316 387.637895 
L 409.898545 388.463249 
L 410.793433 389.035332 
L 411.330366 389.272904 
L 411.688321 382.763147 
L 412.046276 380.007135 
L 412.284913 379.382613 
L 412.463891 379.311591 
L 412.642868 379.472995 
L 413.000824 380.224669 
L 413.478097 381.621488 
L 413.716734 382.581899 
L 414.730941 385.250385 
L 415.566169 386.828892 
L 416.341739 387.849657 
L 417.176968 388.596576 
L 418.131515 389.145525 
L 419.26504 389.532637 
L 420.75652 389.797378 
L 423.679821 390.031225 
L 439.668488 390.031225 
L 440.026443 226.188001 
L 440.384399 155.544867 
L 440.623035 138.639203 
L 440.802013 135.883681 
L 440.921331 137.403047 
L 441.159968 146.075361 
L 441.637242 175.775224 
L 443.128722 275.239059 
L 443.904292 310.962708 
L 444.620202 334.539174 
L 445.336113 351.267802 
L 446.052023 363.017806 
L 446.171341 364.599334 
L 446.469637 359.969362 
L 446.708274 358.877472 
L 446.827593 358.910307 
L 447.00657 359.468599 
L 447.364526 361.752829 
L 449.691235 379.437748 
L 450.407145 382.583214 
L 450.526463 383.012428 
L 450.645782 386.044116 
L 451.421351 387.32056 
L 452.196921 388.196033 
L 453.091809 388.863945 
L 454.106016 389.333202 
L 455.358859 389.661665 
L 457.924205 390.031225 
L 467.946951 390.031225 
L 468.304906 383.395454 
L 468.662862 380.534355 
L 468.961158 379.780917 
L 469.140135 379.757268 
L 469.378772 380.040112 
L 469.796387 381.01772 
L 470.154342 382.052778 
L 470.512297 375.501351 
L 470.810593 373.393607 
L 471.04923 373.004727 
L 471.228207 373.195404 
L 471.526504 374.081104 
L 472.182755 377.086695 
L 473.31628 382.0932 
L 474.091849 384.555749 
L 474.867419 386.298596 
L 475.642989 387.500859 
L 476.478218 388.371319 
L 477.373106 388.976288 
L 478.446971 389.419431 
L 480.177088 389.833376 
L 483.279367 390.031225 
L 496.285074 390.031225 
L 496.643029 263.030819 
L 497.000984 208.272945 
L 497.239621 195.168795 
L 497.418598 193.032896 
L 497.537917 194.210608 
L 497.776554 200.932811 
L 498.253827 223.954176 
L 499.745307 301.051947 
L 500.520877 328.742552 
L 501.236788 347.017466 
L 501.952698 359.984389 
L 502.668608 369.092213 
L 503.384519 375.456991 
L 504.100429 379.893394 
L 504.81634 382.981603 
L 505.53225 385.129877 
L 506.248161 386.623781 
L 507.02373 387.733152 
L 507.143049 387.868282 
L 507.262367 390.031225 
L 509.350439 390.031225 
L 509.708395 209.055647 
L 510.06635 131.025675 
L 510.304987 112.352262 
L 510.483964 109.308606 
L 510.603283 110.986845 
L 510.841919 120.565985 
L 511.319193 153.37143 
L 512.810673 263.235754 
L 513.586243 302.694866 
L 514.302153 328.736618 
L 515.018064 347.214484 
L 515.733974 360.193133 
L 516.449885 369.262941 
L 517.165795 375.584815 
L 517.881706 379.985513 
L 518.597616 383.046804 
L 519.313527 385.175617 
L 520.029437 386.655725 
L 520.208415 386.949031 
L 520.327733 390.031225 
L 522.415805 390.031225 
L 522.77376 383.892872 
L 523.131716 381.246242 
L 523.430012 380.549282 
L 523.608989 380.527405 
L 523.847626 380.789047 
L 524.265241 381.693373 
L 526.114676 386.189978 
L 526.770927 387.237351 
L 527.128882 378.520753 
L 527.427178 375.301854 
L 527.665815 374.316608 
L 527.844793 374.180055 
L 528.02377 374.39647 
L 528.322066 375.260269 
L 529.037977 378.353682 
L 530.111843 382.718268 
L 530.887412 384.989406 
L 531.662982 386.59502 
L 532.438552 387.702066 
L 533.452758 388.731152 
L 534.407305 389.229715 
L 535.600489 389.593765 
L 537.211288 389.838163 
L 537.628902 389.875061 
L 537.748221 390.031225 
L 546.339146 390.031225 
L 546.697102 321.662673 
L 547.055057 292.184684 
L 547.293694 285.130283 
L 547.472671 283.980458 
L 547.59199 284.614459 
L 547.830626 288.233246 
L 548.3079 300.626414 
L 549.79938 342.130714 
L 550.57495 357.037489 
L 551.29086 366.875485 
L 552.006771 373.856012 
L 552.722681 378.759057 
L 553.438592 382.185429 
L 554.154502 384.573692 
L 554.870413 386.236179 
L 555.04939 386.565777 
L 555.407345 317.503095 
L 555.765301 287.957764 
L 556.003938 281.047291 
L 556.182915 280.061545 
L 556.302234 280.821912 
L 556.54087 284.717288 
L 557.018144 297.690454 
L 558.569283 342.591028 
L 559.344853 357.392922 
L 560.060763 367.136935 
L 560.776674 374.042887 
L 561.492584 378.890793 
L 562.208495 382.277658 
L 562.924405 384.638038 
L 563.640316 386.280991 
L 564.415885 387.50165 
L 565.191455 388.325149 
L 565.907366 388.845211 
L 566.026684 390.031225 
L 576.825 390.031225 
L 577.182955 378.207487 
L 577.54091 373.109529 
L 577.779547 371.889533 
L 577.958525 371.690681 
L 578.137503 371.91225 
L 578.435799 372.882622 
L 579.09205 376.129988 
L 580.225575 381.512637 
L 581.001144 384.156329 
L 581.776714 386.026644 
L 582.552284 387.316609 
L 583.327853 388.195934 
L 584.222741 388.864751 
L 585.236948 389.333927 
L 586.489791 389.662105 
L 587.682975 389.829855 
L 587.802294 390.031225 
L 592.097756 390.031225 
L 592.455712 383.636755 
L 592.813667 380.879696 
L 593.111963 380.153656 
L 593.290941 380.130866 
L 593.529577 380.403425 
L 593.947192 381.345484 
L 595.796627 386.029705 
L 596.572197 387.286852 
L 597.407426 388.220392 
L 598.302314 388.877161 
L 598.60061 389.03867 
L 598.958565 378.947845 
L 599.31652 374.663486 
L 599.555157 373.684032 
L 599.734135 373.564662 
L 599.913112 373.805348 
L 600.211408 374.718689 
L 600.927319 377.941747 
L 602.001184 382.465812 
L 602.776754 384.816384 
L 603.611983 386.65971 
L 604.387553 387.746391 
L 605.222781 388.53263 
L 606.177329 389.107262 
L 607.310854 389.511408 
L 608.802334 389.787479 
L 609.458585 389.856568 
L 609.577903 390.031225 
L 611.665976 390.031225 
L 612.023931 347.274422 
L 612.381886 328.839271 
L 612.620523 324.42754 
L 612.799501 323.708454 
L 612.918819 324.104951 
L 613.157456 326.368093 
L 613.634729 334.118619 
L 615.126209 360.074868 
L 615.901779 369.397372 
L 616.61769 375.549926 
L 617.3336 379.915457 
L 618.049511 382.981758 
L 618.765421 385.124566 
L 619.481331 386.618155 
L 620.256901 387.72865 
L 621.09213 388.524457 
L 621.987018 389.074741 
L 622.523951 389.303034 
L 622.643269 390.031225 
L 635.648976 390.031225 
L 636.006931 380.620495 
L 636.364886 376.562937 
L 636.663182 375.494425 
L 636.84216 375.460886 
L 637.021138 375.724729 
L 637.379093 376.796967 
L 639.705802 385.075333 
L 640.004098 385.747927 
L 640.362053 380.409645 
L 640.660349 378.574645 
L 640.898986 378.125117 
L 641.077964 378.169831 
L 641.3166 378.56038 
L 641.793874 379.939607 
L 643.345013 384.764463 
L 644.120583 386.406859 
L 644.896153 387.563228 
L 645.731382 388.408571 
L 646.984225 389.295812 
L 648.237068 389.641631 
L 649.967185 389.869372 
L 653.308101 390.031225 
L 659.572317 390.031225 
L 659.930272 332.034373 
L 660.288228 307.028277 
L 660.526864 301.044049 
L 660.705842 300.068655 
L 660.82516 300.606477 
L 661.063797 303.676283 
L 661.541071 314.189373 
L 663.032551 349.397355 
L 663.808121 362.042731 
L 664.524031 370.388275 
L 665.239942 376.309837 
L 665.955852 380.469076 
L 666.13483 381.296499 
L 666.492785 374.489006 
L 666.791081 372.322437 
L 667.029718 371.944942 
L 667.208695 372.165247 
L 667.506991 373.12399 
L 668.163243 376.327432 
L 669.296767 381.634316 
L 670.072337 384.240362 
L 670.430292 385.174503 
L 670.60927 386.48834 
L 671.38484 387.622569 
L 672.220068 388.448862 
L 672.637683 388.749873 
L 672.995638 384.517168 
L 673.293934 382.950105 
L 673.59223 382.420903 
L 673.830867 382.449074 
L 674.129163 382.811021 
L 674.725755 384.006307 
L 675.978598 386.503196 
L 676.813827 387.668647 
L 677.887693 388.734256 
L 678.901899 389.252811 
L 680.095084 389.605767 
L 681.765541 389.848964 
L 684.987138 390.031225 
L 700.975805 390.031225 
L 701.33376 383.469538 
L 701.691716 380.640381 
L 701.990012 379.895354 
L 702.168989 379.871969 
L 702.407626 380.151656 
L 702.825241 381.118349 
L 704.674676 385.925064 
L 705.450246 387.215086 
L 706.285474 388.173038 
L 707.180363 388.846982 
L 708.194569 389.322404 
L 709.447412 389.655796 
L 711.237188 389.879922 
L 711.83378 389.919473 
L 712.191736 377.483585 
L 712.549691 372.073507 
L 712.788328 370.778817 
L 712.967305 370.56779 
L 713.146283 370.802925 
L 713.444579 371.832708 
L 714.10083 375.278891 
L 715.234355 380.991091 
L 716.009925 383.796641 
L 716.785494 385.781466 
L 717.561064 387.150409 
L 718.336634 388.083569 
L 719.171863 388.755323 
L 720.12641 389.245038 
L 720.544024 389.395214 
L 720.90198 354.994893 
L 721.259935 340.205316 
L 721.498572 336.695384 
L 721.677549 336.149093 
L 721.796868 336.490108 
L 722.035505 338.354956 
L 722.512778 344.674056 
L 724.063917 366.524535 
L 724.839487 373.858897 
L 725.555398 378.687069 
L 726.271308 382.108979 
L 726.987219 384.511124 
L 727.703129 386.189321 
L 728.478699 387.438566 
L 729.254268 388.282193 
L 730.149156 388.920862 
L 731.163363 389.36783 
L 731.402 389.443554 
L 731.521318 390.031225 
L 735.816781 390.031225 
L 736.174736 382.912852 
L 736.532691 379.843674 
L 736.830987 379.03544 
L 737.009965 379.010071 
L 737.248602 379.313486 
L 737.666216 380.362192 
L 739.515652 385.576702 
L 740.291221 386.976168 
L 741.066791 387.954222 
L 741.90202 388.666741 
L 742.856567 389.189271 
L 744.049751 389.571504 
L 745.66055 389.828307 
L 748.703169 390.031225 
L 748.882147 390.031225 
L 749.240102 379.172691 
L 749.598057 374.490892 
L 749.836694 373.370487 
L 750.015672 373.187868 
L 750.194649 373.39135 
L 750.492945 374.282508 
L 751.029878 376.686775 
L 751.387833 359.469504 
L 751.686129 353.526255 
L 751.924766 352.048289 
L 752.044085 352.036624 
L 752.223062 352.660128 
L 752.521358 354.836295 
L 753.296928 362.961558 
L 754.311134 372.710041 
L 755.086704 378.096173 
L 755.802614 381.653603 
L 756.518525 384.178648 
L 757.234435 385.952519 
L 758.010005 387.276788 
L 758.785575 388.17241 
L 759.620804 388.814653 
L 759.740122 388.88616 
L 759.9191 389.154487 
L 761.052624 389.538172 
L 761.887853 389.708622 
L 761.947513 390.031225 
L 762.305468 387.27955 
L 762.663423 386.093129 
L 762.961719 385.780699 
L 763.260015 385.814493 
L 763.677629 386.161559 
L 766.123657 388.663992 
L 767.137863 389.203996 
L 768.331047 389.577547 
L 769.941846 389.830639 
L 772.507192 389.976695 
L 778.532771 390.031225 
L 788.078244 390.031225 
L 788.436199 379.413991 
L 788.794155 374.836233 
L 789.032792 373.740726 
L 789.211769 373.562165 
L 789.390747 373.761125 
L 789.689043 374.63248 
L 790.345294 377.548481 
L 791.478819 382.381881 
L 792.254389 384.755808 
L 793.029958 386.435275 
L 793.805528 387.593611 
L 794.640757 388.432196 
L 795.535645 389.014988 
L 796.609511 389.441877 
L 796.788488 389.493061 
L 797.146443 383.308671 
L 797.504399 380.67821 
L 797.743035 380.073566 
L 797.922013 379.99685 
L 798.16065 380.225448 
L 798.518605 380.984841 
L 799.174856 382.988225 
L 800.189063 385.511158 
L 801.024292 387.003565 
L 801.859521 388.02919 
L 802.694749 388.715008 
L 803.649297 389.218752 
L 804.842481 389.587525 
L 806.453279 389.835366 
L 809.555558 390.031225 
L 818.564098 390.031225 
L 818.922053 379.655292 
L 819.280008 375.181574 
L 819.578304 374.003471 
L 819.757282 373.966492 
L 819.93626 374.257396 
L 820.294215 375.439608 
L 822.620924 384.567037 
L 823.396493 386.301837 
L 824.172063 387.501613 
L 825.007292 388.371335 
L 825.90218 388.976152 
L 826.976046 389.419311 
L 828.348207 389.726348 
L 829.422073 389.854513 
L 829.541392 390.031225 
L 833.777195 390.031225 
L 834.13515 350.449432 
L 834.493106 333.383228 
L 834.731742 329.299101 
L 834.91072 328.633413 
L 835.030038 329.000466 
L 835.268675 331.095553 
L 835.745949 338.270545 
L 837.237429 362.29935 
L 838.012999 370.929589 
L 838.728909 376.62527 
L 839.44482 380.666628 
L 840.16073 383.505233 
L 840.87664 385.488922 
L 841.592551 386.871601 
L 842.368121 387.899633 
L 842.487439 388.024913 
L 842.845394 383.701633 
L 843.14369 382.13801 
L 843.382327 381.686467 
L 843.561305 381.649704 
L 843.799942 381.864923 
L 844.217556 382.649166 
L 844.63517 383.634342 
L 844.814148 384.680204 
L 845.888014 386.67625 
L 846.723243 387.783974 
L 847.558471 388.545234 
L 848.513019 389.111329 
L 849.646544 389.51275 
L 851.138024 389.787931 
L 854.001666 390.031225 
L 866.470439 390.031225 
L 866.828395 386.221213 
L 867.18635 384.578477 
L 867.484646 384.145881 
L 867.723283 384.156607 
L 868.021579 384.428805 
L 868.67783 385.450299 
L 869.871014 387.286245 
L 870.765902 388.245543 
L 871.66079 388.885831 
L 872.674997 389.3436 
L 872.973293 389.439832 
L 873.331248 385.092806 
L 873.689203 383.258112 
L 873.92784 382.846362 
L 874.166477 382.826037 
L 874.464773 383.135045 
L 875.001706 384.122545 
L 876.373867 386.723381 
L 877.209096 387.817179 
L 878.163644 388.694932 
L 879.118191 389.20446 
L 880.311375 389.579235 
L 881.922173 389.831625 
L 885.024452 390.031225 
L 892.601171 390.031225 
L 892.959126 321.239339 
L 893.317082 291.578823 
L 893.555718 284.480742 
L 893.734696 283.323797 
L 893.854014 283.961724 
L 894.092651 287.602918 
L 894.569925 300.072824 
L 896.061405 341.834116 
L 896.836975 356.833194 
L 897.552885 366.732106 
L 898.268796 373.755856 
L 898.984706 378.68926 
L 899.700616 382.136848 
L 900.416527 384.5399 
L 901.132437 386.21268 
L 901.908007 387.455548 
L 902.683577 388.294047 
L 903.459146 388.859631 
L 903.578465 390.031225 
L 912.109731 390.031225 
L 912.109731 390.031225 
" style="fill:none;stroke:#000000;stroke-linecap:square;stroke-width:2;"/>
   </g>
   <g id="patch_3">
    <path d="M 41.145 393.79875 
L 41.145 13.27875 
" style="fill:none;stroke:#000000;stroke-linecap:square;stroke-linejoin:miter;stroke-width:0.8;"/>
   </g>
   <g id="patch_4">
    <path d="M 933.945 393.79875 
L 933.945 13.27875 
" style="fill:none;stroke:#000000;stroke-linecap:square;stroke-linejoin:miter;stroke-width:0.8;"/>
   </g>
   <g id="patch_5">
    <path d="M 41.145 393.79875 
L 933.945 393.79875 
" style="fill:none;stroke:#000000;stroke-linecap:square;stroke-linejoin:miter;stroke-width:0.8;"/>
   </g>
   <g id="patch_6">
    <path d="M 41.145 13.27875 
L 933.945 13.27875 
" style="fill:none;stroke:#000000;stroke-linecap:square;stroke-linejoin:miter;stroke-width:0.8;"/>
   </g>
  </g>
 </g>
 <defs>
  <clipPath id="p0dc10e0e01">
   <rect height="380.52" width="892.8" x="41.145" y="13.27875"/>
  </clipPath>
 </defs>
</svg>
