<?xml version="1.0" encoding="utf-8" standalone="no"?>
<!DOCTYPE svg PUBLIC "-//W3C//DTD SVG 1.1//EN"
  "http://www.w3.org/Graphics/SVG/1.1/DTD/svg11.dtd">
<!-- Created with matplotlib (https://matplotlib.org/) -->
<svg height="418.905pt" version="1.1" viewBox="0 0 969.8275 418.905" width="969.8275pt" xmlns="http://www.w3.org/2000/svg" xmlns:xlink="http://www.w3.org/1999/xlink">
 <defs>
  <style type="text/css">
*{stroke-linecap:butt;stroke-linejoin:round;}
  </style>
 </defs>
 <g id="figure_1">
  <g id="patch_1">
   <path d="M 0 418.905 
L 969.8275 418.905 
L 969.8275 0 
L 0 0 
z
" style="fill:#ffffff;"/>
  </g>
  <g id="axes_1">
   <g id="line2d_1">
    <path clip-path="url(#pcfb9c4f264)" d="M 49.412409 31.008702 
L 50.128588 28.893865 
L 50.844768 27.463855 
L 51.560947 26.498227 
L 52.332217 25.806314 
L 53.213668 25.303081 
L 53.489122 25.189669 
L 53.874757 178.527289 
L 54.205301 229.505405 
L 54.425664 240.273957 
L 54.535845 241.176084 
L 54.646026 239.880711 
L 54.866389 232.486917 
L 55.307115 207.16557 
L 56.739473 119.657049 
L 57.455653 89.965807 
L 58.171832 69.072309 
L 58.83292 55.618386 
L 59.494009 46.178946 
L 60.155097 39.586116 
L 60.816186 34.992066 
L 61.477274 31.794583 
L 62.138363 29.57046 
L 62.854542 27.918595 
L 63.51563 26.875399 
L 63.570721 24.496364 
L 63.625812 25.202175 
L 63.956356 28.004846 
L 64.2869 29.166014 
L 64.562354 29.428576 
L 64.782717 29.372221 
L 65.168352 28.970904 
L 67.427071 26.077312 
L 68.308522 25.481876 
L 69.355245 25.053562 
L 70.677422 24.766198 
L 72.660688 24.587065 
L 76.7374 24.496364 
L 77.618851 24.496364 
L 77.949396 31.868815 
L 78.27994 35.047544 
L 78.555393 35.884626 
L 78.720665 35.9109 
L 78.941028 35.596656 
L 79.326663 34.510517 
L 81.089566 28.980153 
L 81.860836 27.47933 
L 82.632106 26.462857 
L 83.458466 25.749096 
L 84.395008 25.246029 
L 85.551913 24.893391 
L 87.149544 24.661288 
L 87.64536 24.621924 
L 87.810632 24.496364 
L 91.722072 24.496364 
L 92.052617 45.449647 
L 92.383161 54.483928 
L 92.658614 56.863003 
L 92.768796 56.998322 
L 92.878977 56.804016 
L 93.09934 55.694947 
L 93.540066 51.896745 
L 93.705338 50.246621 
L 93.980791 54.910818 
L 94.201154 56.006001 
L 94.311336 55.969557 
L 94.476608 55.401311 
L 94.807152 53.087092 
L 96.95569 35.20412 
L 97.671869 31.80461 
L 97.726959 31.590776 
L 98.057504 37.956828 
L 98.332957 40.039825 
L 98.55332 40.457078 
L 98.718592 40.304641 
L 98.994046 39.500915 
L 99.600044 36.699418 
L 100.701858 31.783661 
L 101.473128 29.373637 
L 102.46476 27.116537 
L 103.23603 26.217665 
L 104.337844 25.334495 
L 105.439658 24.953951 
L 106.927108 24.698332 
L 109.791824 24.496364 
L 141.964797 24.496364 
L 142.295342 29.540673 
L 142.625886 31.715592 
L 142.901339 32.288332 
L 143.121702 32.274132 
L 143.397156 31.913752 
L 143.948063 30.6955 
L 145.160058 28.030517 
L 145.931328 26.860538 
L 146.757689 26.012821 
L 147.63914 25.434596 
L 148.024775 25.256071 
L 148.355319 31.393011 
L 148.685864 33.988186 
L 148.961317 34.625076 
L 149.126589 34.607958 
L 149.346952 34.293685 
L 149.787678 33.135021 
L 151.275127 28.890209 
L 152.156578 27.184244 
L 152.927848 26.269921 
L 153.754209 25.626671 
L 154.745841 25.152751 
L 155.957837 24.833635 
L 157.72074 24.624292 
L 161.136363 24.496364 
L 162.072905 24.496364 
L 162.40345 48.730831 
L 162.733994 59.179836 
L 163.009447 61.931463 
L 163.119629 62.087972 
L 163.22981 61.863239 
L 163.450173 60.580495 
L 163.890899 56.187513 
L 165.323257 41.005722 
L 166.039436 35.85461 
L 166.755616 32.229812 
L 167.471795 29.735838 
L 168.187974 28.037724 
L 168.904153 26.887222 
L 169.675423 26.061482 
L 170.501784 25.490064 
L 171.493416 25.072365 
L 172.099414 24.909101 
L 172.264686 24.496364 
L 194.245878 24.496364 
L 194.576423 33.42091 
L 194.906967 37.268845 
L 195.18242 38.282154 
L 195.347693 38.313961 
L 195.568055 37.933559 
L 195.95369 36.61876 
L 197.716593 29.924108 
L 198.487863 28.107323 
L 199.204042 26.949197 
L 199.975312 26.107052 
L 200.801673 25.520521 
L 201.793305 25.090449 
L 203.060392 24.792379 
L 205.594564 24.496364 
L 212.370721 24.496364 
L 212.701265 28.531811 
L 213.03181 30.271746 
L 213.307263 30.729939 
L 213.527626 30.718578 
L 213.803079 30.430275 
L 214.409077 29.34834 
L 215.565982 27.323687 
L 216.392343 26.333099 
L 217.218703 25.673829 
L 218.155245 25.203055 
L 219.367241 24.859943 
L 220.413964 24.700911 
L 220.744509 31.474355 
L 221.075053 34.381123 
L 221.350506 35.134062 
L 221.515778 35.147704 
L 221.736141 34.844805 
L 222.121776 33.823013 
L 223.884679 28.63652 
L 224.655949 27.250718 
L 225.427219 26.312147 
L 226.253579 25.653088 
L 227.190121 25.188575 
L 228.402117 24.852027 
L 230.109929 24.635416 
L 233.415371 24.496364 
L 246.526959 24.496364 
L 246.857504 35.932854 
L 247.188048 40.863845 
L 247.463501 42.162365 
L 247.628774 42.203124 
L 247.794046 41.882485 
L 248.12459 40.579437 
L 250.328218 30.346687 
L 251.044397 28.486671 
L 251.760577 27.202106 
L 252.531847 26.271546 
L 253.358207 25.624634 
L 254.294749 25.170824 
L 255.506745 24.84274 
L 256.553468 24.691138 
L 256.71874 24.496364 
L 272.695045 24.496364 
L 273.02559 35.283424 
L 273.356134 39.934406 
L 273.631587 41.159189 
L 273.796859 41.197633 
L 273.962132 40.895202 
L 274.292676 39.666148 
L 276.496304 30.014472 
L 277.212483 28.260078 
L 277.928663 27.048458 
L 278.699932 26.170741 
L 279.526293 25.560564 
L 280.517926 25.113549 
L 281.785012 24.803862 
L 282.721554 24.680078 
L 282.886826 24.496364 
L 290.764797 24.496364 
L 291.095342 27.355486 
L 291.425886 28.588234 
L 291.701339 28.912864 
L 291.976793 28.87775 
L 292.362428 28.517132 
L 294.621147 25.916984 
L 295.557689 25.355894 
L 296.659503 24.967757 
L 298.091861 24.711188 
L 300.35058 24.558414 
L 305.474016 24.496364 
L 308.88964 24.496364 
L 309.220184 54.04063 
L 309.550728 66.779024 
L 309.826182 70.133535 
L 309.936363 70.324336 
L 310.046545 70.050363 
L 310.266908 68.486568 
L 310.707633 63.131079 
L 312.139992 44.622941 
L 312.856171 38.343215 
L 313.57235 33.92422 
L 314.288529 30.883812 
L 315.004708 28.81364 
L 315.720888 27.411061 
L 316.437067 26.463052 
L 317.263427 25.745042 
L 318.199969 25.242435 
L 318.916149 24.999532 
L 319.02633 25.978803 
L 319.356874 28.713688 
L 319.687419 29.793651 
L 319.907781 29.983634 
L 320.128144 29.920938 
L 320.458688 29.554487 
L 321.450321 27.923729 
L 322.386863 26.649245 
L 323.213224 25.886934 
L 324.149766 25.333855 
L 325.25158 24.954784 
L 326.739029 24.698898 
L 328.997748 24.496364 
L 329.328292 63.571038 
L 329.658837 80.418592 
L 329.93429 84.855203 
L 330.044471 85.107552 
L 330.154653 84.745202 
L 330.375016 82.676957 
L 330.815741 75.59389 
L 332.2481 51.115386 
L 332.964279 42.809941 
L 333.680458 36.965463 
L 334.396637 32.944279 
L 335.112817 30.20631 
L 335.828996 28.351287 
L 336.545175 27.097468 
L 337.316445 26.198631 
L 338.142805 25.576994 
L 339.024257 25.161844 
L 339.189529 24.496364 
L 341.062613 24.496364 
L 341.393157 103.326456 
L 341.723701 137.315074 
L 341.999155 146.26559 
L 342.109336 146.774685 
L 342.219518 146.043671 
L 342.439881 141.871149 
L 342.880606 127.581618 
L 344.312965 78.198154 
L 345.029144 61.44257 
L 345.745323 49.651795 
L 346.406412 42.059376 
L 347.0675 36.732441 
L 347.728588 33.011926 
L 348.389677 30.419377 
L 349.105856 28.492084 
L 349.822035 27.191474 
L 350.593305 26.259819 
L 351.089122 25.838919 
L 351.254394 24.496364 
L 377.257208 24.496364 
L 377.587752 27.755763 
L 377.918296 29.161096 
L 378.19375 29.531174 
L 378.414112 29.521998 
L 378.744657 29.223646 
L 379.515927 28.06947 
L 380.507559 26.71678 
L 381.278829 25.979881 
L 381.609373 37.44822 
L 381.939918 42.293652 
L 382.215371 43.478802 
L 382.325553 43.502341 
L 382.490825 43.210323 
L 382.821369 41.870951 
L 383.923183 35.612924 
L 384.749544 31.841071 
L 385.465723 29.526548 
L 386.181902 27.913899 
L 386.898081 26.809387 
L 387.779533 25.881267 
L 388.660984 25.349889 
L 389.762798 24.962141 
L 391.195156 24.708234 
L 391.305338 24.695776 
L 391.47061 24.496364 
L 413.451802 24.496364 
L 413.782346 31.325582 
L 414.112891 34.270088 
L 414.388344 35.04549 
L 414.553616 35.069829 
L 414.773979 34.778739 
L 415.159614 33.772632 
L 416.922517 28.649768 
L 417.693787 27.259532 
L 418.465056 26.317958 
L 419.291417 25.656789 
L 420.227959 25.19079 
L 421.439955 24.853165 
L 421.495045 24.842521 
L 421.82559 105.248875 
L 422.156134 139.89395 
L 422.431587 148.996141 
L 422.541769 149.503626 
L 422.65195 148.746015 
L 422.872313 144.466103 
L 423.313039 129.845476 
L 424.745397 79.311145 
L 425.461576 62.208294 
L 426.177755 50.173151 
L 426.838844 42.423377 
L 427.499932 36.986038 
L 428.161021 33.188414 
L 428.822109 30.542133 
L 429.538289 28.574897 
L 430.254468 27.247331 
L 431.025738 26.296368 
L 431.521554 25.866744 
L 432.237733 43.630541 
L 432.458096 44.635606 
L 432.623368 44.682071 
L 432.78864 44.316542 
L 433.119185 42.831067 
L 435.267722 31.362242 
L 435.983901 29.182426 
L 436.700081 27.67488 
L 437.41626 26.645919 
L 438.18753 25.904741 
L 439.068981 25.364244 
L 440.115704 24.984512 
L 442.374423 24.496364 
L 447.608041 24.496364 
L 447.938585 49.003128 
L 448.269129 59.569538 
L 448.544583 62.352082 
L 448.654764 62.51035 
L 448.764945 62.283091 
L 448.985308 60.985934 
L 449.426034 56.543593 
L 450.858392 41.191221 
L 451.574571 35.982231 
L 452.290751 32.316705 
L 453.00693 29.794708 
L 453.723109 28.077514 
L 454.439288 26.914085 
L 455.210558 26.079067 
L 456.036919 25.501229 
L 457.028551 25.078837 
L 457.634549 24.913738 
L 457.799821 24.496364 
L 463.694527 24.496364 
L 464.025071 29.942311 
L 464.355616 32.290402 
L 464.631069 32.908745 
L 464.796341 32.928154 
L 465.016704 32.696025 
L 465.45743 31.757273 
L 467.05506 28.002554 
L 467.82633 26.833651 
L 468.5976 26.038588 
L 469.479051 25.450063 
L 470.525775 25.033635 
L 471.903042 24.74843 
L 473.776126 24.496364 
L 474.106671 40.405338 
L 474.437215 47.264699 
L 474.712668 49.071034 
L 474.82285 49.173776 
L 474.877941 49.127732 
L 475.043213 48.681701 
L 475.373757 46.869067 
L 477.522295 32.87437 
L 478.238474 30.214475 
L 478.954653 28.37491 
L 479.670832 27.119333 
L 480.442102 26.214919 
L 481.268463 25.587937 
L 482.260095 25.129225 
L 483.527182 24.811631 
L 483.802635 24.767309 
L 483.967907 24.496364 
L 485.840991 24.496364 
L 486.171536 45.599411 
L 486.50208 54.698264 
L 486.777533 57.094343 
L 486.887715 57.230629 
L 486.997896 57.034935 
L 487.218259 55.917938 
L 487.658985 52.092589 
L 489.091343 38.872491 
L 489.807522 34.386971 
L 490.523701 31.230546 
L 491.239881 29.058827 
L 491.95606 27.580132 
L 492.672239 26.578291 
L 493.443509 25.859247 
L 494.32496 25.335846 
L 495.426774 24.954357 
L 495.8675 24.85577 
L 496.032772 24.496364 
L 526.057208 24.496364 
L 526.387752 33.890623 
L 526.718296 37.94108 
L 526.99375 39.007722 
L 527.159022 39.041203 
L 527.379384 38.64078 
L 527.765019 37.256781 
L 529.527922 30.209779 
L 530.078829 28.772166 
L 530.409373 97.651125 
L 530.739918 127.063006 
L 531.015371 134.546471 
L 531.125553 134.845676 
L 531.235734 134.058969 
L 531.456097 130.117232 
L 531.896822 117.071166 
L 533.27409 73.989923 
L 533.990269 58.576766 
L 534.706449 47.710008 
L 535.422628 40.226858 
L 536.138807 34.974385 
L 536.799895 31.787975 
L 537.460984 29.567895 
L 538.177163 27.917608 
L 538.893342 26.80397 
L 539.664612 26.006263 
L 540.105338 25.681244 
L 540.27061 24.496364 
L 556.191824 24.496364 
L 556.522369 30.006301 
L 556.852913 32.381982 
L 557.128366 33.007591 
L 557.293638 33.027228 
L 557.514001 32.792371 
L 557.954727 31.842589 
L 559.552357 28.043752 
L 560.323627 26.861114 
L 561.094897 26.056709 
L 561.976349 25.461269 
L 563.023072 25.039948 
L 564.345249 24.759235 
L 566.934512 24.496364 
L 578.338289 24.496364 
L 578.668833 27.290135 
L 578.999377 28.494706 
L 579.274831 28.811916 
L 579.550284 28.777605 
L 579.935919 28.425229 
L 580.321554 27.929731 
L 580.652098 31.987026 
L 580.927552 33.372265 
L 581.147915 33.703282 
L 581.313187 33.660422 
L 581.58864 33.242258 
L 582.139547 31.811522 
L 582.35991 31.179769 
L 582.690454 36.00451 
L 582.965908 37.513924 
L 583.186271 37.751995 
L 583.351543 37.571269 
L 583.626996 36.849168 
L 584.288085 34.262436 
L 585.279718 30.612368 
L 586.050988 28.591671 
L 586.767167 27.285875 
L 587.538437 26.330681 
L 588.474979 25.550286 
L 589.466611 25.107862 
L 590.403153 24.787451 
L 590.733698 28.231293 
L 591.064242 29.696668 
L 591.339695 30.064734 
L 591.560058 30.035051 
L 591.890603 29.689777 
L 592.386419 28.885878 
L 592.661872 28.324692 
L 593.653505 26.875381 
L 594.479866 26.039872 
L 595.361317 25.456168 
L 596.408041 25.038428 
L 597.785308 24.750933 
L 598.446397 24.673376 
L 598.776941 46.218083 
L 599.107485 55.495515 
L 599.382939 57.927783 
L 599.49312 58.060893 
L 599.603302 57.854976 
L 599.823664 56.702351 
L 600.26439 52.773743 
L 601.696748 39.193403 
L 602.412928 34.607755 
L 603.129107 31.380871 
L 603.845286 29.160673 
L 604.561465 27.64897 
L 605.277644 26.624765 
L 606.048914 25.88967 
L 606.930366 25.354585 
L 608.03218 24.96458 
L 608.472905 24.863792 
L 608.638178 24.496364 
L 618.554505 24.496364 
L 618.885049 40.560548 
L 619.215593 47.486829 
L 619.491047 49.310787 
L 619.601228 49.414531 
L 619.656319 49.368038 
L 619.821591 48.917655 
L 620.152135 47.087337 
L 622.300673 32.956107 
L 623.016852 30.270261 
L 623.733031 28.412749 
L 624.44921 27.144923 
L 625.22048 26.231685 
L 626.046841 25.598586 
L 627.038474 25.135399 
L 628.250469 24.8245 
L 628.581014 24.769953 
L 628.746286 24.496364 
L 652.710743 24.496364 
L 653.041287 30.549534 
L 653.371832 33.159438 
L 653.647285 33.846726 
L 653.812557 33.868299 
L 654.03292 33.610288 
L 654.418555 32.718511 
L 656.181458 28.17779 
L 656.952728 26.945536 
L 657.723998 26.110958 
L 658.605449 25.494372 
L 659.597082 25.075748 
L 660.919259 24.776536 
L 663.453431 24.496364 
L 664.775608 24.496364 
L 665.106152 48.458533 
L 665.436697 58.790134 
L 665.71215 61.510844 
L 665.822332 61.665594 
L 665.932513 61.443386 
L 666.152876 60.175055 
L 666.593601 55.831432 
L 668.02596 40.820224 
L 668.742139 35.726989 
L 669.458318 32.14292 
L 670.174497 29.676967 
L 670.890677 27.997933 
L 671.606856 26.860358 
L 672.378126 26.043896 
L 672.818851 25.710952 
L 673.149396 35.132106 
L 673.47994 39.112867 
L 673.755393 40.086783 
L 673.920665 40.058024 
L 674.141028 39.572215 
L 674.581754 37.787075 
L 676.234475 30.518221 
L 677.005745 28.506486 
L 677.721924 27.221473 
L 678.493194 26.286223 
L 679.319555 25.634561 
L 680.256097 25.176926 
L 680.862095 24.984131 
L 681.192639 29.171338 
L 681.523183 30.94406 
L 681.798637 31.381019 
L 682.018999 31.335739 
L 682.349544 30.902122 
L 682.84536 29.905675 
L 683.065723 29.28792 
L 684.057356 27.486802 
L 684.883716 26.439065 
L 685.710077 25.741759 
L 686.646619 25.243825 
L 687.803524 24.89273 
L 689.401154 24.661089 
L 692.486234 24.496364 
L 707.03018 24.496364 
L 707.360725 129.88362 
L 707.691269 175.322704 
L 707.966723 187.28857 
L 708.076904 187.969175 
L 708.187085 186.991888 
L 708.407448 181.413681 
L 708.848174 162.310132 
L 710.280532 96.289814 
L 710.996711 73.889421 
L 711.712891 58.126438 
L 712.373979 47.976201 
L 713.035068 40.854668 
L 713.310521 43.832759 
L 713.530884 44.535084 
L 713.641065 44.513964 
L 713.806337 44.154859 
L 714.136882 42.685597 
L 716.34051 31.115292 
L 717.056689 29.010995 
L 717.221961 26.98652 
L 717.993231 26.138696 
L 718.819592 25.54281 
L 719.811225 25.103987 
L 721.078311 24.799252 
L 722.951395 24.604492 
L 726.642472 24.496364 
L 733.143176 24.496364 
L 733.47372 28.764625 
L 733.804264 30.604941 
L 734.079718 31.089568 
L 734.300081 31.077552 
L 734.575534 30.772616 
L 735.181532 29.628261 
L 735.512076 33.842271 
L 735.78753 35.198015 
L 736.007892 35.44815 
L 736.173165 35.325502 
L 736.448618 34.755802 
L 737.109707 32.634694 
L 738.15643 29.461729 
L 738.9277 27.81853 
L 739.69897 26.692034 
L 740.47024 25.939556 
L 741.351691 25.387114 
L 742.398414 24.997738 
L 744.106226 24.648994 
L 747.246397 24.496364 
L 759.311262 24.496364 
L 759.641806 106.185579 
L 759.97235 141.406945 
L 760.247804 150.682091 
L 760.357985 151.20965 
L 760.468166 150.452122 
L 760.688529 146.128266 
L 761.129255 131.320461 
L 762.561613 80.145887 
L 763.277792 62.782588 
L 763.993972 50.564168 
L 764.65506 42.696377 
L 765.316149 37.176236 
L 765.977237 33.32078 
L 766.638326 30.634201 
L 767.354505 28.637007 
L 768.070684 27.289224 
L 768.841954 26.323779 
L 769.33777 25.887612 
L 769.503042 24.496364 
L 771.376126 24.496364 
L 771.706671 140.903495 
L 772.037215 191.093941 
L 772.312668 204.311025 
L 772.42285 205.062797 
L 772.533031 203.98332 
L 772.753394 197.821824 
L 773.19412 176.720703 
L 774.626478 103.796935 
L 775.342657 79.054233 
L 776.058837 61.642985 
L 776.719925 50.431383 
L 777.381014 42.565182 
L 778.042102 37.071158 
L 778.70319 33.242782 
L 779.364279 30.578213 
L 780.080458 28.598602 
L 780.796637 27.263111 
L 781.402635 26.478893 
L 781.567907 24.496364 
L 783.440991 24.496364 
L 783.771536 28.444676 
L 784.10208 30.147042 
L 784.377533 30.59534 
L 784.597896 30.584225 
L 784.87335 30.302147 
L 785.479347 29.243574 
L 786.636252 27.262638 
L 787.462613 26.29344 
L 787.793157 31.900131 
L 788.123701 34.197251 
L 788.344064 34.663983 
L 788.509336 34.667137 
L 788.729699 34.369129 
L 789.170425 33.220272 
L 790.712965 28.820038 
L 791.484235 27.380955 
L 792.255504 26.400413 
L 793.081865 25.710045 
L 794.183679 25.11451 
L 795.450765 24.804511 
L 797.268759 24.609755 
L 800.904745 24.496364 
L 805.532365 24.496364 
L 805.862909 68.472391 
L 806.193453 87.433226 
L 806.468907 92.426347 
L 806.579088 92.71035 
L 806.68927 92.302547 
L 806.909633 89.974871 
L 807.350358 82.003336 
L 808.782717 54.454357 
L 809.498896 45.107114 
L 810.215075 38.529532 
L 810.931254 34.003948 
L 811.592343 31.119457 
L 812.308522 28.968051 
L 813.024701 27.51372 
L 813.575608 26.72541 
L 813.906152 71.147915 
L 814.236697 90.152067 
L 814.51215 95.020103 
L 814.622332 95.231073 
L 814.732513 94.74199 
L 814.952876 92.236406 
L 815.393601 83.891804 
L 816.881051 54.162737 
L 817.59723 44.883884 
L 818.313409 38.370286 
L 819.029588 33.893704 
L 819.690677 31.041911 
L 820.406856 28.915422 
L 821.123035 27.478117 
L 821.839214 26.507755 
L 822.610484 25.812518 
L 823.491935 25.306892 
L 823.602117 25.259232 
L 823.767389 24.496364 
L 833.683716 24.496364 
L 834.01426 32.10163 
L 834.344805 35.380739 
L 834.620258 36.244255 
L 834.78553 36.271359 
L 835.005893 35.947191 
L 835.391528 34.826754 
L 837.154431 29.121746 
L 837.925701 27.573529 
L 838.696971 26.524957 
L 839.523331 25.788656 
L 840.459873 25.269703 
L 841.616778 24.905929 
L 843.159318 24.67173 
L 843.710225 24.625889 
L 843.875497 24.496364 
L 847.786937 24.496364 
L 848.117481 28.609416 
L 848.448026 30.382811 
L 848.723479 30.849815 
L 848.943842 30.838236 
L 849.219296 30.544388 
L 849.825293 29.441647 
L 850.982198 27.378058 
L 851.808559 26.368421 
L 852.634919 25.696472 
L 853.571462 25.216645 
L 853.791824 25.134795 
L 854.122369 31.625417 
L 854.452913 34.381202 
L 854.728366 35.067814 
L 854.893638 35.058181 
L 855.114001 34.737244 
L 855.554727 33.533705 
L 857.097267 28.969031 
L 857.923627 27.327403 
L 858.694897 26.364382 
L 859.521258 25.686873 
L 860.4578 25.208935 
L 861.614705 24.873779 
L 863.267426 24.648467 
L 865.856689 24.496364 
L 866.187233 51.998399 
L 866.517778 63.856259 
L 866.793231 66.978892 
L 866.903413 67.156503 
L 867.013594 66.901469 
L 867.233957 65.445771 
L 867.674683 60.460476 
L 869.107041 43.231703 
L 869.82322 37.386059 
L 870.539399 33.272524 
L 871.255578 30.442283 
L 871.971758 28.515211 
L 872.687937 27.209585 
L 873.459207 26.272509 
L 874.285567 25.624046 
L 875.222109 25.170136 
L 875.883198 24.964751 
L 876.04847 24.496364 
L 888.003153 24.496364 
L 888.333698 30.549534 
L 888.664242 33.159438 
L 888.939695 33.846726 
L 889.104968 33.868299 
L 889.32533 33.610288 
L 889.710965 32.718511 
L 891.473868 28.17779 
L 892.024775 27.251467 
L 892.355319 30.685158 
L 892.630773 31.865466 
L 892.851136 32.154612 
L 893.071499 32.082189 
L 893.402043 31.58257 
L 894.228403 29.685036 
L 895.164945 27.789981 
L 895.936215 26.694894 
L 896.762576 25.905159 
L 897.644027 25.367596 
L 898.966204 24.856697 
L 900.618925 24.641646 
L 903.869277 24.496364 
L 910.094527 24.496364 
L 910.425071 61.801105 
L 910.755616 77.885529 
L 911.031069 82.121179 
L 911.14125 82.362098 
L 911.251432 82.01616 
L 911.471795 80.041599 
L 911.91252 73.279368 
L 913.344879 49.909646 
L 914.061058 41.980406 
L 914.777237 36.400661 
L 915.493416 32.561621 
L 916.154505 30.114715 
L 916.485049 34.493432 
L 916.760503 35.887012 
L 916.980865 36.129824 
L 917.146138 35.98812 
L 917.421591 35.371437 
L 918.08268 33.111431 
L 919.129403 29.748658 
L 919.900673 28.009819 
L 920.121036 27.620305 
L 920.286308 26.775219 
L 921.112668 25.955715 
L 921.99412 25.398608 
L 922.159392 25.320555 
L 922.489936 28.043116 
L 922.82048 29.161821 
L 923.095934 29.405952 
L 923.371387 29.301606 
L 923.812113 28.7824 
L 925.575016 26.411743 
L 926.621739 25.524009 
L 927.668463 25.078419 
L 928.99064 24.778431 
L 930.918814 24.594114 
L 934.830255 24.496364 
L 942.2675 24.496364 
L 942.2675 24.496364 
" style="fill:none;stroke:#000000;stroke-linecap:square;stroke-width:2;"/>
   </g>
  </g>
 </g>
 <defs>
  <clipPath id="pcfb9c4f264">
   <rect height="380.52" width="892.8" x="49.4675" y="7.2"/>
  </clipPath>
 </defs>
</svg>
