<?xml version="1.0" encoding="UTF-8" standalone="no"?>
<!-- Created with Inkscape (http://www.inkscape.org/) -->

<svg
   xmlns:dc="http://purl.org/dc/elements/1.1/"
   xmlns:cc="http://creativecommons.org/ns#"
   xmlns:rdf="http://www.w3.org/1999/02/22-rdf-syntax-ns#"
   xmlns:svg="http://www.w3.org/2000/svg"
   xmlns="http://www.w3.org/2000/svg"
   xmlns:xlink="http://www.w3.org/1999/xlink"
   xmlns:sodipodi="http://sodipodi.sourceforge.net/DTD/sodipodi-0.dtd"
   xmlns:inkscape="http://www.inkscape.org/namespaces/inkscape"
   width="297mm"
   height="210mm"
   viewBox="0 0 297 210"
   version="1.1"
   id="svg8"
   inkscape:version="0.92.3 (2405546, 2018-03-11)"
   sodipodi:docname="Logo5.svg">
  <defs
     id="defs2">
    <linearGradient
       id="linearGradient34302"
       inkscape:collect="always">
      <stop
         id="stop34298"
         offset="0"
         style="stop-color:#0d71ab;stop-opacity:1" />
      <stop
         id="stop34300"
         offset="1"
         style="stop-color:#76b2d5;stop-opacity:1" />
    </linearGradient>
    <linearGradient
       id="linearGradient34285">
      <stop
         id="stop34295"
         offset="0"
         style="stop-color:#0b5c8b;stop-opacity:1;" />
    </linearGradient>
    <linearGradient
       id="linearGradient34285-0">
      <stop
         style="stop-color:#0b5c8b;stop-opacity:1;"
         offset="0"
         id="stop34283" />
    </linearGradient>
    <linearGradient
       inkscape:collect="always"
       id="linearGradient20434">
      <stop
         style="stop-color:#0d71ab;stop-opacity:0.012"
         offset="0"
         id="stop20430" />
      <stop
         style="stop-color:#4697c6;stop-opacity:1"
         offset="1"
         id="stop20432" />
    </linearGradient>
    <linearGradient
       id="linearGradient19202"
       inkscape:collect="always">
      <stop
         id="stop19198"
         offset="0"
         style="stop-color:#000000;stop-opacity:1;" />
      <stop
         id="stop19200"
         offset="1"
         style="stop-color:#c6c6c6;stop-opacity:1" />
    </linearGradient>
    <linearGradient
       inkscape:collect="always"
       id="linearGradient19130">
      <stop
         style="stop-color:#000000;stop-opacity:1;"
         offset="0"
         id="stop19126" />
      <stop
         style="stop-color:#989898;stop-opacity:1"
         offset="1"
         id="stop19128" />
    </linearGradient>
    <style
       id="style19087"
       type="text/css">
*{stroke-linecap:butt;stroke-linejoin:round;}
  </style>
    <clipPath
       id="p4639987940">
      <rect
         id="rect19099"
         y="13.27875"
         x="41.145"
         width="892.8"
         height="380.52" />
    </clipPath>
    <linearGradient
       inkscape:collect="always"
       xlink:href="#linearGradient19130"
       id="linearGradient19132"
       x1="477.38718"
       y1="108.30988"
       x2="479.04199"
       y2="390.03137"
       gradientUnits="userSpaceOnUse" />
    <style
       id="style19134"
       type="text/css">
*{stroke-linecap:butt;stroke-linejoin:round;}
  </style>
    <clipPath
       id="p0e21f281bd">
      <rect
         id="rect19146"
         y="13.27875"
         x="41.145"
         width="892.8"
         height="380.52" />
    </clipPath>
    <linearGradient
       inkscape:collect="always"
       xlink:href="#linearGradient19202"
       id="linearGradient19204"
       gradientUnits="userSpaceOnUse"
       x1="728.53693"
       y1="69.307724"
       x2="728.53693"
       y2="408.17447" />
    <linearGradient
       inkscape:collect="always"
       xlink:href="#linearGradient19202"
       id="linearGradient19206"
       gradientUnits="userSpaceOnUse"
       x1="728.53693"
       y1="69.307724"
       x2="728.53693"
       y2="408.17447" />
    <linearGradient
       inkscape:collect="always"
       xlink:href="#linearGradient19202"
       id="linearGradient19208"
       gradientUnits="userSpaceOnUse"
       x1="728.53693"
       y1="69.307724"
       x2="728.53693"
       y2="408.17447" />
    <style
       id="style20367"
       type="text/css">
*{stroke-linecap:butt;stroke-linejoin:round;}
  </style>
    <clipPath
       id="pcfb9c4f264">
      <rect
         id="rect20379"
         y="7.2"
         x="49.4675"
         width="892.8"
         height="380.52" />
    </clipPath>
    <linearGradient
       inkscape:collect="always"
       xlink:href="#linearGradient19202"
       id="linearGradient20410"
       x1="493.98984"
       y1="182.6815"
       x2="495.86749"
       y2="23.496359"
       gradientUnits="userSpaceOnUse" />
    <radialGradient
       inkscape:collect="always"
       xlink:href="#linearGradient20434"
       id="radialGradient20436"
       cx="302.70178"
       cy="122.21074"
       fx="302.70178"
       fy="122.21074"
       r="139.3313"
       gradientTransform="matrix(0.41378931,0.00454713,0.00464885,0.26321114,43.155258,152.60383)"
       gradientUnits="userSpaceOnUse" />
    <linearGradient
       inkscape:collect="always"
       xlink:href="#linearGradient34302"
       id="linearGradient34293"
       gradientUnits="userSpaceOnUse"
       x1="42.508553"
       y1="185.83435"
       x2="113.99043"
       y2="185.45638"
       spreadMethod="pad"
       gradientTransform="translate(95.147952,1.0690781)" />
  </defs>
  <sodipodi:namedview
     id="base"
     pagecolor="#ffffff"
     bordercolor="#666666"
     borderopacity="1.0"
     inkscape:pageopacity="0.0"
     inkscape:pageshadow="2"
     inkscape:zoom="0.7"
     inkscape:cx="333.96071"
     inkscape:cy="480.90862"
     inkscape:document-units="mm"
     inkscape:current-layer="layer1"
     showgrid="false"
     inkscape:snap-grids="true"
     inkscape:snap-midpoints="true"
     inkscape:snap-intersection-paths="true"
     inkscape:snap-bbox="true"
     inkscape:snap-bbox-edge-midpoints="false"
     inkscape:window-width="1366"
     inkscape:window-height="715"
     inkscape:window-x="0"
     inkscape:window-y="0"
     inkscape:window-maximized="1"
     inkscape:object-nodes="false"
     inkscape:snap-global="false"
     inkscape:snap-text-baseline="true"
     inkscape:snap-smooth-nodes="true"
     showguides="false"
     inkscape:guide-bbox="true"
     inkscape:snap-object-midpoints="true">
    <sodipodi:guide
       position="94.210568,110.93601"
       orientation="1,0"
       id="guide20414"
       inkscape:locked="false" />
  </sodipodi:namedview>
  <metadata
     id="metadata5">
    <rdf:RDF>
      <cc:Work
         rdf:about="">
        <dc:format>image/svg+xml</dc:format>
        <dc:type
           rdf:resource="http://purl.org/dc/dcmitype/StillImage" />
        <dc:title />
      </cc:Work>
    </rdf:RDF>
  </metadata>
  <g
     inkscape:label="Layer 1"
     inkscape:groupmode="layer"
     id="layer1"
     transform="translate(0,-87)">
    <rect
       style="opacity:1;fill:url(#radialGradient20436);fill-opacity:1;stroke:#000000;stroke-width:0.35428691;stroke-linecap:round;stroke-linejoin:round;stroke-miterlimit:4;stroke-dasharray:none;stroke-opacity:1"
       id="rect19066"
       width="96.690742"
       height="91.697128"
       x="104.68027"
       y="140.5415"
       ry="13.545369"
       inkscape:export-xdpi="200"
       inkscape:export-ydpi="200" />
    <g
       id="line2d_1"
       style="stroke-linecap:butt;stroke-linejoin:round"
       transform="matrix(0.35637673,0,0,0.24624999,-74.974031,40.429445)">
      <path
         id="path19094"
         style="fill:none;stroke:url(#linearGradient19132);stroke-width:2;stroke-linecap:square;stroke-linejoin:round"
         d="m 41.086761,389.22489 0.05824,0.0241 0.116477,-1.52245 0.349433,-4.25187 0.291194,-1.52022 0.232955,-0.42425 0.174716,-0.0196 0.232955,0.23457 0.407671,0.81078 1.86364,4.12828 0.815343,1.12033 0.815342,0.75877 0.93182,0.56058 1.106536,0.39629 1.455969,0.27131 1.86364,0.23975 0.349432,-60.74852 0.349433,-26.19252 0.291194,-6.8975 0.116477,-0.39232 0.116478,0.56334 0.232954,3.21545 0.46591,11.01189 1.514208,38.05618 0.757104,12.91229 0.698865,8.5001 0.698865,6.02434 0.698865,4.22903 0.698865,2.95449 0.698864,2.05906 0.698865,1.43321 0.757104,1.06483 0.815343,0.76279 0.640626,0.40926 0.116477,1.0346 h 2.038357 l 0.349432,-122.55539 0.349432,-52.84135 0.291194,-13.91516 0.116478,-0.79148 0.116477,1.13649 0.232955,6.48693 0.46591,22.21561 1.514208,76.77538 0.757103,26.04953 0.698865,17.14828 0.698865,12.15363 0.698865,8.53173 0.698865,5.96047 0.698865,4.15398 0.698865,2.8914 0.698865,2.01129 0.698865,1.39861 0.757104,1.0386 0.05824,0.0642 0.116477,2.08724 h 27.546922 l 0.34944,-5.06731 0.34943,-2.18484 0.29119,-0.57535 0.17472,-0.0181 0.23295,0.21599 0.40768,0.74653 1.86363,3.8012 0.58239,0.77545 0.34943,-17.82957 0.34944,-7.53308 0.23295,-1.69624 0.17472,-0.18289 0.17471,0.454 0.2912,1.66122 0.69886,5.79687 1.0483,8.10425 0.75711,4.20578 0.7571,2.97102 0.69886,1.91642 0.75711,1.43757 0.87358,1.15004 0.87358,0.67539 0.99006,0.47309 1.22301,0.33069 0.34943,0.0618 0.11648,0.31002 h 23.2955 l 0.34943,-10.61723 0.34944,-4.57776 0.29119,-1.2055 0.17472,-0.0378 0.17471,0.29767 0.34943,1.20971 2.27132,9.33969 0.7571,1.77515 0.7571,1.22768 0.81535,0.88994 0.87358,0.61888 1.04829,0.45347 0.2912,0.088 0.34943,-125.00597 0.34943,-53.86193 0.2912,-14.15097 0.11647,-0.78898 0.11648,1.17784 0.23296,6.65389 0.46591,22.73036 1.5142,78.5646 0.75711,26.58942 0.69886,17.50369 0.69887,12.40552 0.69886,8.70855 0.69887,6.084 0.69886,4.24008 0.69887,2.95132 0.69886,2.05298 0.69887,1.4276 0.7571,1.06012 0.0582,0.0656 0.7571,-27.61699 0.23296,-1.56255 0.11648,-0.1309 0.11647,0.18796 0.23296,1.07287 0.46591,3.67421 1.51421,12.69777 0.7571,4.3083 0.7571,3.03171 0.69887,1.95221 0.7571,1.46321 0.75711,0.99162 0.81534,0.7118 0.93182,0.51816 1.16477,0.37768 0.52415,0.10823 0.11648,0.3452 h 6.28978 l 0.34944,-38.10012 0.34943,-16.42736 0.29119,-4.32596 0.11648,-0.24605 0.11648,0.35331 0.23295,2.01666 0.46591,6.90641 1.51421,23.86799 0.7571,8.0983 0.69887,5.33107 0.69886,3.77834 0.69887,2.65235 0.69886,1.85299 0.75711,1.37937 0.7571,0.9315 0.81534,0.66748 0.93182,0.48547 0.34944,0.12937 0.11647,0.64888 h 6.28979 l 0.34943,-8.46669 0.34943,-3.65052 0.2912,-0.96133 0.17471,-0.0302 0.23296,0.36088 0.40767,1.24735 1.8054,6.20221 0.7571,1.66455 0.75711,1.16331 0.81534,0.84748 0.87358,0.59078 1.0483,0.43337 1.33949,0.30041 1.45597,0.29837 0.34943,-24.73332 0.34943,-10.6641 0.2912,-2.80827 0.11648,-0.15973 0.11647,0.22936 0.23296,1.30915 0.46591,4.48341 1.5142,15.4943 0.75711,5.25715 0.69886,3.46075 0.69887,2.45277 0.69886,1.72182 0.75711,1.28492 0.7571,0.86883 0.87358,0.65818 0.99006,0.46077 0.93182,0.26278 0.11648,0.42123 h 2.03835 l 0.34944,-32.80843 0.34943,-14.14579 0.29119,-3.72513 0.11648,-0.21188 0.11648,0.30424 0.23295,1.73657 0.46591,5.94719 1.51421,20.55299 0.7571,6.97354 0.69887,4.59064 0.69886,3.25356 0.69887,2.28397 0.69886,1.59564 0.75711,1.18779 0.81534,0.85173 0.87358,0.58914 1.0483,0.43057 0.11648,0.0349 0.11647,0.55876 h 31.79836 l 0.34943,-14.60504 0.34944,-6.29716 0.29119,-1.65828 0.17472,-0.052 0.17471,0.40947 0.34943,1.66407 2.27132,12.84767 0.29119,1.04383 0.34943,-107.08459 0.34943,-45.72599 0.23296,-10.63573 0.11648,-1.46761 0.0582,0.004 0.11647,1.22308 0.23296,6.12813 0.46591,20.28243 1.45597,66.97745 0.7571,23.96249 0.69887,15.80382 0.69886,11.21017 0.69886,7.87272 0.75711,6.05456 0.69886,3.66612 0.69887,2.55182 0.69886,1.77508 0.75711,1.31838 0.7571,0.88927 0.11648,1.8421 h 16.88924 l 0.34943,-8.56617 0.34943,-3.69342 0.29119,-0.97262 0.17472,-0.0305 0.23296,0.36513 0.40767,1.262 1.8054,6.27509 0.7571,1.6841 0.75711,1.17698 0.81534,0.85744 0.87358,0.59772 1.0483,0.43846 1.33949,0.30395 2.62074,0.30187 h 11.58951 l 0.34944,-4.34341 0.34943,-1.87272 0.29119,-0.49316 0.23296,0.0122 0.29119,0.31031 0.58239,1.04897 0.34943,-6.30778 0.29119,-2.1536 0.23296,-0.51463 0.17471,0.0666 0.23296,0.48059 0.46591,1.66717 0.40767,1.70885 0.34943,-7.50091 0.2912,-2.34666 0.17471,-0.36991 0.11648,0.0502 0.17472,0.40082 0.34943,1.54531 2.21307,11.45916 0.75711,2.26828 0.7571,1.57048 0.7571,1.07248 0.93182,0.91521 0.93182,0.50893 0.69887,0.3646 0.34943,-5.35407 0.34943,-2.27818 0.2912,-0.57223 0.17471,0.004 0.23296,0.2596 0.46591,0.98296 1.68892,3.91486 0.81534,1.16533 0.81535,0.79262 0.93182,0.58673 1.10653,0.41515 1.28126,0.26043 0.34943,-33.49508 0.34943,-14.42342 0.29119,-3.78139 0.11648,-0.20694 0.11648,0.32013 0.23295,1.79196 0.46591,6.10772 1.51421,21.11306 0.7571,7.1292 0.69887,4.69312 0.69886,3.32619 0.69887,2.33495 0.69886,1.63126 0.75711,1.2143 0.81534,0.87075 0.87358,0.60229 1.0483,0.44017 0.11648,0.0357 0.11647,0.57123 h 10.54122 l 0.34943,-24.97462 0.34943,-10.76814 0.2912,-2.83567 0.11647,-0.16129 0.11648,0.2316 0.23296,1.32192 0.46591,4.52715 1.5142,15.64547 0.75711,5.30844 0.69886,3.49452 0.69887,2.47669 0.69886,1.73862 0.75711,1.29745 0.7571,0.87731 0.87358,0.6646 0.99006,0.46527 0.93182,0.26534 0.11648,0.42534 h 25.39209 l 0.34943,-9.41073 0.34944,-4.05755 0.29119,-1.06852 0.17472,-0.0335 0.17471,0.26384 0.34943,1.07224 2.27132,8.27836 0.7571,1.57343 0.7571,1.08817 0.81535,0.78881 0.93182,0.57707 1.10653,0.40604 1.45597,0.27742 0.81534,0.0847 0.17472,0.16027 h 1.98012 l 0.34943,-37.25345 0.34943,-16.06231 0.2912,-4.22982 0.11647,-0.24059 0.11648,0.34546 0.23296,1.97185 0.46591,6.75293 1.5142,23.33759 0.75711,7.91834 0.69886,5.2126 0.69887,3.69437 0.69886,2.59341 0.69887,1.81182 0.7571,1.34871 0.7571,0.9108 0.34944,-14.64686 0.34943,-6.1888 0.23295,-1.39384 0.17472,-0.15056 0.17472,0.37262 0.29119,1.36413 0.52415,3.51145 0.23295,2.22531 0.99006,6.01622 0.75711,3.34508 0.7571,2.36652 0.7571,1.6322 0.75711,1.11262 0.81534,0.80094 0.87358,0.55507 0.46591,0.20787 0.34943,-6.50975 0.34944,-2.75602 0.23295,-0.62452 0.17472,-0.071 0.23295,0.25392 0.40767,0.98476 2.03836,5.67009 0.7571,1.20413 0.81535,0.88898 0.87358,0.62369 1.04829,0.45892 1.3395,0.31856 1.92187,0.20009 3.78552,0.11649 h 13.33668 l 0.34943,-163.84322 0.34943,-70.64313 0.29119,-18.60307 0.11648,-1.05812 0.11648,1.51937 0.23295,8.67231 0.46591,29.69986 1.51421,102.64032 0.75711,34.8254 0.69886,22.92538 0.69887,16.24809 0.69886,11.40599 0.0582,0.77893 0.29119,-4.62997 0.23296,-1.09189 0.11648,0.0328 0.17471,0.55829 0.34943,2.28423 2.27132,17.68492 0.7571,3.36313 0.0582,0.21155 0.11648,3.03169 0.7571,1.27644 0.81534,0.9299 0.87358,0.64823 0.99006,0.45532 1.28125,0.32938 2.56251,0.34783 h 9.60939 l 0.34943,-6.63577 0.34944,-2.8611 0.29119,-0.75343 0.17472,-0.0236 0.23295,0.28284 0.40767,0.97761 0.34944,1.03506 0.34943,-6.55143 0.29119,-2.10774 0.23296,-0.38888 0.17471,0.19067 0.2912,0.8857 0.64062,3.0056 1.10654,5.0065 0.7571,2.46255 0.75711,1.74285 0.7571,1.20226 0.81534,0.87046 0.87359,0.60497 1.04829,0.44314 1.68893,0.41395 3.02841,0.19784 h 12.69605 l 0.34943,-127.0004 0.34943,-54.75788 0.2912,-14.41986 0.11647,-0.82018 0.11648,1.17771 0.23296,6.7222 0.46591,23.02137 1.5142,79.55997 0.75711,26.99433 0.69886,17.77024 0.69887,12.59444 0.69886,8.84117 0.69887,6.17665 0.69886,4.30464 0.69887,2.99627 0.69886,2.08424 0.69887,1.44934 0.7571,1.07627 0.0582,0.0665 0.11648,2.16294 h 2.03835 l 0.34944,-180.97557 0.34943,-78.02998 0.29119,-20.5483 0.11648,-1.16876 0.11648,1.67824 0.23295,9.57913 0.46591,32.80545 1.51421,113.37296 0.7571,38.46693 0.69887,25.32258 0.69886,17.94708 0.69887,12.59867 0.69886,8.80173 0.69887,6.13411 0.69886,4.26969 0.69887,2.97003 0.69886,2.06532 0.69887,1.43594 0.11648,0.19256 0.11647,3.08219 h 2.03836 l 0.34943,-6.13835 0.34943,-2.64663 0.2912,-0.69696 0.17471,-0.0219 0.23296,0.26165 0.40767,0.90432 1.8054,4.49661 0.64063,1.04737 0.34943,-8.7166 0.34943,-3.57128 0.23296,-0.72562 0.17471,-0.005 0.23296,0.46331 0.40767,1.52856 1.74716,7.28627 0.75711,2.04952 0.7571,1.43466 0.7571,0.98471 1.0483,0.94742 0.99006,0.44941 1.28125,0.3251 2.56251,0.34331 h 7.45456 l 0.34943,-68.36855 0.34943,-29.47799 0.2912,-7.76269 0.11647,-0.44153 0.11648,0.634 0.23296,3.61879 0.46591,12.39316 1.5142,42.82979 0.75711,14.53195 0.69886,9.56631 0.69887,6.78001 0.69886,4.75949 0.69887,3.3251 0.69886,2.31733 0.69887,1.61299 0.11647,0.2164 0.34944,-69.06269 0.34943,-29.54533 0.23295,-6.91047 0.17472,-0.98574 0.11648,0.76036 0.23295,3.89538 0.46591,12.97316 1.51421,44.90058 0.7571,14.80189 0.69887,9.74401 0.69886,6.90596 0.69887,4.8479 0.69886,3.38687 0.69887,2.36038 0.69886,1.64295 0.75711,1.22066 0.7571,0.8235 0.69887,0.52006 0.11647,1.18601 h 10.54122 l 0.34943,-11.82373 0.34943,-5.09796 0.2912,-1.34249 0.17471,-0.0421 0.17472,0.3315 0.34943,1.34717 2.27131,10.40102 0.75711,1.97687 0.7571,1.36718 0.7571,0.93316 0.81535,0.67218 0.93182,0.49017 1.16477,0.35759 2.44603,0.42948 h 3.31961 l 0.34943,-6.39447 0.34943,-2.75705 0.29119,-0.72604 0.17472,-0.0228 0.23296,0.27256 0.40767,0.94205 1.8054,4.68422 0.81534,1.3368 0.81534,0.90726 0.87358,0.63766 0.23296,0.12725 0.34943,-10.09083 0.34943,-4.28435 0.23296,-0.97946 0.17472,-0.11937 0.17471,0.24069 0.2912,0.91334 0.69886,3.22306 1.0483,4.52406 0.7571,2.35057 0.81534,1.84333 0.75711,1.08668 0.81534,0.78624 0.93182,0.57463 1.10654,0.40415 1.45597,0.27607 0.64062,0.0691 0.17472,0.17465 h 1.98012 l 0.34943,-42.7568 0.34943,-18.43515 0.29119,-4.85469 0.11648,-0.27613 0.11648,0.3965 0.23295,2.26314 0.46591,7.75053 1.51421,26.78519 0.75711,9.08809 0.69886,5.98265 0.69886,4.24013 0.69887,2.97652 0.69887,2.07948 0.69886,1.44923 0.7571,1.07743 0.81535,0.77208 0.93182,0.56156 0.40767,0.17205 0.11647,0.72819 h 12.69605 l 0.34943,-9.41073 0.34944,-4.05755 0.29119,-1.06852 0.17472,-0.0335 0.17471,0.26384 0.34944,1.07224 2.27131,8.27836 0.29119,0.6726 0.34943,-5.33829 0.2912,-1.835 0.23295,-0.44952 0.17472,0.0447 0.23295,0.39055 0.46591,1.37923 1.51421,4.82485 0.7571,1.6424 0.75711,1.15637 0.81534,0.84534 1.22301,0.88724 1.22302,0.34582 1.68892,0.22774 3.26137,0.16185 h 6.11507 l 0.34943,-57.99685 0.34943,-25.00609 0.2912,-6.58507 0.11648,-0.37456 0.11647,0.53783 0.23296,3.0698 0.46591,10.51309 1.51421,36.33239 0.7571,12.32741 0.69887,8.11508 0.69886,5.75146 0.69886,4.03746 0.11648,0.54333 0.34943,-6.80749 0.2912,-2.16657 0.23295,-0.3775 0.17472,0.22031 0.29119,0.95874 0.64063,3.20344 1.10654,5.30689 0.7571,2.60604 0.34943,0.93414 0.17472,1.31384 0.7571,1.13423 0.81534,0.82629 0.40768,0.30101 0.34943,-4.2327 0.34943,-1.73923 0.23296,-0.35704 0.23295,0.0282 0.29119,0.36195 0.58239,1.19529 1.22302,2.49689 0.81534,1.16545 1.0483,1.06561 0.99005,0.51855 1.16478,0.35296 1.63068,0.24319 3.1449,0.18226 h 15.60798 l 0.34943,-6.56168 0.34944,-2.82916 0.29119,-0.74503 0.17472,-0.0234 0.23295,0.27969 0.40767,0.96669 1.8054,4.80671 0.81535,1.37176 0.81534,0.93098 0.87358,0.65434 0.99006,0.46138 1.28125,0.33434 1.8054,0.21521 0.40767,0.0264 0.40767,-13.7242 0.34944,-4.57915 0.23295,-0.9673 0.17472,-0.0447 0.17471,0.35179 0.34944,1.42965 2.27131,11.03782 0.7571,2.0979 0.7571,1.45089 0.75711,0.99029 0.81534,0.71333 0.93182,0.52018 0.52415,0.19925 0.34943,-34.40032 0.34943,-14.78957 0.2912,-3.85573 0.11648,-0.2005 0.11647,0.34102 0.23296,1.86485 0.46591,6.3191 1.51421,21.85048 0.7571,7.33436 0.69887,4.82817 0.69886,3.42191 0.69887,2.40214 0.69886,1.6782 0.7571,1.24925 0.75711,0.84362 0.87358,0.63867 0.99006,0.44697 0.23295,0.0757 0.11648,0.58767 h 4.19319 l 0.34943,-7.11837 0.34943,-3.06918 0.2912,-0.80823 0.17471,-0.0254 0.23296,0.30342 0.40767,1.0487 1.8054,5.21451 0.7571,1.39947 0.81535,1.03922 0.81534,0.69183 0.93182,0.50712 1.16478,0.37087 1.57244,0.24915 3.02842,0.19686 h 0.0582 l 0.34944,-10.85853 0.34943,-4.6818 0.29119,-1.2329 0.17472,-0.0387 0.17472,0.30444 0.34943,1.2372 0.40767,1.92584 0.34943,-17.21727 0.2912,-5.94325 0.23295,-1.47796 0.11648,-0.0117 0.17471,0.62351 0.2912,2.17616 0.7571,8.12527 0.99006,9.74848 0.7571,5.38613 0.75711,3.80301 0.69886,2.45256 0.69887,1.72195 0.7571,1.28513 0.75711,0.86901 1.22301,1.00281 1.16477,0.36381 0.58239,0.11417 0.0582,0.3226 0.34943,-2.75167 0.34944,-1.18642 0.29119,-0.31243 0.29119,0.0338 0.40767,0.34707 2.38779,2.50243 0.99006,0.54001 1.16478,0.37355 1.57244,0.25309 2.50427,0.14605 5.88211,0.0545 h 9.3182 l 0.34944,-10.61723 0.34943,-4.57776 0.29119,-1.2055 0.17472,-0.0378 0.17471,0.29767 0.34944,1.20971 2.27131,9.33969 0.7571,1.77515 0.75711,1.22768 0.81534,0.88994 0.87358,0.61888 1.0483,0.45347 0.29119,0.088 0.34943,-6.18439 0.34943,-2.63046 0.2912,-0.65975 0.17471,0.006 0.23296,0.30093 0.46591,1.13745 1.68892,4.52962 0.81534,1.34659 0.81535,0.91593 0.87358,0.64438 0.99006,0.45456 1.28125,0.32947 1.8054,0.2121 3.49433,0.13615 h 7.62927 l 0.34944,-10.37593 0.34943,-4.47372 0.29119,-1.1781 0.17472,-0.037 0.17471,0.29091 0.34944,1.18221 2.27131,9.12743 0.7571,1.7348 0.7571,1.19977 0.81535,0.86972 0.87358,0.60482 1.0483,0.44316 1.33949,0.30704 1.04829,0.12816 0.17472,0.17671 h 4.07671 l 0.34943,-39.58179 0.34944,-17.0662 0.29119,-4.49419 0.11648,-0.25563 0.11648,0.36706 0.23295,2.09508 0.46591,7.175 1.51421,24.79619 0.7571,8.41323 0.69887,5.53839 0.69886,3.92527 0.69887,2.75549 0.69886,1.92506 0.75711,1.43301 0.7571,0.96772 0.34943,-4.32328 0.2912,-1.56362 0.23295,-0.45154 0.17472,-0.0368 0.23295,0.21522 0.40767,0.78425 0.40768,0.98517 0.17471,1.04586 1.10654,2.08845 0.81534,1.08007 0.87358,0.78258 0.93182,0.53379 1.10654,0.37808 1.51421,0.26589 2.91193,0.22216 h 11.88071 l 0.34943,-3.81001 0.34943,-1.64273 0.2912,-0.4326 0.23295,0.0107 0.29119,0.27219 0.64063,1.0215 1.22301,1.91155 0.87358,0.93525 0.87359,0.62244 1.04829,0.46428 0.17472,0.056 0.34943,-4.34702 0.34944,-1.8347 0.29119,-0.44693 0.23295,0.0528 0.2912,0.36159 0.64062,1.26808 1.16478,2.22969 0.81534,1.0938 0.93182,0.87775 0.93182,0.50953 1.16478,0.37477 1.57244,0.25239 3.02842,0.1996 h 7.39632 l 0.34943,-68.79188 0.34943,-29.66052 0.2912,-7.81076 0.11647,-0.44426 0.11648,0.63792 0.23296,3.6412 0.46591,12.4699 1.5142,43.09499 0.75711,14.62193 0.69886,9.62554 0.69887,6.82199 0.69886,4.78897 0.69887,3.34569 0.69886,2.33168 0.69887,1.62298 0.7571,1.20581 0.81534,0.86379 0.64063,0.46344 0.11648,1.17159 h 8.32814 v 0"
         clip-path="url(#p4639987940)"
         inkscape:connector-curvature="0"
         transform="matrix(0.86362944,0,0,0.75500331,6.7621569,-238.14138)" />
    </g>
    <ellipse
       style="opacity:1;fill:url(#linearGradient34293);fill-opacity:1;stroke:#000000;stroke-width:0.81;stroke-linecap:butt;stroke-linejoin:round;stroke-miterlimit:4;stroke-dasharray:none;stroke-opacity:1"
       id="path4520"
       cx="152.98672"
       cy="186.52545"
       rx="42.895462"
       ry="40.24963" />
    <path
       sodipodi:nodetypes="cccccccccccccscccscscccccccccssscc"
       style="fill:#ffffff;stroke:#000000;stroke-width:0.28;stroke-linecap:round;stroke-linejoin:miter;stroke-miterlimit:4;stroke-dasharray:none;stroke-opacity:1"
       d="m 181.14909,216.54052 -4.29692,-2.02612 -4.47266,0.24196 -3.63784,-0.61621 -4.90534,-0.52991 -4.57323,-0.87631 -4.48253,0.12056 -2.92683,0.53392 -2.36378,0.76753 -1.8027,1.49111 -1.39889,1.01715 -1.71681,0.0263 -1.2388,-0.91139 c -1.67308,-0.31449 -0.59048,0.39108 -2.24324,0.24905 -0.39852,-0.0343 -1.08617,0.16177 -1.6785,-0.37219 l -0.7955,-1.48612 0.22631,-2.07411 c 0.08,-0.60924 0.0208,-1.0677 0.56777,-1.80518 0.76936,-1.03732 1.11618,-0.75629 1.40946,-1.76095 -0.079,-0.18289 0.54083,-1.26635 0.1135,-1.05253 -0.36693,0.18361 -1.16369,0.83695 -1.4345,1.04527 l -1.06115,0.96118 -0.86627,0.74765 -0.83287,1.2698 -0.52698,1.97685 -1.09109,1.74577 -2.88876,0.54491 -3.56524,0.4459 -2.94683,1.06371 c 0,0 1.16906,1.00134 3.30797,2.46161 1.39031,0.94919 2.71984,1.65798 5.59394,3.07988 4.49259,2.22261 12.30816,3.75036 18.79189,3.79817 10.01049,0.0738 18.28263,-3.52053 22.19886,-5.93277 1.96472,-1.28193 3.31213,-2.36647 5.53756,-4.14449 z"
       id="path34317"
       inkscape:connector-curvature="0"
       inkscape:tile-x0="69.534863"
       inkscape:tile-y0="184.91799" />
    <path
       style="fill:none;stroke:#000000;stroke-width:0.87678939;stroke-linecap:round;stroke-linejoin:miter;stroke-miterlimit:4;stroke-dasharray:none;stroke-opacity:1"
       d="M 195.3696,186.52548 H 110.20354"
       id="path18789"
       inkscape:connector-curvature="0"
       inkscape:tile-cx="112.82588"
       inkscape:tile-cy="185.30803"
       inkscape:tile-w="86.582028"
       inkscape:tile-h="0.78007795"
       inkscape:tile-x0="69.534863"
       inkscape:tile-y0="184.91799" />
    <path
       inkscape:tile-y0="184.91799"
       inkscape:tile-x0="69.534863"
       inkscape:connector-curvature="0"
       id="use18989"
       d="M 195.18731,192.22005 H 110.88539"
       style="fill:none;stroke:#000000;stroke-width:0.57999998;stroke-linecap:round;stroke-linejoin:miter;stroke-miterlimit:4;stroke-dasharray:none;stroke-opacity:1" />
    <path
       inkscape:tile-y0="184.91799"
       inkscape:tile-x0="69.534863"
       inkscape:connector-curvature="0"
       id="use18991"
       d="M 193.79613,197.91462 H 112.07485"
       style="fill:none;stroke:#000000;stroke-width:0.57999998;stroke-linecap:round;stroke-linejoin:miter;stroke-miterlimit:4;stroke-dasharray:none;stroke-opacity:1" />
    <path
       inkscape:tile-y0="184.91799"
       inkscape:tile-x0="69.534863"
       inkscape:connector-curvature="0"
       id="use18993"
       d="M 191.51417,203.60919 H 114.35581"
       style="fill:none;stroke:#000000;stroke-width:0.57999998;stroke-linecap:round;stroke-linejoin:miter;stroke-miterlimit:4;stroke-dasharray:none;stroke-opacity:1" />
    <path
       inkscape:tile-y0="184.91799"
       inkscape:tile-x0="69.534863"
       inkscape:connector-curvature="0"
       id="use18995"
       d="M 188.14621,209.30376 H 117.82618"
       style="fill:none;stroke:#000000;stroke-width:0.57999998;stroke-linecap:round;stroke-linejoin:miter;stroke-miterlimit:4;stroke-dasharray:none;stroke-opacity:1" />
    <path
       inkscape:tile-y0="184.91799"
       inkscape:tile-x0="69.534863"
       inkscape:connector-curvature="0"
       id="use18997"
       d="M 182.89878,214.99832 H 122.87913"
       style="fill:none;stroke:#000000;stroke-width:0.57999998;stroke-linecap:round;stroke-linejoin:miter;stroke-miterlimit:4;stroke-dasharray:none;stroke-opacity:1" />
    <path
       inkscape:tile-y0="184.91799"
       inkscape:tile-x0="69.534863"
       inkscape:connector-curvature="0"
       id="use18999"
       d="M 175.36329,220.69289 H 130.40213"
       style="fill:none;stroke:#000000;stroke-width:0.57999998;stroke-linecap:round;stroke-linejoin:miter;stroke-miterlimit:4;stroke-dasharray:none;stroke-opacity:1" />
    <path
       style="fill:none;stroke:#000000;stroke-width:0.57999998;stroke-linecap:round;stroke-linejoin:miter;stroke-miterlimit:4;stroke-dasharray:none;stroke-opacity:1"
       d="M 195.18731,180.83091 H 110.88539"
       id="path19019"
       inkscape:connector-curvature="0"
       inkscape:tile-x0="69.534863"
       inkscape:tile-y0="184.91799" />
    <path
       style="fill:none;stroke:#000000;stroke-width:0.57999998;stroke-linecap:round;stroke-linejoin:miter;stroke-miterlimit:4;stroke-dasharray:none;stroke-opacity:1"
       d="M 193.79613,175.13634 H 112.07485"
       id="path19021"
       inkscape:connector-curvature="0"
       inkscape:tile-x0="69.534863"
       inkscape:tile-y0="184.91799" />
    <path
       style="fill:none;stroke:#000000;stroke-width:0.57999998;stroke-linecap:round;stroke-linejoin:miter;stroke-miterlimit:4;stroke-dasharray:none;stroke-opacity:1"
       d="M 191.51417,169.44177 H 114.35581"
       id="path19023"
       inkscape:connector-curvature="0"
       inkscape:tile-x0="69.534863"
       inkscape:tile-y0="184.91799" />
    <path
       style="fill:none;stroke:#000000;stroke-width:0.57999998;stroke-linecap:round;stroke-linejoin:miter;stroke-miterlimit:4;stroke-dasharray:none;stroke-opacity:1"
       d="M 188.14621,163.7472 H 117.82617"
       id="path19025"
       inkscape:connector-curvature="0"
       inkscape:tile-x0="69.534863"
       inkscape:tile-y0="184.91799" />
    <path
       style="fill:none;stroke:#000000;stroke-width:0.57999998;stroke-linecap:round;stroke-linejoin:miter;stroke-miterlimit:4;stroke-dasharray:none;stroke-opacity:1"
       d="M 182.89879,158.05263 H 122.87913"
       id="path19027"
       inkscape:connector-curvature="0"
       inkscape:tile-x0="69.534863"
       inkscape:tile-y0="184.91799" />
    <g
       style="stroke:url(#linearGradient19204);stroke-linecap:butt;stroke-linejoin:round"
       id="axes_1"
       transform="matrix(0.3131287,0,0,0.25378647,164.25597,-53.010917)">
      <g
         style="stroke:url(#linearGradient19208);stroke-linecap:butt;stroke-linejoin:round"
         id="line2d_1-5">
        <path
           inkscape:connector-curvature="0"
           clip-path="url(#p0e21f281bd)"
           d="m 41.100848,379.90664 0.61813,3.49152 0.618129,2.29061 0.61813,1.50053 0.662282,1.03781 0.706434,0.69309 0.04415,0.0332 0.309065,-238.39059 0.264912,-79.254542 0.220761,-17.920921 0.04415,-0.223225 0.0883,2.013887 0.176609,11.494968 0.397369,45.009803 1.147955,134.51622 0.662282,50.62712 0.618129,31.70513 0.61813,21.10665 0.61813,13.91849 0.618129,9.13918 0.61813,5.98932 0.61813,3.92156 0.618129,2.56663 0.397369,1.15955 0.04415,3.69863 0.04415,-1.0973 0.309064,-4.79605 0.264913,-1.50916 0.220761,-0.27057 0.176608,0.153 0.309065,0.68027 1.633628,4.15824 0.706434,1.00619 0.706434,0.6376 0.838891,0.4527 1.05965,0.30206 1.545325,0.185 3.1348,0.098 h 0.309065 l 0.309065,-12.63861 0.264912,-4.18288 0.220761,-0.94582 0.0883,0.0214 0.176609,0.48855 0.353217,1.97574 1.324563,8.1091 0.662282,2.53498 0.662282,1.67052 0.662282,1.07729 0.706434,0.72426 0.794738,0.48953 0.971346,0.32881 0.838891,0.15194 0.132456,0.1952 h 3.1348 l 0.309065,-35.92026 0.264913,-11.88818 0.22076,-2.68814 0.04415,-0.0335 0.04415,0.0943 0.132456,0.91331 0.309065,4.4798 0.264913,5.00933 0.264912,-7.94885 0.176609,-1.03884 0.0883,0.291 0.176609,1.66988 0.397369,6.54729 1.147955,19.57694 0.662281,7.36903 0.309065,2.53738 0.309065,-10.82712 0.264913,-2.79789 0.0883,-0.15923 0.04415,0.0228 0.132457,0.39292 0.264912,1.76071 1.898541,15.05473 0.838891,3.62903 0.618129,1.35688 0.883043,1.33246 0.750586,0.5084 0.927194,0.3557 1.898541,0.40011 h 26.535428 l 0.30906,-8.64747 0.26492,-2.86197 0.22076,-0.64714 0.13245,0.0647 0.22076,0.56028 0.48568,2.10257 0.97134,4.08665 0.66229,1.87625 0.66228,1.24534 0.66228,0.80547 0.26491,0.23426 0.30907,-10.51133 0.26491,-3.39473 0.22076,-0.69153 0.13246,0.13977 0.22076,0.78354 0.52982,3.03375 0.9272,4.99062 0.75058,2.77351 0.66228,1.46038 0.66229,0.94266 0.70643,0.63399 0.83889,0.44626 1.05965,0.29666 0.75059,0.11173 0.13245,0.16582 h 3.09065 l 0.30907,-41.5452 0.26491,-13.74982 0.22076,-3.10909 0.0442,-0.0387 0.0442,0.10904 0.13246,1.05633 0.30906,5.18131 1.58948,31.07305 0.66228,7.48106 0.61813,4.62815 0.61813,3.06567 0.61813,2.01707 0.61813,1.3231 0.66228,0.91566 0.70644,0.61169 0.61813,0.33903 0.13245,0.64167 h 17.6167 l 0.30906,-15.29937 0.26492,-5.06348 0.22076,-1.14495 0.0883,0.0259 0.17661,0.59141 0.35322,2.39168 1.32456,9.81628 0.66228,3.06867 0.61813,1.91298 0.66228,1.34328 0.66228,0.8588 0.75059,0.60275 0.88304,0.40711 1.05965,0.25265 0.13246,0.2363 h 6.35791 l 0.30906,-6.91797 0.26491,-2.28958 0.22076,-0.51771 0.13246,0.0517 0.22076,0.44822 0.48567,1.68206 0.97135,3.26931 0.66228,1.50101 0.66228,0.99627 0.70644,0.67799 0.79474,0.46072 1.0155,0.31995 0.30906,-11.60925 0.26491,-3.81955 0.22076,-0.84319 0.0883,0.0306 0.17661,0.47091 0.35321,1.85741 1.32457,7.60824 0.66228,2.34071 0.66228,1.54249 0.66228,0.99473 0.70644,0.66875 0.79473,0.45202 1.0155,0.31317 0.79474,0.13073 0.13246,0.18024 h 12.75996 l 0.30906,-19.6056 0.26492,-6.48868 0.22076,-1.4672 0.0883,0.0332 0.17661,0.75786 0.35322,3.06486 1.32456,12.57921 0.66228,3.93239 0.61813,2.45141 0.61813,1.62892 0.66228,1.13402 0.70644,0.75968 0.79474,0.51266 0.97134,0.34411 0.26492,0.0604 0.13245,0.30281 h 12.80412 l 0.30906,-18.49228 0.26491,-6.12021 0.22076,-1.3839 0.0883,0.0313 0.17661,0.71483 0.35321,2.89082 1.32457,11.86489 0.66228,3.70909 0.61813,2.31221 0.61813,1.53641 0.66228,1.06963 0.70643,0.71654 0.79474,0.48355 0.97135,0.32456 0.26491,0.0569 0.13246,0.28561 h 6.31375 l 0.30907,-4.9014 0.26491,-1.62217 0.22076,-0.3668 0.17661,0.0787 0.26491,0.46015 2.031,4.38686 0.70643,0.74296 0.79474,0.51058 0.97135,0.34537 1.32456,0.21829 2.56082,0.14743 h 4.90089 l 0.30906,-50.64781 0.26492,-16.76241 0.22076,-3.79029 0.0442,-0.0472 0.0883,0.42593 0.17661,2.4312 0.39737,9.51962 1.14796,28.45031 0.66228,10.70769 0.61813,6.70566 0.61813,4.46408 0.61813,2.94377 0.61813,1.93295 0.61813,1.26675 0.66228,0.87627 0.70643,0.58526 0.26491,0.15597 0.0883,-1.52245 0.30906,-4.67041 0.26492,-1.38159 0.1766,-0.17988 0.17661,0.17022 0.30907,0.75682 1.63363,4.6262 0.66228,1.06318 0.70643,0.73035 0.79474,0.49834 0.97135,0.33607 1.36871,0.21644 0.61813,0.13897 0.30907,-66.98581 0.26491,-22.16964 0.22076,-5.01297 0.0442,-0.0624 0.0883,0.56334 0.1766,3.21545 0.39737,12.59046 1.14796,37.62783 0.66228,14.16178 0.61813,8.86879 0.61813,5.9041 0.61813,3.89337 0.61813,2.55648 0.61813,1.67538 0.66228,1.15894 0.66228,0.73589 0.30907,0.24445 0.13245,1.0346 h 1.50118 l 0.30906,-135.13863 0.26491,-44.72551 0.22076,-10.11327 0.0442,-0.12597 0.0883,1.13649 0.17661,6.48693 0.39737,25.40026 1.14795,75.91121 0.66228,28.57027 0.61813,17.89208 0.61813,11.91106 0.61813,7.85458 0.61813,5.1575 0.61813,3.37993 0.61813,2.21305 0.61813,1.44842 0.39737,0.65436 0.13246,2.08724 h 20.8398 l 0.30906,-5.58759 0.26492,-1.84928 0.22076,-0.41815 0.17661,0.0897 0.26491,0.52457 1.98684,4.93431 0.30907,-19.64217 0.26491,-6.33653 0.22076,-1.28425 0.0883,0.1126 0.1766,0.91993 0.39737,3.8714 1.19211,12.22856 0.66228,4.38258 0.61813,2.74111 0.61813,1.82386 0.70643,1.40033 0.66229,0.76202 0.75058,0.53393 0.9272,0.37328 0.44152,0.10972 0.13245,0.31002 h 17.6167 l 0.30907,-11.70734 0.26491,-3.87467 0.22076,-0.87613 0.0883,0.0198 0.17661,0.45255 0.35322,1.83016 1.32456,7.51159 0.66228,2.3482 0.66229,1.54742 0.66228,0.99791 0.70643,0.67089 0.79474,0.45347 0.22076,0.088 0.30906,-137.83661 0.26492,-45.58012 0.22076,-10.27184 0.0442,-0.11928 0.0883,1.17784 0.17661,6.65389 0.39737,25.98693 1.14796,77.67661 0.66228,29.1624 0.61813,18.2629 0.61813,12.15792 0.61813,8.01738 0.61813,5.26438 0.61813,3.44999 0.61813,2.25891 0.61813,1.47844 0.39737,0.66793 0.61813,-28.20176 0.22076,-1.10868 0.0883,0.18796 0.22076,1.4481 0.48567,5.43434 0.97135,10.56241 0.66228,4.8494 0.61813,3.04455 0.61813,2.02886 0.61813,1.33852 0.66228,0.9288 0.70644,0.62124 0.83889,0.4362 0.70643,0.21535 0.13246,0.3452 h 4.72428 l 0.30906,-42.012 0.26491,-13.90431 0.22076,-3.14402 0.0442,-0.0392 0.0883,0.35331 0.17661,2.01666 0.39737,7.89646 1.14795,23.59934 0.66228,8.88195 0.61813,5.5623 0.61813,3.70292 0.61813,2.44184 0.61813,1.60337 0.66228,1.11014 0.70644,0.74177 0.79474,0.50001 0.0883,0.0405 0.13246,0.64888 h 4.72427 l 0.30907,-9.336 0.26491,-3.08984 0.22076,-0.69867 0.13246,0.0698 0.22076,0.60488 0.48567,2.26999 0.97135,4.41203 0.66228,2.02565 0.66228,1.34449 0.66228,0.86961 0.75059,0.61345 0.88304,0.41529 1.14796,0.27215 0.66228,0.083 0.0442,0.14419 0.30907,-27.27279 0.26491,-9.02621 0.22076,-2.041 0.0883,0.0462 0.13246,0.69344 0.30906,3.40133 1.58948,20.39823 0.66228,4.91103 0.61813,3.03819 0.61813,2.0125 0.61813,1.32413 0.66228,0.91766 0.70644,0.61344 0.83889,0.4306 0.39737,0.13206 0.13245,0.42123 h 1.50118 l 0.30906,-36.177 0.26491,-11.97316 0.22076,-2.70735 0.0442,-0.0337 0.0442,0.0949 0.13245,0.91984 0.30907,4.51181 1.58948,27.058 0.66228,6.5144 0.61813,4.03014 0.61813,2.66954 0.61813,1.75644 0.66228,1.21727 0.66228,0.77358 0.75059,0.54149 0.52982,0.24501 0.13246,0.55876 h 24.0629 l 0.30907,-16.1046 0.26491,-5.32998 0.22076,-1.20521 0.0883,0.0273 0.17661,0.62253 0.35322,2.51756 1.32456,10.33292 0.48568,2.49203 0.30906,-118.02741 0.26491,-38.58899 0.22076,-8.29752 0.0442,0.004 0.0883,1.22308 0.22076,8.22398 0.52983,32.80963 0.92719,54.48613 0.66228,26.29053 0.61813,16.49473 0.61813,10.98902 0.66228,7.85469 0.61813,4.55178 0.61813,2.98298 0.61813,1.95314 0.61813,1.27831 0.39737,0.57752 0.13246,1.8421 h 12.75996 l 0.30907,-9.44569 0.26491,-3.12616 0.22076,-0.70688 0.13246,0.0706 0.22076,0.612 0.48567,2.29666 0.97135,4.46387 0.66228,2.04945 0.66228,1.36029 0.66228,0.87982 0.75059,0.62066 0.83889,0.40464 1.1038,0.27653 0.75059,0.0983 0.13245,0.14589 h 9.58101 l 0.30907,-4.78936 0.26491,-1.5851 0.22076,-0.35841 0.17661,0.0769 0.26491,0.44964 0.35322,0.86853 0.30906,-6.9137 0.26492,-1.90804 0.13245,-0.16731 0.0442,0.0236 0.1766,0.38427 0.35322,1.58375 0.35322,1.9447 0.30906,-8.18984 0.22076,-1.84976 0.13246,-0.17809 0.13246,0.28097 0.26491,1.41173 1.98684,12.91079 0.66229,2.15585 0.66228,1.39552 0.75058,1.04464 0.75059,0.56647 0.57398,0.38972 0.30906,-5.90025 0.26491,-1.92052 0.22077,-0.40512 0.13245,0.0676 0.22076,0.42156 0.44152,1.36504 0.22076,0.87246 0.83889,2.35601 0.70644,1.3333 0.70643,0.85707 0.75059,0.5627 0.88304,0.3823 0.75059,0.18524 0.30906,-36.932 0.26491,-12.20342 0.22077,-2.7417 0.0442,-0.0297 0.0442,0.10169 0.13245,0.95341 0.30907,4.63874 1.58948,27.7729 0.66228,6.65982 0.61813,4.1201 0.61813,2.72913 0.61813,1.79565 0.61813,1.17786 0.66228,0.81513 0.75059,0.5706 0.57397,0.27576 0.13246,0.57123 h 7.94738 l 0.30906,-27.53887 0.26492,-9.11427 0.22076,-2.0609 0.0883,0.0466 0.13246,0.7002 0.30906,3.43451 1.58948,20.59724 0.66228,4.95893 0.61813,3.06785 0.61813,2.03212 0.61813,1.33705 0.66228,0.92662 0.70644,0.61942 0.83889,0.4348 0.39737,0.13335 0.13245,0.42534 h 19.20617 l 0.30907,-10.37696 0.26491,-3.43437 0.22076,-0.77657 0.13246,0.0776 0.22076,0.67233 0.48567,2.52309 0.97135,4.90397 0.66228,2.25151 0.66228,1.4944 0.66228,0.96657 0.70644,0.65064 0.83889,0.45815 1.05965,0.30462 0.83889,0.12475 0.13246,0.16027 h 1.50117 l 0.30906,-41.0784 0.26492,-13.59533 0.22076,-3.07415 0.0442,-0.0383 0.0441,0.10782 0.13246,1.04445 0.30906,5.1231 1.58948,30.72391 0.66228,7.39701 0.61813,4.57615 0.61813,3.03122 0.61813,1.99441 0.61813,1.30823 0.39737,0.59158 0.30906,-16.13595 0.26491,-5.20588 0.22077,-1.05552 0.0883,0.0923 0.17661,0.75527 0.39737,3.17938 1.28041,10.89667 0.66228,3.30882 0.61813,2.06269 0.61813,1.37061 0.66228,0.9542 0.70644,0.63922 0.44152,0.26818 0.30906,-7.17221 0.26491,-2.31971 0.22076,-0.47569 0.13246,0.0929 0.22076,0.53051 0.44152,1.69278 0.22076,1.13529 0.83889,2.87957 0.66229,1.54694 0.66228,1.02415 0.70643,0.69623 0.79474,0.4729 1.0155,0.32834 1.41287,0.20255 2.78158,0.12376 h 10.28744 l 0.30907,-180.66564 0.26491,-59.79315 0.22076,-13.52034 0.0441,-0.16841 0.0883,1.51937 0.17661,8.67231 0.39736,33.9574 1.14796,101.48501 0.66228,38.19535 0.61813,23.91976 0.61813,15.9238 0.26491,5.04265 0.26492,-5.07623 0.17661,-0.66876 0.0883,0.18222 0.22076,1.42914 0.48567,5.38427 0.97135,10.47795 0.66228,4.81225 0.35322,1.87226 0.13245,3.1474 0.66229,1.3934 0.66228,0.89942 0.70643,0.60491 0.83889,0.42579 1.10381,0.29095 0.70643,0.0987 0.13246,0.15821 h 7.94738 l 0.30906,-7.31709 0.26492,-2.42166 0.22076,-0.54759 0.13245,0.0547 0.22076,0.47408 0.48568,1.7791 0.30906,-7.16172 0.26491,-1.80207 0.13246,-0.0581 0.17661,0.45115 0.35322,1.87728 1.36871,7.97036 0.66228,2.37235 0.66229,1.56048 0.66228,1.00557 0.70643,0.67582 0.79474,0.45673 1.28041,0.42667 2.25176,0.20393 h 9.71346 l 0.30907,-140.04003 0.26491,-46.34768 0.22076,-10.48007 0.0442,-0.13054 0.0883,1.17771 0.17661,6.7222 0.39737,26.32152 1.14795,78.66446 0.66228,29.60651 0.61813,18.541 0.61813,12.34307 0.61813,8.13947 0.61813,5.34455 0.61813,3.50253 0.61813,2.29331 0.61813,1.50095 0.39737,0.6781 0.13246,2.16294 h 1.50117 l 0.30906,-199.55704 0.26492,-66.04545 0.22076,-14.9341 0.0442,-0.18602 0.0883,1.67824 0.17661,9.57913 0.39737,37.50817 1.14796,112.09686 0.66228,42.18926 0.61813,26.42094 0.61813,17.58888 0.61813,11.59874 0.61813,7.61598 0.61813,4.9911 0.61812,3.26797 0.61813,2.13886 0.39737,0.96629 0.13246,3.08219 h 1.50117 l 0.30907,-6.7686 0.26491,-2.24013 0.22076,-0.50654 0.13246,0.0506 0.22076,0.43854 0.52982,1.80923 0.9272,3.03524 0.61813,1.38778 0.30906,-9.58972 0.26491,-2.97486 0.17661,-0.49268 0.0883,0.0389 0.17661,0.46331 0.35321,1.7861 1.32457,7.21197 0.66228,2.24567 0.66228,1.47905 0.66228,0.95361 0.83889,0.79491 0.88304,0.39859 1.14796,0.26113 0.48567,0.0618 0.13246,0.15616 h 6.31375 l 0.30907,-75.38821 0.26491,-24.95051 0.22076,-5.64177 0.0441,-0.0703 0.0883,0.634 0.17661,3.61879 0.39736,14.16975 1.14796,42.3477 0.66228,15.93817 0.61813,9.98124 0.61813,6.64469 0.61813,4.38174 0.61813,2.87715 0.61813,1.88553 0.0442,0.10656 0.30907,-76.12653 0.26491,-24.94807 0.22076,-5.41801 0.0442,-0.0116 0.0883,0.76036 0.22076,5.23304 0.44152,17.23052 0.30906,14.03098 0.79474,27.88033 0.66228,15.81445 0.61813,9.88045 0.61813,6.57128 0.61813,4.33149 0.61813,2.84359 0.61813,1.86336 0.61813,1.22001 0.66228,0.84358 0.30907,0.28022 0.13245,1.18601 h 7.94738 l 0.30907,-13.03772 0.26491,-4.31497 0.22076,-0.9757 0.0883,0.0221 0.17661,0.50398 0.35321,2.03813 1.32457,8.36518 0.66228,2.61504 0.66228,1.72326 0.66228,1.11131 0.70644,0.74713 0.79473,0.505 0.97135,0.33919 0.83889,0.15673 0.13246,0.20137 h 3.1348 l 0.30906,-7.05101 0.26491,-2.33361 0.22077,-0.52767 0.13245,0.0527 0.22076,0.45684 0.48568,1.7144 0.97134,3.33219 0.66228,1.52987 0.66229,1.01543 0.70643,0.69103 0.17661,0.12725 0.30906,-11.11913 0.26492,-3.60931 0.22076,-0.7522 0.0883,0.053 0.17661,0.49896 0.39737,2.14468 1.19211,6.82303 0.75058,2.80417 0.66228,1.49467 0.66229,0.96389 0.70643,0.64802 0.83889,0.45605 1.05965,0.30314 0.70643,0.10896 0.13246,0.17465 h 1.50117 l 0.30907,-47.14681 0.26491,-15.60372 0.22076,-3.52829 0.0441,-0.0439 0.0883,0.3965 0.17661,2.26314 0.39736,8.86158 1.14796,26.4837 0.66228,9.96753 0.61813,6.24214 0.61813,4.1555 0.61813,2.74028 0.61813,1.79933 0.61813,1.17919 0.66228,0.8157 0.75059,0.57088 0.22076,0.11911 0.13245,0.72819 h 9.58101 l 0.30907,-10.37696 0.26491,-3.43437 0.22076,-0.77657 0.13246,0.0776 0.22076,0.67233 0.48567,2.52309 0.97135,4.90397 0.61813,2.12762 0.30906,-5.85291 0.26492,-1.63204 0.1766,-0.13667 0.17661,0.30914 0.35322,1.30838 1.36872,5.58497 0.66228,1.66442 0.66228,1.095 0.70643,0.74243 0.13246,0.10393 0.17661,0.26677 0.88304,0.37661 1.19211,0.25318 2.29591,0.20008 h 5.12164 l 0.30907,-63.95161 0.26491,-21.16544 0.22076,-4.7859 0.0442,-0.0596 0.0883,0.53783 0.17661,3.0698 0.39737,12.02016 1.14795,35.92344 0.66228,13.5203 0.61813,8.46706 0.61813,5.63667 0.30907,2.05259 0.30906,-7.43817 0.26491,-1.8397 0.0883,-0.0737 0.0442,0.0344 0.17661,0.49901 0.35322,2.01166 1.32456,8.24792 1.05965,4.41301 0.66228,1.04108 0.52983,0.55783 0.30906,-4.65727 0.26492,-1.45013 0.22076,-0.24537 0.17661,0.16352 0.30906,0.68648 1.58948,4.05224 0.83889,1.27055 0.75058,0.58325 0.88304,0.39792 1.14796,0.26158 2.20761,0.21858 h 12.27428 l 0.30907,-7.2354 0.26491,-2.39463 0.22076,-0.54147 0.13246,0.0541 0.22076,0.46878 0.48567,1.75924 0.97135,3.41933 0.66228,1.56987 0.66228,1.04199 0.70644,0.7091 0.79474,0.48186 0.97134,0.3244 1.36872,0.20879 0.26491,0.0223 0.35322,-14.83725 0.26491,-3.8281 0.22076,-0.68633 0.13246,0.23514 0.26491,1.29894 0.88304,6.39369 0.75059,4.32967 0.66228,2.56026 0.61813,1.58667 0.66228,1.11141 0.70644,0.74665 0.79473,0.5045 0.13246,0.0605 0.30907,-37.92736 0.26491,-12.50716 0.22076,-2.78713 0.0442,-0.0245 0.0883,0.34102 0.22077,2.51253 0.44152,8.40919 0.52982,10.89632 0.70644,11.3293 0.66228,7.23388 0.61813,4.49133 0.61813,2.97944 0.61813,1.96164 0.61813,1.28713 0.66228,0.89089 0.70643,0.59518 0.70644,0.36661 0.13245,0.58767 h 3.1348 l 0.30907,-7.84924 0.26491,-2.59779 0.22076,-0.5874 0.13246,0.0587 0.22076,0.50856 0.48567,1.90849 0.97135,3.70941 0.66228,1.70307 0.66228,1.13038 0.70643,0.76926 0.79474,0.52275 0.97135,0.35192 1.32456,0.22203 0.30907,0.0286 0.13246,0.12123 h 1.50117 l 0.30906,-11.97342 0.26491,-3.96273 0.22076,-0.89604 0.0883,0.0203 0.17661,0.46284 0.35321,1.87175 0.17661,1.13289 0.30907,-18.88072 0.26491,-5.29845 0.13246,-0.5149 0.0442,0.0439 0.13245,0.62351 0.26492,2.72269 1.85439,22.71335 0.61813,4.04162 0.61813,2.70357 0.61813,1.78666 0.66228,1.24073 0.66228,0.78923 0.26491,0.22818 0.13246,0.26833 0.88304,0.3984 0.57398,0.15573 0.0442,0.3226 0.30907,-3.0342 0.26491,-1.0042 0.22076,-0.22706 0.22076,0.0823 0.35322,0.44553 1.50117,2.15739 0.75058,0.62018 0.88305,0.43263 1.1038,0.27954 1.67778,0.16947 3.57632,0.0784 h 8.47721 l 0.30906,-11.70734 0.26492,-3.87467 0.22076,-0.87613 0.0883,0.0198 0.17661,0.45255 0.35322,1.83016 1.32456,7.51159 0.66228,2.3482 0.66228,1.54742 0.66229,0.99791 0.70643,0.67089 0.79474,0.45347 0.22076,0.088 0.30906,-6.81516 0.26492,-2.21722 0.22076,-0.46669 0.13245,0.0788 0.22076,0.48827 0.44153,1.57919 0.22075,1.01329 0.83889,2.7225 0.66229,1.46256 0.66228,0.96829 0.70643,0.65825 0.83889,0.46555 1.05965,0.31012 2.031,0.29038 h 7.50586 l 0.30907,-11.44127 0.26491,-3.7866 0.22076,-0.85622 0.0883,0.0194 0.17661,0.44227 0.35322,1.78856 1.32456,7.34087 0.66229,2.29483 0.66228,1.51226 0.66228,0.97523 0.70643,0.65564 0.83889,0.46141 1.05965,0.30671 0.70644,0.11024 0.13245,0.17671 h 3.09065 l 0.30907,-43.6458 0.26491,-14.44503 0.22076,-3.26629 0.0441,-0.0407 0.0883,0.36706 0.17661,2.09508 0.39736,8.20354 1.14796,24.51709 0.66228,9.22736 0.61813,5.77862 0.61813,3.84692 0.61813,2.5368 0.61813,1.66572 0.66228,1.15331 0.30907,-4.75148 0.26491,-1.42968 0.17661,-0.20454 0.17661,0.14994 0.30906,0.7291 0.35322,1.11609 0.13245,1.04586 0.9272,2.2669 0.70643,1.14358 0.70644,0.7351 0.79473,0.50412 0.97135,0.34069 1.36872,0.2196 2.64912,0.14103 h 7.90323 l 0.30907,-4.2012 0.26491,-1.39043 0.22076,-0.3144 0.17661,0.0675 0.30906,0.48056 1.81024,3.4649 0.70644,0.713 0.79473,0.49247 0.22076,0.0962 0.30907,-4.78873 0.26491,-1.54276 0.22076,-0.31075 0.17661,0.11786 0.30907,0.61872 1.72193,4.08071 0.75058,0.9979 0.75059,0.5664 0.88304,0.38618 1.19211,0.26013 2.25176,0.20573 h 5.69562 l 0.30907,-75.85501 0.26491,-25.105 0.22076,-5.6767 0.0441,-0.0707 0.0883,0.63792 0.1766,3.6412 0.39737,14.25749 1.14796,42.60991 0.66228,16.03686 0.61813,10.04305 0.61813,6.68583 0.61813,4.40887 0.61813,2.89497 0.61813,1.8972 0.61813,1.24221 0.66228,0.85895 0.35322,0.32137 0.13245,1.17159 h 6.2696 v 0"
           style="fill:none;stroke:url(#linearGradient19206);stroke-width:2.35544205;stroke-linecap:square;stroke-linejoin:round;stroke-miterlimit:4;stroke-dasharray:none"
           id="path19141"
           transform="translate(248.57143,17.142857)" />
      </g>
    </g>
    <text
       xml:space="preserve"
       style="font-style:normal;font-weight:normal;font-size:10.58333302px;line-height:1.25;font-family:sans-serif;letter-spacing:0px;word-spacing:0px;fill:#000000;fill-opacity:1;stroke:none;stroke-width:0.26458332;stroke-linecap:butt;stroke-linejoin:round"
       x="129.13283"
       y="184.05981"
       id="text19052"><tspan
         sodipodi:role="line"
         x="129.13283"
         y="184.05981"
         style="font-style:normal;font-variant:normal;font-weight:normal;font-stretch:normal;font-size:29.9861145px;font-family:'GFS Artemisia';-inkscape-font-specification:'GFS Artemisia';stroke-width:0.26458332;stroke-linecap:butt;stroke-linejoin:round"
         id="tspan889">low</tspan></text>
    <path
       inkscape:connector-curvature="0"
       clip-path="url(#pcfb9c4f264)"
       d="m 49.412409,31.008702 0.716179,-2.114837 0.71618,-1.43001 0.716179,-0.965628 0.77127,-0.691913 0.881451,-0.503233 0.275454,-0.113412 0.385635,153.337621 0.330544,50.97811 0.220363,10.76856 0.110181,0.90212 0.110181,-1.29537 0.220363,-7.39379 0.440726,-25.32135 1.432358,-87.50852 0.71618,-29.691243 0.716179,-20.893498 0.661088,-13.453923 0.661089,-9.43944 0.661088,-6.59283 0.661089,-4.59405 0.661088,-3.197483 0.661089,-2.224123 0.716179,-1.651865 0.661088,-1.043196 0.05509,-2.379035 0.05509,0.705811 0.330544,2.802671 0.330544,1.161168 0.275454,0.262562 0.220363,-0.05635 0.385635,-0.401317 2.258719,-2.893592 0.881451,-0.595436 1.046723,-0.428314 1.322177,-0.287364 1.983266,-0.179133 4.076712,-0.0907 h 0.881451 l 0.330545,7.372451 0.330544,3.178729 0.275453,0.837082 0.165272,0.02627 0.220363,-0.314244 0.385635,-1.086139 1.762903,-5.530364 0.77127,-1.500823 0.77127,-1.016473 0.82636,-0.713761 0.936542,-0.503067 1.156905,-0.352638 1.597631,-0.232103 0.495816,-0.03936 0.165272,-0.12556 h 3.91144 l 0.330545,20.953283 0.330544,9.034281 0.275453,2.379075 0.110182,0.135319 0.110181,-0.194306 0.220363,-1.109069 0.440726,-3.798202 0.165272,-1.650124 0.275453,4.664197 0.220363,1.095183 0.110182,-0.03644 0.165272,-0.568246 0.330544,-2.314219 2.148538,-17.882972 0.716179,-3.39951 0.05509,-0.213834 0.330545,6.366052 0.275453,2.082997 0.220363,0.417253 0.165272,-0.152437 0.275454,-0.803726 0.605998,-2.801497 1.101818,-4.915757 0.77127,-2.410024 0.99163,-2.2571 0.77127,-0.898872 1.10181,-0.88317 1.10182,-0.380544 1.48745,-0.255619 2.86471,-0.201968 h 32.17298 l 0.33054,5.044309 0.33055,2.174919 0.27545,0.57274 0.22036,-0.0142 0.27546,-0.36038 0.5509,-1.218252 1.212,-2.664983 0.77127,-1.169979 0.82636,-0.847717 0.88145,-0.578225 0.38563,-0.178525 0.33055,6.13694 0.33054,2.595175 0.27546,0.63689 0.16527,-0.01712 0.22036,-0.314273 0.44073,-1.158664 1.48745,-4.244812 0.88145,-1.705965 0.77127,-0.914323 0.82636,-0.64325 0.99163,-0.47392 1.212,-0.319116 1.7629,-0.209343 3.41562,-0.127928 h 0.93654 l 0.33055,24.234467 0.33054,10.449005 0.27546,2.751627 0.11018,0.156509 0.11018,-0.224733 0.22036,-1.282744 0.44073,-4.392982 1.43236,-15.181791 0.71618,-5.151112 0.71618,-3.624798 0.71617,-2.493974 0.71618,-1.698114 0.71618,-1.150502 0.77127,-0.82574 0.82636,-0.571418 0.99164,-0.417699 0.60599,-0.163264 0.16528,-0.412737 h 21.98119 l 0.33054,8.924546 0.33055,3.847935 0.27545,1.013309 0.16527,0.03181 0.22036,-0.380402 0.38564,-1.314799 1.7629,-6.694652 0.77127,-1.816785 0.71618,-1.158126 0.77127,-0.842145 0.82636,-0.586531 0.99163,-0.430072 1.26709,-0.29807 2.53417,-0.296015 h 6.77616 l 0.33054,4.035447 0.33055,1.739935 0.27545,0.458193 0.22037,-0.01136 0.27545,-0.288303 0.606,-1.081935 1.1569,-2.024653 0.82636,-0.990588 0.82636,-0.65927 0.93654,-0.470774 1.212,-0.343112 1.04672,-0.159032 0.33055,6.773444 0.33054,2.906768 0.27546,0.752939 0.16527,0.01364 0.22036,-0.302899 0.38564,-1.021792 1.7629,-5.186493 0.77127,-1.385802 0.77127,-0.938571 0.82636,-0.659059 0.93654,-0.464513 1.212,-0.336548 1.70781,-0.216611 3.30544,-0.139052 h 13.11159 l 0.33054,11.43649 0.33055,4.930991 0.27545,1.29852 0.16527,0.04076 0.16528,-0.320639 0.33054,-1.303048 2.20363,-10.23275 0.71618,-1.860016 0.71618,-1.284565 0.77127,-0.93056 0.82636,-0.646912 0.93654,-0.45381 1.21199,-0.328084 1.04673,-0.151602 0.16527,-0.194774 h 15.9763 l 0.33055,10.78706 0.33054,4.650982 0.27546,1.224783 0.16527,0.03844 0.16527,-0.302431 0.33055,-1.229054 2.20362,-9.651676 0.71618,-1.754394 0.71618,-1.21162 0.77127,-0.877717 0.82636,-0.610177 0.99164,-0.447015 1.26708,-0.309687 0.93654,-0.123784 0.16528,-0.183714 h 7.87797 l 0.33054,2.859122 0.33055,1.232748 0.27545,0.32463 0.27545,-0.03511 0.38564,-0.360618 2.25872,-2.600148 0.93654,-0.56109 1.10181,-0.388137 1.43236,-0.256569 2.25872,-0.152774 5.12344,-0.06205 h 3.41562 l 0.33054,29.544266 0.33055,12.738394 0.27545,3.354511 0.11018,0.190801 0.11018,-0.273973 0.22037,-1.563795 0.44072,-5.355489 1.43236,-18.508138 0.71618,-6.279726 0.71618,-4.418995 0.71618,-3.040408 0.71618,-2.070172 0.71618,-1.402579 0.71618,-0.948009 0.82636,-0.71801 0.93654,-0.502607 0.71618,-0.242903 0.11018,0.979271 0.33054,2.734885 0.33055,1.079963 0.22036,0.189983 0.22036,-0.0627 0.33055,-0.366451 0.99163,-1.630758 0.93654,-1.274484 0.82636,-0.762311 0.93655,-0.553079 1.10181,-0.379071 1.48745,-0.255886 2.25872,-0.202534 0.33054,39.074674 0.33055,16.847554 0.27545,4.436611 0.11018,0.252349 0.11018,-0.36235 0.22037,-2.068245 0.44072,-7.083067 1.43236,-24.478504 0.71618,-8.305445 0.71618,-5.844478 0.71618,-4.021184 0.71618,-2.737969 0.71618,-1.855023 0.71617,-1.253819 0.77127,-0.898837 0.82636,-0.621637 0.88146,-0.41515 0.16527,-0.66548 h 1.87308 l 0.33055,78.830099 0.33054,33.98861 0.27545,8.95052 0.11019,0.50909 0.11018,-0.73101 0.22036,-4.17252 0.44073,-14.28953 1.43236,-49.383469 0.71617,-16.755584 0.71618,-11.790775 0.66109,-7.592419 0.66109,-5.326935 0.66109,-3.720515 0.66109,-2.592549 0.71618,-1.927293 0.71618,-1.30061 0.77126,-0.931655 0.49582,-0.4209 0.16527,-1.342555 h 26.00282 l 0.33054,3.259399 0.33055,1.405333 0.27545,0.370078 0.22036,-0.0092 0.33055,-0.298352 0.77127,-1.154176 0.99163,-1.35269 0.77127,-0.736899 0.33054,11.468339 0.33055,4.845432 0.27545,1.18515 0.11018,0.02354 0.16527,-0.292018 0.33055,-1.339372 1.10181,-6.258027 0.82636,-3.771853 0.71618,-2.314523 0.71618,-1.612649 0.71618,-1.104512 0.88145,-0.92812 0.88145,-0.531378 1.10182,-0.387748 1.43236,-0.253907 0.11018,-0.01246 0.16527,-0.199412 h 21.98119 l 0.33055,6.829218 0.33054,2.944506 0.27545,0.775402 0.16528,0.02434 0.22036,-0.29109 0.38563,-1.006107 1.76291,-5.122864 0.77127,-1.390236 0.77127,-0.941574 0.82636,-0.661169 0.93654,-0.465999 1.21199,-0.337625 0.0551,-0.01064 0.33055,80.406352 0.33054,34.64508 0.27546,9.10219 0.11018,0.50749 0.11018,-0.75762 0.22036,-4.27991 0.44073,-14.62062 1.43236,-50.534338 0.71618,-17.102851 0.71617,-12.035143 0.66109,-7.749774 0.66109,-5.437339 0.66109,-3.797624 0.66109,-2.646281 0.71618,-1.967236 0.71618,-1.327566 0.77127,-0.950963 0.49581,-0.429624 0.71618,17.763797 0.22037,1.005065 0.16527,0.04646 0.16527,-0.365529 0.33055,-1.485475 2.14853,-11.468825 0.71618,-2.179816 0.71618,-1.507546 0.71618,-1.028961 0.77127,-0.741178 0.88145,-0.540497 1.04672,-0.379732 2.25872,-0.488148 h 5.23362 l 0.33054,24.506764 0.33055,10.56641 0.27545,2.782544 0.11018,0.158268 0.11018,-0.227259 0.22037,-1.297157 0.44072,-4.442341 1.43236,-15.352372 0.71618,-5.20899 0.71618,-3.665526 0.71618,-2.521997 0.71618,-1.717194 0.71618,-1.163429 0.77127,-0.835018 0.82636,-0.577838 0.99163,-0.422392 0.606,-0.165099 0.16527,-0.417374 h 5.89471 l 0.33054,5.445947 0.33055,2.348091 0.27545,0.618343 0.16527,0.01941 0.22036,-0.232129 0.44073,-0.938752 1.59763,-3.754719 0.77127,-1.168903 0.77127,-0.795063 0.88145,-0.588525 1.04672,-0.416428 1.37727,-0.285205 1.87309,-0.252066 0.33054,15.908974 0.33054,6.859361 0.27546,1.806335 0.11018,0.102742 0.0551,-0.04604 0.16527,-0.446031 0.33055,-1.812634 2.14853,-13.994697 0.71618,-2.659895 0.71618,-1.839565 0.71618,-1.255577 0.77127,-0.904414 0.82636,-0.626982 0.99163,-0.458712 1.26709,-0.317594 0.27545,-0.04432 0.16528,-0.270945 h 1.87308 l 0.33055,21.103047 0.33054,9.098853 0.27545,2.396079 0.11019,0.136286 0.11018,-0.195694 0.22036,-1.116997 0.44072,-3.825349 1.43236,-13.220098 0.71618,-4.48552 0.71618,-3.156425 0.71618,-2.171719 0.71618,-1.478695 0.71618,-1.001841 0.77127,-0.719044 0.88145,-0.523401 1.10181,-0.381489 0.44073,-0.09859 0.16527,-0.359406 h 30.02444 l 0.33054,9.394259 0.33055,4.050457 0.27545,1.066642 0.16527,0.03348 0.22036,-0.400423 0.38564,-1.383999 1.7629,-7.047002 0.55091,-1.437613 0.33054,68.878959 0.33055,29.41189 0.27545,7.48346 0.11018,0.29921 0.11018,-0.78671 0.22037,-3.94174 0.44072,-13.04606 1.37727,-43.081252 0.71618,-15.413157 0.71618,-10.866758 0.71618,-7.48315 0.71618,-5.252473 0.66108,-3.18641 0.66109,-2.22008 0.71618,-1.650287 0.71618,-1.113638 0.77127,-0.797707 0.44073,-0.325019 0.16527,-1.18488 h 15.92121 l 0.33055,5.509937 0.33054,2.375681 0.27546,0.625609 0.16527,0.01964 0.22036,-0.234857 0.44073,-0.949782 1.59763,-3.798837 0.77127,-1.182638 0.77127,-0.804405 0.88145,-0.59544 1.04672,-0.421321 1.32218,-0.280713 2.58926,-0.262871 h 11.40378 l 0.33054,2.793771 0.33055,1.204571 0.27545,0.31721 0.27545,-0.03431 0.38564,-0.352376 0.38563,-0.495498 0.33055,4.057295 0.27545,1.385239 0.22036,0.331017 0.16528,-0.04286 0.27545,-0.418164 0.55091,-1.430736 0.22036,-0.631753 0.33054,4.824741 0.27546,1.509414 0.22036,0.238071 0.16527,-0.180726 0.27546,-0.722101 0.66109,-2.586732 0.99163,-3.650068 0.77127,-2.020697 0.71618,-1.305796 0.77127,-0.955194 0.93654,-0.780395 0.99163,-0.442424 0.93654,-0.320411 0.33055,3.443842 0.33054,1.465375 0.27545,0.368066 0.22037,-0.02968 0.33054,-0.345274 0.49582,-0.803899 0.27545,-0.561186 0.99163,-1.449311 0.82637,-0.835509 0.88145,-0.583704 1.04672,-0.41774 1.37727,-0.287495 0.66109,-0.07756 0.33054,21.544707 0.33054,9.277432 0.27546,2.432268 0.11018,0.13311 0.11018,-0.205917 0.22036,-1.152625 0.44073,-3.928608 1.43236,-13.58034 0.71618,-4.585648 0.71618,-3.226884 0.71618,-2.220198 0.71617,-1.511703 0.71618,-1.024205 0.77127,-0.735095 0.88146,-0.535085 1.10181,-0.390005 0.44072,-0.100788 0.16528,-0.367428 h 9.91632 l 0.33055,16.064184 0.33054,6.926281 0.27546,1.823958 0.11018,0.103744 0.0551,-0.04649 0.16527,-0.450383 0.33055,-1.830318 2.14853,-14.13123 0.71618,-2.685846 0.71618,-1.857512 0.71618,-1.267826 0.77127,-0.913238 0.82636,-0.633099 0.99163,-0.463187 1.212,-0.310899 0.33054,-0.05455 0.16528,-0.273589 h 23.96445 l 0.33055,6.05317 0.33054,2.609904 0.27545,0.687288 0.16528,0.02157 0.22036,-0.258011 0.38563,-0.891777 1.76291,-4.540721 0.77127,-1.232254 0.77127,-0.834578 0.88145,-0.616586 0.99163,-0.418624 1.32218,-0.299212 2.53417,-0.280172 h 1.32218 l 0.33054,23.962169 0.33055,10.331601 0.27545,2.72071 0.11018,0.15475 0.11018,-0.222208 0.22037,-1.268331 0.44072,-4.343623 1.43236,-15.011208 0.71618,-5.093235 0.71618,-3.584069 0.71618,-2.465953 0.71618,-1.679034 0.71618,-1.137575 0.77127,-0.816462 0.44072,-0.332944 0.33055,9.421154 0.33054,3.980761 0.27545,0.973916 0.16527,-0.02876 0.22037,-0.485809 0.44072,-1.78514 1.65272,-7.268854 0.77128,-2.011735 0.71617,-1.285013 0.77127,-0.93525 0.82637,-0.651662 0.93654,-0.457635 0.60599,-0.192795 0.33055,4.187207 0.33054,1.772722 0.27546,0.436959 0.22036,-0.04528 0.33054,-0.433617 0.49582,-0.996447 0.22036,-0.617755 0.99164,-1.801118 0.82636,-1.047737 0.82636,-0.697306 0.93654,-0.497934 1.1569,-0.351095 1.59763,-0.231641 3.08508,-0.164725 h 14.54395 l 0.33054,105.387251 0.33055,45.43908 0.27545,11.96587 0.11018,0.6806 0.11019,-0.97728 0.22036,-5.57821 0.44072,-19.10355 1.43236,-66.020311 0.71618,-22.400393 0.71618,-15.762983 0.66109,-10.150237 0.66109,-7.121533 0.27545,2.978091 0.22036,0.702325 0.11019,-0.02112 0.16527,-0.359105 0.33054,-1.469262 2.20363,-11.570305 0.71618,-2.104297 0.16527,-2.024475 0.77127,-0.847824 0.82636,-0.595886 0.99164,-0.438823 1.26708,-0.304735 1.87309,-0.19476 3.69107,-0.108128 h 6.50071 l 0.33054,4.268261 0.33054,1.840316 0.27546,0.484627 0.22036,-0.01202 0.27545,-0.304936 0.606,-1.144355 0.33055,4.21401 0.27545,1.355744 0.22036,0.250135 0.16528,-0.122648 0.27545,-0.5697 0.66109,-2.121108 1.04672,-3.172965 0.77127,-1.643199 0.77127,-1.126496 0.77127,-0.752478 0.88145,-0.552442 1.04672,-0.389376 1.70782,-0.348744 3.14017,-0.15263 h 12.06486 l 0.33055,81.689215 0.33054,35.22136 0.27545,9.27515 0.11018,0.52756 0.11019,-0.75753 0.22036,-4.32385 0.44072,-14.80781 1.43236,-51.174572 0.71618,-17.363299 0.71618,-12.21842 0.66109,-7.867791 0.66109,-5.520141 0.66109,-3.855456 0.66109,-2.686579 0.71618,-1.997194 0.71617,-1.347783 0.77127,-0.965445 0.49582,-0.436167 0.16527,-1.391248 h 1.87309 l 0.33054,116.407125 0.33054,50.19045 0.27546,13.21708 0.11018,0.75178 0.11018,-1.07948 0.22036,-6.1615 0.44073,-21.10112 1.43236,-72.92376 0.71618,-24.742706 0.71618,-17.411248 0.66108,-11.211602 0.66109,-7.866201 0.66109,-5.494024 0.66109,-3.828376 0.66109,-2.664569 0.71618,-1.979611 0.71618,-1.335491 0.606,-0.784218 0.16527,-1.982529 h 1.87308 l 0.33055,3.948312 0.33054,1.702366 0.27545,0.448298 0.22037,-0.01112 0.27545,-0.282078 0.606,-1.058573 1.1569,-1.980936 0.82636,-0.969198 0.33055,5.606691 0.33054,2.29712 0.22036,0.466732 0.16528,0.0032 0.22036,-0.298008 0.44073,-1.148857 1.54254,-4.400234 0.77126,-1.439083 0.77127,-0.980542 0.82636,-0.690368 1.10182,-0.595535 1.26709,-0.309999 1.81799,-0.194756 3.63599,-0.113391 h 4.62762 l 0.33054,43.976027 0.33054,18.960835 0.27546,4.993121 0.11018,0.284003 0.11018,-0.407803 0.22036,-2.327676 0.44073,-7.971535 1.43236,-27.548979 0.71618,-9.347243 0.71617,-6.577582 0.71618,-4.525584 0.66109,-2.884491 0.71618,-2.151406 0.71618,-1.454331 0.55091,-0.78831 0.33054,44.422505 0.33055,19.004152 0.27545,4.868036 0.11018,0.21097 0.11018,-0.489083 0.22037,-2.505584 0.44072,-8.344602 1.48745,-29.729067 0.71618,-9.278853 0.71618,-6.513598 0.71618,-4.476582 0.66109,-2.851793 0.71618,-2.126489 0.71617,-1.437305 0.71618,-0.970362 0.77127,-0.695237 0.88145,-0.505626 0.11019,-0.04766 0.16527,-0.762868 h 9.91633 l 0.33054,7.605266 0.33054,3.279109 0.27546,0.863516 0.16527,0.0271 0.22036,-0.324168 0.38564,-1.120437 1.7629,-5.705008 0.77127,-1.548217 0.77127,-1.048572 0.82636,-0.736301 0.93654,-0.518953 1.15691,-0.363774 1.54254,-0.234199 0.55091,-0.04584 0.16527,-0.129525 h 3.91144 l 0.33054,4.113052 0.33055,1.773395 0.27545,0.467004 0.22036,-0.01158 0.27546,-0.293848 0.60599,-1.102741 1.15691,-2.063589 0.82636,-1.009637 0.82636,-0.671949 0.93654,-0.479827 0.22036,-0.08185 0.33055,6.490622 0.33054,2.755785 0.27546,0.686612 0.16527,-0.0096 0.22036,-0.320937 0.44073,-1.203539 1.54254,-4.564674 0.82636,-1.641628 0.77127,-0.963021 0.82636,-0.677509 0.93654,-0.477938 1.1569,-0.335156 1.65273,-0.225312 2.58926,-0.152103 0.33054,27.502035 0.33055,11.85786 0.27545,3.122633 0.11018,0.177611 0.11018,-0.255034 0.22037,-1.455698 0.44072,-4.985295 1.43236,-17.228773 0.71618,-5.845644 0.71618,-4.113535 0.71618,-2.830241 0.71618,-1.927072 0.71618,-1.305626 0.77127,-0.937076 0.82636,-0.648463 0.93654,-0.45391 0.66109,-0.205385 0.16527,-0.468387 h 11.95468 l 0.33055,6.05317 0.33054,2.609904 0.27546,0.687288 0.16527,0.02157 0.22036,-0.258011 0.38563,-0.891777 1.76291,-4.540721 0.5509,-0.926323 0.33055,3.433691 0.27545,1.180308 0.22037,0.289146 0.22036,-0.07242 0.33054,-0.499619 0.82636,-1.897534 0.93654,-1.895055 0.77127,-1.095087 0.82637,-0.789735 0.88145,-0.537563 1.32217,-0.510899 1.65272,-0.215051 3.25036,-0.145282 h 6.22525 l 0.33054,37.304741 0.33055,16.084424 0.27545,4.23565 0.11018,0.240919 0.11018,-0.345938 0.22037,-1.974561 0.44072,-6.762231 1.43236,-23.369722 0.71618,-7.92924 0.71618,-5.579745 0.71618,-3.83904 0.66108,-2.446906 0.33055,4.378717 0.27545,1.39358 0.22036,0.242812 0.16528,-0.141704 0.27545,-0.616683 0.66109,-2.260006 1.04672,-3.362773 0.77127,-1.738839 0.22037,-0.389514 0.16527,-0.845086 0.82636,-0.819504 0.88145,-0.557107 0.16527,-0.07805 0.33055,2.722561 0.33054,1.118705 0.27545,0.244131 0.27546,-0.104346 0.44072,-0.519206 1.76291,-2.370657 1.04672,-0.887734 1.04672,-0.44559 1.32218,-0.299988 1.92817,-0.184317 3.91144,-0.09775 h 7.43725 v 0"
       style="fill:none;stroke:url(#linearGradient20410);stroke-width:4.23279572;stroke-linecap:square;stroke-linejoin:round;stroke-miterlimit:4;stroke-dasharray:none"
       id="path20374"
       transform="matrix(0.2013011,0,0,0.13977062,-216.37823,158.06813)" />
    <path
       inkscape:tile-y0="184.91799"
       inkscape:tile-x0="69.534863"
       inkscape:connector-curvature="0"
       id="path34304"
       d="m 173.34391,151.10363 -4.30635,0.61803 -3.7149,-0.17501 -2.38405,-0.32389 -2.13086,-0.67922 -2.1508,0.17718 -2.32235,1.00068 -1.81403,0.82707 -1.20937,1.71862 -1.86626,1.91464 c -1.90253,0.85505 -1.73449,1.35396 -3.45582,0.81731 0,0 -0.52227,-0.55679 0.17781,-1.9023 0.29507,-0.56709 -0.2301,-1.90393 -0.2301,-1.90393 l -2.93905,-1.14719 -4.82958,-0.79621 -3.91947,0.0447 -3.72872,-0.11362 c 0,0 1.25181,-0.42413 2.68305,-1.08849 1.38986,-0.64517 0.5978,-0.44467 3.48571,-1.4205 5.48461,-1.85325 9.40541,-2.46026 13.9383,-2.46478 3.85803,-0.004 7.55215,0.2742 11.86681,1.50766 2.81821,0.80566 5.96953,2.05328 8.85003,3.38916 z"
       style="fill:#ffffff;stroke:#000000;stroke-width:0.28;stroke-linecap:round;stroke-linejoin:miter;stroke-miterlimit:4;stroke-dasharray:none;stroke-opacity:1"
       sodipodi:nodetypes="cccccccccccscccccsssscc" />
    <path
       style="fill:none;stroke:#000000;stroke-width:0.57999998;stroke-linecap:round;stroke-linejoin:miter;stroke-miterlimit:4;stroke-dasharray:none;stroke-opacity:1"
       d="M 175.36329,152.35807 H 130.40213"
       id="path19029"
       inkscape:connector-curvature="0"
       inkscape:tile-x0="69.534863"
       inkscape:tile-y0="184.91799" />
    <text
       xml:space="preserve"
       style="font-style:normal;font-weight:normal;font-size:28.22222519px;line-height:1.25;font-family:sans-serif;letter-spacing:0px;word-spacing:0px;fill:#000000;fill-opacity:1;stroke:none;stroke-width:0.26458332;stroke-linecap:butt;stroke-linejoin:round"
       x="115.46645"
       y="206.96663"
       id="text19052-3"><tspan
         sodipodi:role="line"
         x="115.46645"
         y="206.96663"
         style="font-style:normal;font-variant:normal;font-weight:normal;font-stretch:normal;font-size:28.22222519px;font-family:'GFS Artemisia';-inkscape-font-specification:'GFS Artemisia';stroke-width:0.26458332;stroke-linecap:butt;stroke-linejoin:round"
         id="tspan911">EBMs</tspan></text>
  </g>
</svg>
